<svg width="34" height="34" viewBox="0 0 34 34" fill="none" xmlns="http://www.w3.org/2000/svg">
<path d="M1.645 0.800005C1.80258 0.753476 1.9678 0.738473 2.13119 0.755853C2.29457 0.773232 2.45293 0.822654 2.5972 0.901291C2.74147 0.979928 2.86883 1.08624 2.97197 1.21414C3.07512 1.34204 3.15204 1.48902 3.19833 1.64667L4.115 4.75001H28.54C31.6067 4.75001 33.9483 7.61167 33.065 10.6L30.3067 19.9333C29.72 21.9233 27.855 23.25 25.7817 23.25H10.5217C8.44833 23.25 6.585 21.9233 5.99667 19.9333L0.801667 2.35501C0.707567 2.03719 0.743548 1.69501 0.901696 1.40372C1.05984 1.11242 1.32721 0.8942 1.645 0.800005ZM7.41667 29.5C7.41667 28.5054 7.81176 27.5516 8.51502 26.8484C9.21828 26.1451 10.1721 25.75 11.1667 25.75C12.1612 25.75 13.1151 26.1451 13.8183 26.8484C14.5216 27.5516 14.9167 28.5054 14.9167 29.5C14.9167 30.4946 14.5216 31.4484 13.8183 32.1517C13.1151 32.8549 12.1612 33.25 11.1667 33.25C10.1721 33.25 9.21828 32.8549 8.51502 32.1517C7.81176 31.4484 7.41667 30.4946 7.41667 29.5ZM20.75 29.5C20.75 29.0075 20.847 28.5199 21.0355 28.0649C21.2239 27.61 21.5001 27.1966 21.8484 26.8484C22.1966 26.5001 22.61 26.2239 23.0649 26.0355C23.5199 25.847 24.0075 25.75 24.5 25.75C24.9925 25.75 25.4801 25.847 25.9351 26.0355C26.39 26.2239 26.8034 26.5001 27.1517 26.8484C27.4999 27.1966 27.7761 27.61 27.9645 28.0649C28.153 28.5199 28.25 29.0075 28.25 29.5C28.25 30.4946 27.8549 31.4484 27.1517 32.1517C26.4484 32.8549 25.4946 33.25 24.5 33.25C23.5054 33.25 22.5516 32.8549 21.8484 32.1517C21.1451 31.4484 20.75 30.4946 20.75 29.5Z" fill="#ECC243"/>
</svg>
