<svg width="18" height="23" viewBox="0 0 18 23" fill="none" xmlns="http://www.w3.org/2000/svg">
<path d="M9.66189 0.1203H11.8177L13.6655 0.582253L15.5133 1.50616L16.5912 2.58405L17.2071 3.96991L17.3611 5.35577L16.8992 6.74162L16.1292 8.12748L14.7434 9.66732L13.0495 11.0532L11.8177 12.1311L10.2778 15.0568L8.89197 18.5984L7.6601 20.7542L6.58221 21.8321L5.35033 22.448L3.81049 22.602L2.27065 21.9861L1.03877 20.6002L0.268852 18.5984L0.114868 17.6745V15.2108L0.730805 12.2851L1.65471 9.66732L3.65651 5.81772L5.35033 3.19999L6.73619 1.66014L8.73799 0.428269L9.66189 0.1203Z" fill="#ECC243"/>
</svg>
