<svg width="19" height="26" viewBox="0 0 19 26" fill="none" xmlns="http://www.w3.org/2000/svg">
<path d="M4.44799 0.280334H5.98783L7.52767 0.742287L8.60556 1.66619L9.52947 3.20604L10.6074 5.66978L11.9932 9.51939L13.0711 11.6752L15.3809 14.7549L17.2287 17.3726L17.8446 18.6045L18.1526 19.8363V22.1461L17.5367 23.378L16.4588 24.4559L14.7649 25.0718L13.5331 24.9178L12.6092 24.3019L11.5313 23.224L10.1454 21.0682L8.91353 19.2204L7.37369 17.9885L5.67986 16.7567L2.90815 14.6009L1.98424 13.369L1.06033 11.5212L0.598381 9.82736L0.444397 8.59549V5.66978L0.90635 3.66799L1.83026 2.12815L2.60018 1.35822L3.52408 0.588303L4.44799 0.280334Z" fill="#ECC243"/>
</svg>
