<svg width="831" height="167" viewBox="0 0 831 167" fill="none"
  xmlns="http://www.w3.org/2000/svg">
  <mask id="path-1-outside-1_65_365" maskUnits="userSpaceOnUse" x="18" y="18" width="786" height="133" fill="#000">
    <rect fill="white" x="18" y="18" width="786" height="133"/>
    <path d="M21.2869 112.64H26.0869C31.3989 112.64 35.3669 111.456 37.9909 109.088C40.6789 106.72 42.0229 102.784 42.0229 97.28C42.0229 95.808 41.9269 94.272 41.7349 92.672C41.5429 91.008 41.2869 89.248 40.9669 87.392L39.3349 76.832L74.8549 72.992V82.88C74.8549 84.416 75.0469 85.632 75.4309 86.528C75.8789 87.36 76.4549 88.032 77.1589 88.544L81.3829 81.248C83.6229 77.344 85.8949 74.016 88.1989 71.264C90.5669 68.512 93.0309 66.272 95.5909 64.544C98.1509 62.816 100.839 61.568 103.655 60.8C106.535 59.968 109.607 59.552 112.871 59.552C120.423 59.552 126.087 61.632 129.863 65.792C133.639 69.888 135.527 75.616 135.527 82.976C135.527 85.408 135.303 87.52 134.855 89.312C136.455 89.504 138.023 89.6 139.559 89.6H142.439V101.12L139.559 104C137.319 104 135.175 103.744 133.127 103.232C131.143 102.656 129.255 101.632 127.463 100.16C123.367 102.72 117.543 104 109.991 104H80.6149C75.4309 103.936 71.4949 102.656 68.8069 100.16C66.1189 97.6 64.6149 93.632 64.2949 88.256L51.9109 89.504C52.0389 90.976 52.1349 92.32 52.1989 93.536C52.3269 94.752 52.3909 95.84 52.3909 96.8C52.3909 101.408 51.8149 105.568 50.6629 109.28C49.5109 112.992 47.8149 116.16 45.5749 118.784C43.3349 121.472 40.5829 123.52 37.3189 124.928C34.1189 126.336 30.4069 127.04 26.1829 127.04H21.2869V112.64ZM85.6069 89.024L85.8949 89.6H109.991C113.063 89.6 115.591 89.504 117.575 89.312C119.623 89.056 121.255 88.672 122.471 88.16C123.751 87.584 124.647 86.816 125.159 85.856C125.671 84.896 125.927 83.648 125.927 82.112C125.927 79.36 125.031 77.312 123.239 75.968C121.447 74.624 118.471 73.952 114.311 73.952H111.431C108.551 73.952 106.023 74.08 103.847 74.336C101.671 74.528 99.7509 74.944 98.0869 75.584C96.4229 76.224 94.9189 77.12 93.5749 78.272C92.2309 79.424 90.9509 80.928 89.7349 82.784L85.6069 89.024ZM153.685 98.624C152.213 100.608 150.357 102.016 148.117 102.848C145.941 103.616 143.093 104 139.573 104V92.48L142.453 89.6C144.821 89.6 146.549 89.248 147.637 88.544C148.725 87.84 149.621 86.592 150.325 84.8L153.013 78.176C153.845 76.128 154.773 74.208 155.797 72.416C156.821 70.624 158.037 69.056 159.445 67.712C160.853 66.368 162.421 65.312 164.149 64.544C165.941 63.776 167.989 63.392 170.293 63.392C176.309 63.392 180.821 65.76 183.829 70.496C186.901 75.232 188.437 81.792 188.437 90.176V92.96L179.317 106.496L153.685 98.624ZM158.965 85.28L178.261 91.136V90.176C178.261 86.336 177.333 83.328 175.477 81.152C173.621 78.976 171.093 77.888 167.893 77.888C165.845 77.888 164.053 78.432 162.517 79.52C161.045 80.608 159.925 82.336 159.157 84.704L158.965 85.28ZM250.549 127.04C245.429 127.04 240.821 126.432 236.725 125.216C232.693 124.064 229.269 122.336 226.453 120.032C223.637 117.792 221.493 115.04 220.021 111.776C218.549 108.576 217.813 104.896 217.813 100.736C217.813 97.856 218.197 94.624 218.965 91.04C219.797 87.392 220.917 83.872 222.325 80.48L231.541 83.168C230.261 85.92 229.237 88.704 228.469 91.52C227.765 94.336 227.413 96.768 227.413 98.816C227.413 102.848 229.109 105.952 232.501 108.128C235.893 110.368 240.629 111.488 246.709 111.488H254.389C260.853 111.488 266.005 110.752 269.845 109.28C273.749 107.872 275.989 105.92 276.565 103.424L252.853 99.392V85.76H258.517C260.693 85.76 262.677 85.632 264.469 85.376C266.325 85.056 267.861 84.544 269.077 83.84C270.357 83.136 271.349 82.176 272.053 80.96C272.757 79.744 273.109 78.208 273.109 76.352V72.896H272.533C270.677 77.952 266.421 80.48 259.765 80.48C254.581 80.48 250.517 79.136 247.573 76.448C244.693 73.696 243.253 69.92 243.253 65.12C243.253 61.792 243.733 58.72 244.693 55.904C245.717 53.024 247.093 50.56 248.821 48.512C250.613 46.4 252.693 44.768 255.061 43.616C257.493 42.4 260.117 41.792 262.933 41.792C269.205 41.792 274.069 44.416 277.525 49.664C281.045 54.912 282.805 62.208 282.805 71.552C282.805 76.352 282.197 80.192 280.981 83.072C279.765 85.952 277.621 88.064 274.549 89.408V89.984L276.373 90.464C279.445 91.296 281.877 92.672 283.669 94.592C285.461 96.512 286.357 99.008 286.357 102.08C286.357 106.048 285.525 109.568 283.861 112.64C282.261 115.776 279.925 118.4 276.853 120.512C273.781 122.624 270.037 124.224 265.621 125.312C261.205 126.464 256.181 127.04 250.549 127.04ZM262.741 68C265.173 68 267.221 67.904 268.885 67.712C270.549 67.456 271.893 67.072 272.917 66.56C272.533 63.424 271.285 60.928 269.173 59.072C267.125 57.152 264.629 56.192 261.685 56.192C259.189 56.192 257.077 56.864 255.349 58.208C253.685 59.488 252.853 61.152 252.853 63.2C252.853 64.928 253.557 66.176 254.965 66.944C256.373 67.648 258.293 68 260.725 68H262.741ZM261.973 34.112C260.309 34.112 258.933 33.6 257.845 32.576C256.821 31.552 256.309 29.92 256.309 27.68C256.309 25.44 256.821 23.808 257.845 22.784C258.933 21.76 260.309 21.248 261.973 21.248H263.893C265.557 21.248 266.901 21.76 267.925 22.784C269.013 23.808 269.557 25.44 269.557 27.68C269.557 29.92 269.013 31.552 267.925 32.576C266.901 33.6 265.557 34.112 263.893 34.112H261.973ZM257.173 147.68C255.509 147.68 254.133 147.168 253.045 146.144C252.021 145.12 251.509 143.488 251.509 141.248C251.509 139.008 252.021 137.376 253.045 136.352C254.133 135.328 255.509 134.816 257.173 134.816H259.093C260.757 134.816 262.101 135.328 263.125 136.352C264.213 137.376 264.757 139.008 264.757 141.248C264.757 143.488 264.213 145.12 263.125 146.144C262.101 147.168 260.757 147.68 259.093 147.68H257.173ZM242.005 147.68C240.341 147.68 238.965 147.168 237.877 146.144C236.853 145.12 236.341 143.488 236.341 141.248C236.341 139.008 236.853 137.376 237.877 136.352C238.965 135.328 240.341 134.816 242.005 134.816H243.925C245.589 134.816 246.933 135.328 247.957 136.352C249.045 137.376 249.589 139.008 249.589 141.248C249.589 143.488 249.045 145.12 247.957 146.144C246.933 147.168 245.589 147.68 243.925 147.68H242.005ZM353.329 105.152C346.353 105.152 340.465 104.768 335.665 104C330.929 103.232 327.089 101.984 324.145 100.256C321.201 98.464 319.057 96.16 317.713 93.344C316.433 90.528 315.793 87.04 315.793 82.88C315.793 80.32 316.113 77.504 316.753 74.432C317.457 71.36 318.417 68.32 319.633 65.312L328.849 68C327.761 70.176 326.897 72.288 326.257 74.336C325.681 76.32 325.393 78.112 325.393 79.712C325.393 81.568 325.777 83.136 326.545 84.416C327.313 85.632 328.561 86.624 330.289 87.392C332.017 88.16 334.289 88.736 337.105 89.12C339.921 89.44 343.409 89.6 347.569 89.6H361.009C365.489 89.6 369.201 89.504 372.145 89.312C375.089 89.12 377.393 88.768 379.057 88.256C380.721 87.744 381.873 87.072 382.513 86.24C383.217 85.344 383.569 84.224 383.569 82.88V69.152H394.129V82.88C394.129 87.36 396.689 89.6 401.809 89.6H404.689V101.12L401.809 104C396.881 104 393.041 102.976 390.289 100.928C387.537 98.816 385.713 95.52 384.817 91.04H384.241C383.729 93.664 382.801 95.872 381.457 97.664C380.113 99.456 378.225 100.928 375.793 102.08C373.361 103.168 370.289 103.936 366.577 104.384C362.929 104.896 358.513 105.152 353.329 105.152ZM353.233 124.544C351.569 124.544 350.193 124.032 349.105 123.008C348.081 121.984 347.569 120.352 347.569 118.112C347.569 115.872 348.081 114.24 349.105 113.216C350.193 112.192 351.569 111.68 353.233 111.68H355.153C356.817 111.68 358.161 112.192 359.185 113.216C360.273 114.24 360.817 115.872 360.817 118.112C360.817 120.352 360.273 121.984 359.185 123.008C358.161 124.032 356.817 124.544 355.153 124.544H353.233ZM401.792 92.48L404.672 89.6H407.456C409.76 89.6 411.648 89.504 413.12 89.312C414.656 89.12 415.872 88.8 416.768 88.352C417.728 87.84 418.368 87.232 418.688 86.528C419.072 85.76 419.264 84.832 419.264 83.744C419.264 82.784 419.168 81.568 418.976 80.096C418.848 78.56 418.56 76.576 418.112 74.144L416.48 65.216L426.944 63.488L428.384 72.416C428.704 74.144 428.96 76.064 429.152 78.176C429.344 80.288 429.44 82.144 429.44 83.744C429.44 90.72 427.712 95.84 424.256 99.104C420.864 102.368 415.264 104 407.456 104H401.792V92.48ZM426.272 124.64C424.608 124.64 423.232 124.128 422.144 123.104C421.12 122.08 420.608 120.448 420.608 118.208C420.608 115.968 421.12 114.336 422.144 113.312C423.232 112.288 424.608 111.776 426.272 111.776H428.192C429.856 111.776 431.2 112.288 432.224 113.312C433.312 114.336 433.856 115.968 433.856 118.208C433.856 120.448 433.312 122.08 432.224 123.104C431.2 124.128 429.856 124.64 428.192 124.64H426.272ZM411.104 124.64C409.44 124.64 408.064 124.128 406.976 123.104C405.952 122.08 405.44 120.448 405.44 118.208C405.44 115.968 405.952 114.336 406.976 113.312C408.064 112.288 409.44 111.776 411.104 111.776H413.024C414.688 111.776 416.032 112.288 417.056 113.312C418.144 114.336 418.688 115.968 418.688 118.208C418.688 120.448 418.144 122.08 417.056 123.104C416.032 124.128 414.688 124.64 413.024 124.64H411.104ZM438.099 112.64H441.939C447.763 112.64 452.019 111.456 454.707 109.088C457.459 106.72 458.803 102.784 458.739 97.28C458.739 95.808 458.643 94.272 458.451 92.672C458.259 91.008 458.003 89.248 457.683 87.392L455.667 74.624L466.131 72.992L467.571 81.92C467.827 83.328 468.019 84.672 468.147 85.952C468.339 87.232 468.499 88.448 468.627 89.6H477.459V101.12L474.579 104H468.627C467.539 111.104 464.723 116.704 460.179 120.8C455.699 124.96 449.651 127.04 442.035 127.04H438.099V112.64ZM474.542 92.48L477.422 89.6H486.446C488.75 89.6 490.318 89.376 491.15 88.928C492.046 88.416 492.494 87.552 492.494 86.336C492.494 85.504 492.27 84.768 491.822 84.128C491.374 83.424 490.606 82.624 489.518 81.728L478.382 71.744V46.4L524.462 31.808V44.48L483.182 57.44V58.016L507.662 80.384C509.71 82.304 511.534 83.872 513.134 85.088C514.798 86.24 516.302 87.168 517.646 87.872C519.054 88.512 520.366 88.96 521.582 89.216C522.798 89.472 524.078 89.6 525.422 89.6V101.12L522.542 104C520.366 104 518.382 103.808 516.59 103.424C514.862 102.976 513.134 102.208 511.406 101.12C509.678 99.968 507.854 98.464 505.934 96.608C504.078 94.688 501.966 92.256 499.598 89.312L497.006 86.144L496.526 86.432C496.782 87.648 496.91 88.928 496.91 90.272C496.91 92.192 496.622 93.984 496.046 95.648C495.47 97.312 494.638 98.784 493.55 100.064C492.462 101.28 491.15 102.24 489.614 102.944C488.078 103.648 486.35 104 484.43 104H474.542V92.48ZM522.542 92.48L525.422 89.6H529.646C532.078 89.6 533.678 89.152 534.446 88.256C535.278 87.296 535.694 85.824 535.694 83.84V32.96H547.214V83.84C547.214 90.688 545.87 95.744 543.182 99.008C540.558 102.272 536.046 103.936 529.646 104H522.542V92.48ZM558.744 32.96H570.264V104H558.744V32.96ZM602.574 89.6H652.11C655.95 89.6 657.87 87.68 657.87 83.84V32.864H669.39V83.84C669.39 90.752 667.982 95.84 665.166 99.104C662.414 102.368 658.062 104 652.11 104H602.574V89.6ZM623.118 74.144L638.19 67.04L637.998 66.368H630.318C625.518 66.368 623.118 64.128 623.118 59.648C623.118 57.408 623.854 55.584 625.326 54.176C626.798 52.768 628.91 51.264 631.662 49.664L637.998 46.016L641.454 51.776L629.646 58.4L629.838 59.168H637.326C642.254 59.168 644.718 61.152 644.718 65.12C644.718 67.424 644.046 69.312 642.702 70.784C641.422 72.256 639.438 73.664 636.75 75.008L626.286 80.288L623.118 74.144ZM678.021 112.64H684.165C690.245 112.64 695.109 111.872 698.757 110.336C702.469 108.8 705.093 106.688 706.629 104H695.493C690.309 104 686.245 102.496 683.301 99.488C680.421 96.416 678.981 92.16 678.981 86.72C678.981 83.392 679.461 80.32 680.421 77.504C681.445 74.624 682.821 72.16 684.549 70.112C686.341 68 688.421 66.368 690.789 65.216C693.221 64 695.845 63.392 698.661 63.392C704.485 63.392 709.093 65.696 712.485 70.304C715.877 74.912 717.733 81.344 718.053 89.6H722.949V101.12L720.069 104H716.805C715.013 111.36 711.461 117.024 706.149 120.992C700.901 125.024 693.893 127.04 685.125 127.04H678.021V112.64ZM688.581 84.8C688.581 86.528 689.285 87.776 690.693 88.544C692.101 89.248 694.021 89.6 696.453 89.6H708.453V89.312C708.453 85.856 707.397 83.072 705.285 80.96C703.237 78.848 700.613 77.792 697.413 77.792C694.917 77.792 692.805 78.464 691.077 79.808C689.413 81.088 688.581 82.752 688.581 84.8ZM720.073 92.48L722.953 89.6H725.353C730.473 89.6 733.033 87.36 733.033 82.88V32.96H744.553V82.88C744.553 87.36 746.793 89.6 751.273 89.6H754.633V101.12L751.753 104C746.505 104 742.505 102.976 739.753 100.928C737.001 98.816 735.177 95.52 734.281 91.04H733.705C732.873 95.52 731.401 98.816 729.289 100.928C727.177 102.976 724.105 104 720.073 104V92.48ZM765.873 98.624C764.401 100.608 762.545 102.016 760.305 102.848C758.129 103.616 755.281 104 751.761 104V92.48L754.641 89.6C757.009 89.6 758.737 89.248 759.825 88.544C760.913 87.84 761.809 86.592 762.513 84.8L765.201 78.176C766.033 76.128 766.961 74.208 767.985 72.416C769.009 70.624 770.225 69.056 771.633 67.712C773.041 66.368 774.609 65.312 776.337 64.544C778.129 63.776 780.177 63.392 782.481 63.392C788.497 63.392 793.009 65.76 796.017 70.496C799.089 75.232 800.625 81.792 800.625 90.176V92.96L791.505 106.496L765.873 98.624ZM771.153 85.28L790.449 91.136V90.176C790.449 86.336 789.521 83.328 787.665 81.152C785.809 78.976 783.281 77.888 780.081 77.888C778.033 77.888 776.241 78.432 774.705 79.52C773.233 80.608 772.113 82.336 771.345 84.704L771.153 85.28Z"/>
  </mask>
  <path d="M21.2869 112.64V109.64C19.63 109.64 18.2869 110.983 18.2869 112.64H21.2869ZM37.9909 109.088L36.0078 106.837C35.9988 106.845 35.9899 106.853 35.981 106.861L37.9909 109.088ZM41.7349 92.672L38.7546 93.0159L38.7562 93.0294L41.7349 92.672ZM40.9669 87.392L38.0021 87.8502C38.0047 87.8674 38.0075 87.8846 38.0105 87.9017L40.9669 87.392ZM39.3349 76.832L39.0124 73.8494C38.1978 73.9374 37.4546 74.3549 36.9555 75.0048C36.4565 75.6547 36.2449 76.4804 36.3701 77.2902L39.3349 76.832ZM74.8549 72.992H77.8549C77.8549 72.1402 77.4928 71.3286 76.859 70.7596C76.2251 70.1906 75.3793 69.9178 74.5324 70.0094L74.8549 72.992ZM75.4309 86.528L72.6734 87.7098C72.7085 87.7916 72.7472 87.8719 72.7895 87.9503L75.4309 86.528ZM77.1589 88.544L75.3944 90.9702C76.0817 91.4701 76.9487 91.655 77.7802 91.479C78.6116 91.303 79.3293 90.7826 79.7552 90.0471L77.1589 88.544ZM81.3829 81.248L83.9792 82.7511L83.985 82.741L81.3829 81.248ZM88.1989 71.264L85.9248 69.3073C85.916 69.3175 85.9073 69.3278 85.8986 69.3382L88.1989 71.264ZM95.5909 64.544L97.2693 67.0305L97.2693 67.0305L95.5909 64.544ZM103.655 60.8L104.444 63.6943C104.459 63.6903 104.473 63.6863 104.487 63.6821L103.655 60.8ZM129.863 65.792L127.642 67.8083C127.647 67.814 127.652 67.8197 127.657 67.8254L129.863 65.792ZM134.855 89.312L131.944 88.5844C131.736 89.4198 131.896 90.3047 132.384 91.0138C132.873 91.723 133.642 92.188 134.497 92.2906L134.855 89.312ZM142.439 89.6H145.439C145.439 87.9431 144.096 86.6 142.439 86.6V89.6ZM142.439 101.12L144.56 103.241C145.123 102.679 145.439 101.916 145.439 101.12H142.439ZM139.559 104V107C140.355 107 141.118 106.684 141.68 106.121L139.559 104ZM133.127 103.232L132.29 106.113C132.327 106.124 132.363 106.133 132.399 106.142L133.127 103.232ZM127.463 100.16L129.367 97.8418C128.372 97.0241 126.965 96.9332 125.873 97.616L127.463 100.16ZM80.6149 104L80.5778 107C80.5902 107 80.6025 107 80.6149 107L80.6149 104ZM68.8069 100.16L66.7379 102.332C66.7471 102.341 66.7563 102.35 66.7655 102.358L68.8069 100.16ZM64.2949 88.256L67.2896 88.0777C67.241 87.2622 66.862 86.5018 66.24 85.972C65.618 85.4423 64.8069 85.1892 63.9941 85.2711L64.2949 88.256ZM51.9109 89.504L51.6101 86.5191C49.9775 86.6836 48.78 88.1292 48.9222 89.7639L51.9109 89.504ZM52.1989 93.536L49.203 93.6937C49.2058 93.7459 49.2099 93.798 49.2154 93.85L52.1989 93.536ZM50.6629 109.28L53.5281 110.169L50.6629 109.28ZM45.5749 118.784L43.2932 116.836C43.2855 116.845 43.2778 116.854 43.2702 116.863L45.5749 118.784ZM37.3189 124.928L36.1306 122.173C36.1239 122.176 36.1173 122.179 36.1107 122.182L37.3189 124.928ZM21.2869 127.04H18.2869C18.2869 128.697 19.63 130.04 21.2869 130.04V127.04ZM85.6069 89.024L83.1048 87.3688C82.5129 88.2635 82.4438 89.4061 82.9236 90.3656L85.6069 89.024ZM85.8949 89.6L83.2116 90.9416C83.7198 91.958 84.7586 92.6 85.8949 92.6V89.6ZM117.575 89.312L117.864 92.298C117.892 92.2954 117.919 92.2923 117.947 92.2888L117.575 89.312ZM122.471 88.16L123.635 90.9249C123.657 90.9155 123.68 90.9057 123.702 90.8958L122.471 88.16ZM123.239 75.968L125.039 73.568L125.039 73.568L123.239 75.968ZM103.847 74.336L104.111 77.3244C104.14 77.3218 104.168 77.3189 104.197 77.3155L103.847 74.336ZM98.0869 75.584L99.1638 78.384L99.1638 78.384L98.0869 75.584ZM93.5749 78.272L91.6225 75.9942L91.6225 75.9942L93.5749 78.272ZM89.7349 82.784L92.237 84.4392L92.2443 84.4281L89.7349 82.784ZM21.2869 115.64H26.0869V109.64H21.2869V115.64ZM26.0869 115.64C31.7782 115.64 36.605 114.38 40.0008 111.315L35.981 106.861C34.1287 108.532 31.0196 109.64 26.0869 109.64V115.64ZM39.974 111.339C43.5886 108.155 45.0229 103.184 45.0229 97.28H39.0229C39.0229 102.384 37.7691 105.285 36.0078 106.837L39.974 111.339ZM45.0229 97.28C45.0229 95.6779 44.9184 94.0222 44.7135 92.3146L38.7562 93.0294C38.9353 94.5218 39.0229 95.9381 39.0229 97.28H45.0229ZM44.7151 92.3281C44.516 90.6023 44.2516 88.7867 43.9233 86.8823L38.0105 87.9017C38.3221 89.7093 38.5698 91.4137 38.7546 93.0159L44.7151 92.3281ZM43.9317 86.9338L42.2997 76.3738L36.3701 77.2902L38.0021 87.8502L43.9317 86.9338ZM39.6573 79.8146L75.1773 75.9746L74.5324 70.0094L39.0124 73.8494L39.6573 79.8146ZM71.8549 72.992V82.88H77.8549V72.992H71.8549ZM71.8549 82.88C71.8549 84.6142 72.0639 86.2875 72.6734 87.7098L78.1883 85.3462C78.0298 84.9765 77.8549 84.2178 77.8549 82.88H71.8549ZM72.7895 87.9503C73.4322 89.144 74.2961 90.1715 75.3944 90.9702L78.9234 86.1178C78.6136 85.8925 78.3255 85.576 78.0723 85.1057L72.7895 87.9503ZM79.7552 90.0471L83.9792 82.7511L78.7866 79.7449L74.5626 87.0409L79.7552 90.0471ZM83.985 82.741C86.1583 78.9533 88.3325 75.7778 90.4992 73.1898L85.8986 69.3382C83.4573 72.2542 81.0875 75.7347 78.7808 79.755L83.985 82.741ZM90.4729 73.2207C92.6964 70.6366 94.9652 68.5858 97.2693 67.0305L93.9125 62.0575C91.0965 63.9582 88.4373 66.3874 85.9248 69.3073L90.4729 73.2207ZM97.2693 67.0305C99.5732 65.4754 101.963 64.371 104.444 63.6943L102.866 57.9057C99.7149 58.765 96.7286 60.1566 93.9125 62.0575L97.2693 67.0305ZM104.487 63.6821C107.074 62.9349 109.864 62.552 112.871 62.552V56.552C109.35 56.552 105.996 57.0011 102.822 57.9179L104.487 63.6821ZM112.871 62.552C119.882 62.552 124.611 64.4695 127.642 67.8083L132.084 63.7757C127.563 58.7945 120.964 56.552 112.871 56.552V62.552ZM127.657 67.8254C130.776 71.2088 132.527 76.1217 132.527 82.976H138.527C138.527 75.1103 136.502 68.5672 132.069 63.7586L127.657 67.8254ZM132.527 82.976C132.527 85.2351 132.318 87.0916 131.944 88.5844L137.765 90.0396C138.288 87.9484 138.527 85.5809 138.527 82.976H132.527ZM134.497 92.2906C136.21 92.4962 137.898 92.6 139.559 92.6V86.6C138.148 86.6 136.699 86.5118 135.212 86.3334L134.497 92.2906ZM139.559 92.6H142.439V86.6H139.559V92.6ZM139.439 89.6V101.12H145.439V89.6H139.439ZM140.318 98.9987L137.438 101.879L141.68 106.121L144.56 103.241L140.318 98.9987ZM139.559 101C137.549 101 135.65 100.771 133.854 100.322L132.399 106.142C134.699 106.717 137.089 107 139.559 107V101ZM133.963 100.351C132.415 99.9014 130.883 99.0874 129.367 97.8418L125.559 102.478C127.626 104.177 129.871 105.411 132.29 106.113L133.963 100.351ZM125.873 97.616C122.451 99.7545 117.271 101 109.991 101V107C117.815 107 124.282 105.686 129.053 102.704L125.873 97.616ZM109.991 101H80.6149V107H109.991V101ZM80.6519 101C75.9057 100.942 72.8014 99.7753 70.8482 97.9616L66.7655 102.358C70.1884 105.537 74.9561 106.93 80.5778 107L80.6519 101ZM70.8758 97.9876C68.9419 96.1458 67.5846 93.0344 67.2896 88.0777L61.3002 88.4343C61.6451 94.2296 63.2958 99.0542 66.7379 102.332L70.8758 97.9876ZM63.9941 85.2711L51.6101 86.5191L52.2117 92.4889L64.5957 91.2409L63.9941 85.2711ZM48.9222 89.7639C49.0478 91.2087 49.1411 92.518 49.203 93.6937L55.1947 93.3783C55.1286 92.122 55.03 90.7433 54.8996 89.2441L48.9222 89.7639ZM49.2154 93.85C49.3352 94.9884 49.3909 95.9687 49.3909 96.8H55.3909C55.3909 95.7113 55.3186 94.5156 55.1824 93.2219L49.2154 93.85ZM49.3909 96.8C49.3909 101.161 48.8455 105.014 47.7977 108.391L53.5281 110.169C54.7842 106.122 55.3909 101.655 55.3909 96.8H49.3909ZM47.7977 108.391C46.7511 111.763 45.2374 114.559 43.2932 116.836L47.8566 120.732C50.3924 117.761 52.2707 114.221 53.5281 110.169L47.7977 108.391ZM43.2702 116.863C41.3367 119.184 38.9693 120.949 36.1306 122.173L38.5071 127.683C42.1964 126.091 45.3331 123.76 47.8795 120.705L43.2702 116.863ZM36.1107 122.182C33.3621 123.391 30.0757 124.04 26.1829 124.04V130.04C30.738 130.04 34.8757 129.281 38.5271 127.674L36.1107 122.182ZM26.1829 124.04H21.2869V130.04H26.1829V124.04ZM24.2869 127.04V112.64H18.2869V127.04H24.2869ZM82.9236 90.3656L83.2116 90.9416L88.5782 88.2584L88.2902 87.6824L82.9236 90.3656ZM85.8949 92.6H109.991V86.6H85.8949V92.6ZM109.991 92.6C113.114 92.6 115.747 92.5029 117.864 92.298L117.286 86.3259C115.435 86.5051 113.012 86.6 109.991 86.6V92.6ZM117.947 92.2888C120.133 92.0156 122.065 91.5858 123.635 90.9249L121.307 85.3951C120.444 85.7582 119.113 86.0964 117.203 86.3352L117.947 92.2888ZM123.702 90.8958C125.41 90.127 126.901 88.9646 127.806 87.2678L122.512 84.4442C122.393 84.6674 122.091 85.041 121.24 85.4242L123.702 90.8958ZM127.806 87.2678C128.625 85.7314 128.927 83.9496 128.927 82.112H122.927C122.927 83.3464 122.716 84.0606 122.512 84.4442L127.806 87.2678ZM128.927 82.112C128.927 78.6565 127.76 75.6089 125.039 73.568L121.439 78.368C122.302 79.0151 122.927 80.0635 122.927 82.112H128.927ZM125.039 73.568C122.442 71.6205 118.638 70.952 114.311 70.952V76.952C118.304 76.952 120.452 77.6275 121.439 78.368L125.039 73.568ZM114.311 70.952H111.431V76.952H114.311V70.952ZM111.431 70.952C108.468 70.952 105.818 71.0834 103.496 71.3565L104.197 77.3155C106.228 77.0766 108.634 76.952 111.431 76.952V70.952ZM103.583 71.3476C101.189 71.5589 98.9858 72.024 97.0099 72.784L99.1638 78.384C100.516 77.864 102.153 77.4971 104.111 77.3244L103.583 71.3476ZM97.0099 72.784C95.0288 73.5459 93.2283 74.6179 91.6225 75.9942L95.5272 80.5498C96.6095 79.6221 97.817 78.9021 99.1638 78.384L97.0099 72.784ZM91.6225 75.9942C90.0177 77.3698 88.559 79.1045 87.2255 81.1399L92.2443 84.4281C93.3427 82.7515 94.4441 81.4782 95.5273 80.5498L91.6225 75.9942ZM87.2328 81.1288L83.1048 87.3688L88.1089 90.6792L92.2369 84.4392L87.2328 81.1288ZM153.685 98.624L154.566 95.7562C153.351 95.3831 152.033 95.8159 151.276 96.8365L153.685 98.624ZM148.117 102.848L149.116 105.677C149.131 105.672 149.146 105.666 149.162 105.66L148.117 102.848ZM139.573 104H136.573C136.573 105.657 137.916 107 139.573 107V104ZM139.573 92.48L137.452 90.3587C136.889 90.9213 136.573 91.6844 136.573 92.48H139.573ZM142.453 89.6V86.6C141.657 86.6 140.894 86.9161 140.332 87.4787L142.453 89.6ZM147.637 88.544L146.007 86.0253L146.007 86.0253L147.637 88.544ZM150.325 84.8L147.545 83.6719C147.541 83.6823 147.537 83.6927 147.533 83.703L150.325 84.8ZM153.013 78.176L150.234 77.0469L150.233 77.0479L153.013 78.176ZM155.797 72.416L158.402 73.9044L158.402 73.9044L155.797 72.416ZM159.445 67.712L157.374 65.5419L157.374 65.5419L159.445 67.712ZM164.149 64.544L162.967 61.7866C162.955 61.7918 162.943 61.7971 162.931 61.8026L164.149 64.544ZM183.829 70.496L181.297 72.1044C181.302 72.1125 181.307 72.1205 181.312 72.1286L183.829 70.496ZM188.437 92.96L190.925 94.6363C191.259 94.141 191.437 93.5573 191.437 92.96H188.437ZM179.317 106.496L178.436 109.364C179.699 109.752 181.067 109.268 181.805 108.172L179.317 106.496ZM158.965 85.28L156.119 84.3313C155.863 85.0995 155.928 85.9386 156.3 86.6579C156.672 87.3772 157.319 87.9156 158.094 88.1507L158.965 85.28ZM178.261 91.136L177.39 94.0067C178.299 94.2826 179.285 94.1116 180.048 93.5457C180.811 92.9799 181.261 92.086 181.261 91.136H178.261ZM175.477 81.152L173.195 83.0988L173.195 83.0988L175.477 81.152ZM162.517 79.52L160.783 77.0719C160.767 77.0836 160.75 77.0955 160.734 77.1075L162.517 79.52ZM159.157 84.704L162.003 85.6527C162.006 85.645 162.008 85.6372 162.011 85.6295L159.157 84.704ZM151.276 96.8365C150.138 98.3706 148.749 99.4131 147.073 100.036L149.162 105.66C151.965 104.619 154.289 102.845 156.094 100.412L151.276 96.8365ZM147.119 100.019C145.386 100.631 142.913 101 139.573 101V107C143.274 107 146.497 106.601 149.116 105.677L147.119 100.019ZM142.573 104V92.48H136.573V104H142.573ZM141.694 94.6013L144.574 91.7213L140.332 87.4787L137.452 90.3587L141.694 94.6013ZM142.453 92.6C144.988 92.6 147.436 92.2474 149.267 91.0627L146.007 86.0253C145.662 86.2486 144.654 86.6 142.453 86.6V92.6ZM149.267 91.0627C151.081 89.8888 152.29 88.0036 153.117 85.897L147.533 83.703C146.952 85.1804 146.369 85.7912 146.007 86.0253L149.267 91.0627ZM153.105 85.9281L155.793 79.304L150.233 77.0479L147.545 83.6719L153.105 85.9281ZM155.793 79.3051C156.578 77.372 157.448 75.5728 158.402 73.9044L153.192 70.9276C152.098 72.8432 151.112 74.884 150.234 77.0469L155.793 79.3051ZM158.402 73.9044C159.291 72.349 160.331 71.0141 161.517 69.8821L157.374 65.5419C155.744 67.0979 154.352 68.899 153.192 70.9276L158.402 73.9044ZM161.517 69.8821C162.683 68.769 163.964 67.9093 165.368 67.2854L162.931 61.8026C160.878 62.7147 159.024 63.967 157.374 65.5419L161.517 69.8821ZM165.331 67.3014C166.688 66.7198 168.323 66.392 170.293 66.392V60.392C167.656 60.392 165.194 60.8322 162.967 61.7866L165.331 67.3014ZM170.293 66.392C175.371 66.392 178.885 68.3076 181.297 72.1044L186.362 68.8876C182.757 63.2124 177.247 60.392 170.293 60.392V66.392ZM181.312 72.1286C183.951 76.1963 185.437 82.1074 185.437 90.176H191.437C191.437 81.4766 189.851 74.2677 186.346 68.8634L181.312 72.1286ZM185.437 90.176V92.96H191.437V90.176H185.437ZM185.949 91.2837L176.829 104.82L181.805 108.172L190.925 94.6363L185.949 91.2837ZM180.198 103.628L154.566 95.7562L152.804 101.492L178.436 109.364L180.198 103.628ZM158.094 88.1507L177.39 94.0067L179.132 88.2653L159.836 82.4093L158.094 88.1507ZM181.261 91.136V90.176H175.261V91.136H181.261ZM181.261 90.176C181.261 85.8686 180.217 82.0859 177.76 79.2052L173.195 83.0988C174.449 84.5701 175.261 86.8034 175.261 90.176H181.261ZM177.76 79.2052C175.262 76.2766 171.854 74.888 167.893 74.888V80.888C170.332 80.888 171.981 81.6754 173.195 83.0988L177.76 79.2052ZM167.893 74.888C165.281 74.888 162.871 75.593 160.783 77.0719L164.251 81.9681C165.235 81.271 166.409 80.888 167.893 80.888V74.888ZM160.734 77.1075C158.606 78.6801 157.196 81.0254 156.303 83.7785L162.011 85.6295C162.654 83.6466 163.484 82.5359 164.3 81.9325L160.734 77.1075ZM156.311 83.7553L156.119 84.3313L161.811 86.2287L162.003 85.6527L156.311 83.7553ZM236.725 125.216L237.579 122.34C237.569 122.337 237.559 122.334 237.549 122.331L236.725 125.216ZM226.453 120.032L228.353 117.71C228.342 117.701 228.331 117.693 228.321 117.684L226.453 120.032ZM220.021 111.776L222.756 110.543C222.753 110.536 222.75 110.529 222.747 110.522L220.021 111.776ZM218.965 91.04L216.04 90.3729C216.037 90.3857 216.034 90.3986 216.032 90.4114L218.965 91.04ZM222.325 80.48L223.165 77.6C221.697 77.1717 220.141 77.917 219.554 79.3299L222.325 80.48ZM231.541 83.168L234.261 84.4332C234.63 83.6401 234.635 82.7254 234.273 81.9288C233.912 81.1322 233.221 80.5329 232.381 80.288L231.541 83.168ZM228.469 91.52L225.575 90.7306C225.569 90.7512 225.564 90.7718 225.559 90.7924L228.469 91.52ZM232.501 108.128L234.154 105.625C234.143 105.617 234.132 105.61 234.121 105.603L232.501 108.128ZM269.845 109.28L268.827 106.458C268.809 106.465 268.79 106.472 268.771 106.479L269.845 109.28ZM276.565 103.424L279.488 104.099C279.674 103.294 279.52 102.448 279.062 101.76C278.604 101.073 277.882 100.605 277.068 100.466L276.565 103.424ZM252.853 99.392H249.853C249.853 100.855 250.908 102.104 252.35 102.35L252.853 99.392ZM252.853 85.76V82.76C251.196 82.76 249.853 84.1031 249.853 85.76H252.853ZM264.469 85.376L264.893 88.3458C264.922 88.3418 264.95 88.3373 264.979 88.3324L264.469 85.376ZM269.077 83.84L267.631 81.2114C267.612 81.2219 267.593 81.2327 267.574 81.2437L269.077 83.84ZM273.109 72.896H276.109C276.109 71.2391 274.766 69.896 273.109 69.896V72.896ZM272.533 72.896V69.896C271.275 69.896 270.15 70.6811 269.717 71.8622L272.533 72.896ZM247.573 76.448L245.501 78.617C245.517 78.6327 245.534 78.6482 245.55 78.6635L247.573 76.448ZM244.693 55.904L241.866 54.899C241.862 54.9113 241.858 54.9236 241.854 54.936L244.693 55.904ZM248.821 48.512L246.534 46.5711L246.528 46.5774L248.821 48.512ZM255.061 43.616L256.374 46.3137C256.383 46.3089 256.393 46.3041 256.403 46.2993L255.061 43.616ZM277.525 49.664L275.02 51.314C275.024 51.321 275.029 51.3281 275.034 51.3351L277.525 49.664ZM274.549 89.408L273.347 86.6595C272.255 87.1373 271.549 88.2161 271.549 89.408H274.549ZM274.549 89.984H271.549C271.549 91.3468 272.468 92.5384 273.786 92.8852L274.549 89.984ZM276.373 90.464L277.157 87.5683C277.15 87.5664 277.144 87.5646 277.137 87.5628L276.373 90.464ZM283.861 112.64L281.223 111.211C281.212 111.233 281.2 111.255 281.189 111.277L283.861 112.64ZM276.853 120.512L275.154 118.04L275.154 118.04L276.853 120.512ZM265.621 125.312L264.903 122.399C264.89 122.402 264.877 122.406 264.864 122.409L265.621 125.312ZM268.885 67.712L269.229 70.6922C269.267 70.6879 269.304 70.6829 269.341 70.6771L268.885 67.712ZM272.917 66.56L274.259 69.2433C275.394 68.6757 276.049 67.4551 275.895 66.1954L272.917 66.56ZM269.173 59.072L267.121 61.2606C267.145 61.2826 267.169 61.3042 267.193 61.3255L269.173 59.072ZM255.349 58.208L257.178 60.5859C257.182 60.5826 257.187 60.5793 257.191 60.5761L255.349 58.208ZM254.965 66.944L253.529 69.5777C253.56 69.5948 253.592 69.6113 253.623 69.6273L254.965 66.944ZM257.845 32.576L255.724 34.6973C255.745 34.7187 255.767 34.7398 255.789 34.7606L257.845 32.576ZM257.845 22.784L255.789 20.5994C255.767 20.6202 255.745 20.6413 255.724 20.6627L257.845 22.784ZM267.925 22.784L265.804 24.9053C265.825 24.9267 265.847 24.9478 265.869 24.9686L267.925 22.784ZM267.925 32.576L265.869 30.3914C265.847 30.4122 265.825 30.4333 265.804 30.4547L267.925 32.576ZM253.045 146.144L250.924 148.265C250.945 148.287 250.967 148.308 250.989 148.329L253.045 146.144ZM253.045 136.352L250.989 134.167C250.967 134.188 250.945 134.209 250.924 134.231L253.045 136.352ZM263.125 136.352L261.004 138.473C261.025 138.495 261.047 138.516 261.069 138.537L263.125 136.352ZM263.125 146.144L261.069 143.959C261.047 143.98 261.025 144.001 261.004 144.023L263.125 146.144ZM237.877 146.144L235.756 148.265C235.777 148.287 235.799 148.308 235.821 148.329L237.877 146.144ZM237.877 136.352L235.821 134.167C235.799 134.188 235.777 134.209 235.756 134.231L237.877 136.352ZM247.957 136.352L245.836 138.473C245.857 138.495 245.879 138.516 245.901 138.537L247.957 136.352ZM247.957 146.144L245.901 143.959C245.879 143.98 245.857 144.001 245.836 144.023L247.957 146.144ZM250.549 124.04C245.663 124.04 241.349 123.459 237.579 122.34L235.871 128.092C240.293 129.405 245.195 130.04 250.549 130.04V124.04ZM237.549 122.331C233.851 121.275 230.808 119.719 228.353 117.71L224.553 122.354C227.73 124.953 231.535 126.853 235.901 128.101L237.549 122.331ZM228.321 117.684C225.876 115.74 224.031 113.369 222.756 110.543L217.286 113.009C218.956 116.711 221.398 119.844 224.586 122.38L228.321 117.684ZM222.747 110.522C221.485 107.78 220.813 104.541 220.813 100.736H214.813C214.813 105.251 215.613 109.372 217.296 113.03L222.747 110.522ZM220.813 100.736C220.813 98.1153 221.163 95.099 221.899 91.6686L216.032 90.4114C215.231 94.149 214.813 97.5967 214.813 100.736H220.813ZM221.89 91.7071C222.685 88.2211 223.754 84.8628 225.096 81.6301L219.554 79.3299C218.08 82.8812 216.909 86.5629 216.04 90.3729L221.89 91.7071ZM221.485 83.36L230.701 86.048L232.381 80.288L223.165 77.6L221.485 83.36ZM228.821 81.9028C227.472 84.8021 226.389 87.7451 225.575 90.7306L231.363 92.3094C232.085 89.6629 233.05 87.0379 234.261 84.4332L228.821 81.9028ZM225.559 90.7924C224.818 93.7561 224.413 96.4445 224.413 98.816H230.413C230.413 97.0915 230.712 94.9159 231.38 92.2476L225.559 90.7924ZM224.413 98.816C224.413 103.869 226.629 107.925 230.881 110.653L234.121 105.603C231.59 103.979 230.413 101.827 230.413 98.816H224.413ZM230.848 110.631C234.917 113.319 240.315 114.488 246.709 114.488V108.488C240.943 108.488 236.869 107.417 234.154 105.625L230.848 110.631ZM246.709 114.488H254.389V108.488H246.709V114.488ZM254.389 114.488C261.034 114.488 266.597 113.738 270.919 112.081L268.771 106.479C265.413 107.766 260.672 108.488 254.389 108.488V114.488ZM270.863 112.102C275.113 110.569 278.568 108.088 279.488 104.099L273.642 102.749C273.411 103.752 272.385 105.175 268.827 106.458L270.863 112.102ZM277.068 100.466L253.356 96.4345L252.35 102.35L276.062 106.382L277.068 100.466ZM255.853 99.392V85.76H249.853V99.392H255.853ZM252.853 88.76H258.517V82.76H252.853V88.76ZM258.517 88.76C260.808 88.76 262.936 88.6255 264.893 88.3458L264.045 82.4062C262.418 82.6385 260.579 82.76 258.517 82.76V88.76ZM264.979 88.3324C267.073 87.9713 268.972 87.3672 270.58 86.4363L267.574 81.2437C266.75 81.7207 265.577 82.1407 263.959 82.4196L264.979 88.3324ZM270.523 86.4686C272.262 85.5122 273.66 84.1714 274.649 82.4631L269.457 79.4569C269.038 80.1806 268.452 80.7598 267.631 81.2114L270.523 86.4686ZM274.649 82.4631C275.69 80.6665 276.109 78.5715 276.109 76.352H270.109C270.109 77.8445 269.825 78.8215 269.457 79.4569L274.649 82.4631ZM276.109 76.352V72.896H270.109V76.352H276.109ZM273.109 69.896H272.533V75.896H273.109V69.896ZM269.717 71.8622C269.004 73.8037 267.899 75.1247 266.417 76.0047C264.886 76.9142 262.733 77.48 259.765 77.48V83.48C263.453 83.48 266.756 82.7818 269.481 81.1633C272.256 79.5153 274.206 77.0443 275.349 73.9298L269.717 71.8622ZM259.765 77.48C255.099 77.48 251.837 76.2791 249.596 74.2325L245.55 78.6635C249.197 81.9929 254.064 83.48 259.765 83.48V77.48ZM249.646 74.279C247.477 72.2069 246.253 69.2815 246.253 65.12H240.253C240.253 70.5585 241.909 75.1851 245.501 78.617L249.646 74.279ZM246.253 65.12C246.253 62.0826 246.691 59.3417 247.533 56.872L241.854 54.936C240.776 58.0983 240.253 61.5014 240.253 65.12H246.253ZM247.52 56.909C248.44 54.3212 249.649 52.1834 251.114 50.4466L246.528 46.5774C244.538 48.9366 242.994 51.7268 241.866 54.899L247.52 56.909ZM251.109 50.4529C252.646 48.6413 254.399 47.2744 256.374 46.3137L253.749 40.9183C250.987 42.2616 248.58 44.1587 246.534 46.5711L251.109 50.4529ZM256.403 46.2993C258.403 45.2991 260.566 44.792 262.933 44.792V38.792C259.669 38.792 256.583 39.5009 253.719 40.9327L256.403 46.2993ZM262.933 44.792C268.194 44.792 272.117 46.9068 275.02 51.314L280.031 48.014C276.021 41.9252 270.216 38.792 262.933 38.792V44.792ZM275.034 51.3351C278.099 55.9048 279.805 62.5342 279.805 71.552H285.805C285.805 61.8818 283.992 53.9192 280.017 47.9929L275.034 51.3351ZM279.805 71.552C279.805 76.1439 279.217 79.538 278.217 81.9051L283.745 84.2389C285.177 80.846 285.805 76.5601 285.805 71.552H279.805ZM278.217 81.9051C277.323 84.023 275.771 85.5989 273.347 86.6595L275.752 92.1565C279.471 90.5291 282.207 87.881 283.745 84.2389L278.217 81.9051ZM271.549 89.408V89.984H277.549V89.408H271.549ZM273.786 92.8852L275.61 93.3652L277.137 87.5628L275.313 87.0828L273.786 92.8852ZM275.589 93.3597C278.236 94.0766 280.139 95.2066 281.476 96.639L285.862 92.545C283.615 90.1374 280.654 88.5154 277.157 87.5683L275.589 93.3597ZM281.476 96.639C282.663 97.9104 283.357 99.6302 283.357 102.08H289.357C289.357 98.3858 288.26 95.1136 285.862 92.545L281.476 96.639ZM283.357 102.08C283.357 105.618 282.619 108.634 281.223 111.211L286.499 114.069C288.431 110.502 289.357 106.478 289.357 102.08H283.357ZM281.189 111.277C279.829 113.942 277.839 116.194 275.154 118.04L278.553 122.984C282.011 120.606 284.693 117.61 286.533 114.003L281.189 111.277ZM275.154 118.04C272.437 119.907 269.043 121.379 264.903 122.399L266.339 128.225C271.031 127.069 275.125 125.341 278.553 122.984L275.154 118.04ZM264.864 122.409C260.745 123.484 255.983 124.04 250.549 124.04V130.04C256.38 130.04 261.665 129.444 266.378 128.215L264.864 122.409ZM262.741 71C265.242 71 267.413 70.9018 269.229 70.6922L268.541 64.7318C267.03 64.9062 265.105 65 262.741 65V71ZM269.341 70.6771C271.183 70.3939 272.858 69.9435 274.259 69.2433L271.575 63.8767C270.928 64.2005 269.916 64.5181 268.429 64.7469L269.341 70.6771ZM275.895 66.1954C275.433 62.4257 273.888 59.2213 271.153 56.8185L267.193 61.3255C268.683 62.6347 269.633 64.4223 269.939 66.9246L275.895 66.1954ZM271.225 56.8834C268.592 54.4148 265.35 53.192 261.685 53.192V59.192C263.908 59.192 265.658 59.8892 267.121 61.2606L271.225 56.8834ZM261.685 53.192C258.62 53.192 255.834 54.0299 253.507 55.8399L257.191 60.5761C258.32 59.6981 259.758 59.192 261.685 59.192V53.192ZM253.52 55.8301C251.139 57.6613 249.853 60.1936 249.853 63.2H255.853C255.853 62.1104 256.231 61.3147 257.178 60.5859L253.52 55.8301ZM249.853 63.2C249.853 64.4743 250.115 65.748 250.768 66.906C251.428 68.0758 252.392 68.9578 253.529 69.5777L256.402 64.3103C256.13 64.1622 256.038 64.0362 255.994 63.958C255.943 63.868 255.853 63.6537 255.853 63.2H249.853ZM253.623 69.6273C255.614 70.6224 258.057 71 260.725 71V65C258.529 65 257.132 64.6736 256.307 64.2607L253.623 69.6273ZM260.725 71H262.741V65H260.725V71ZM261.973 31.112C260.979 31.112 260.368 30.8304 259.901 30.3914L255.789 34.7606C257.499 36.3696 259.639 37.112 261.973 37.112V31.112ZM259.966 30.4547C259.747 30.2354 259.309 29.549 259.309 27.68H253.309C253.309 30.291 253.895 32.8686 255.724 34.6973L259.966 30.4547ZM259.309 27.68C259.309 25.811 259.747 25.1246 259.966 24.9053L255.724 20.6627C253.895 22.4914 253.309 25.069 253.309 27.68H259.309ZM259.901 24.9686C260.368 24.5296 260.979 24.248 261.973 24.248V18.248C259.639 18.248 257.499 18.9904 255.789 20.5994L259.901 24.9686ZM261.973 24.248H263.893V18.248H261.973V24.248ZM263.893 24.248C264.89 24.248 265.427 24.5288 265.804 24.9053L270.046 20.6627C268.375 18.9912 266.224 18.248 263.893 18.248V24.248ZM265.869 24.9686C266.109 25.1945 266.557 25.8551 266.557 27.68H272.557C272.557 25.0249 271.917 22.4215 269.981 20.5994L265.869 24.9686ZM266.557 27.68C266.557 29.5048 266.109 30.1655 265.869 30.3914L269.981 34.7606C271.917 32.9385 272.557 30.3351 272.557 27.68H266.557ZM265.804 30.4547C265.427 30.8312 264.89 31.112 263.893 31.112V37.112C266.224 37.112 268.375 36.3688 270.046 34.6973L265.804 30.4547ZM263.893 31.112H261.973V37.112H263.893V31.112ZM257.173 144.68C256.179 144.68 255.568 144.398 255.101 143.959L250.989 148.329C252.699 149.938 254.839 150.68 257.173 150.68V144.68ZM255.166 144.023C254.947 143.803 254.509 143.117 254.509 141.248H248.509C248.509 143.859 249.095 146.437 250.924 148.265L255.166 144.023ZM254.509 141.248C254.509 139.379 254.947 138.693 255.166 138.473L250.924 134.231C249.095 136.059 248.509 138.637 248.509 141.248H254.509ZM255.101 138.537C255.568 138.098 256.179 137.816 257.173 137.816V131.816C254.839 131.816 252.699 132.558 250.989 134.167L255.101 138.537ZM257.173 137.816H259.093V131.816H257.173V137.816ZM259.093 137.816C260.09 137.816 260.627 138.097 261.004 138.473L265.246 134.231C263.575 132.559 261.424 131.816 259.093 131.816V137.816ZM261.069 138.537C261.309 138.762 261.757 139.423 261.757 141.248H267.757C267.757 138.593 267.117 135.99 265.181 134.167L261.069 138.537ZM261.757 141.248C261.757 143.073 261.309 143.734 261.069 143.959L265.181 148.329C267.117 146.506 267.757 143.903 267.757 141.248H261.757ZM261.004 144.023C260.627 144.399 260.09 144.68 259.093 144.68V150.68C261.424 150.68 263.575 149.937 265.246 148.265L261.004 144.023ZM259.093 144.68H257.173V150.68H259.093V144.68ZM242.005 144.68C241.011 144.68 240.4 144.398 239.933 143.959L235.821 148.329C237.531 149.938 239.671 150.68 242.005 150.68V144.68ZM239.998 144.023C239.779 143.803 239.341 143.117 239.341 141.248H233.341C233.341 143.859 233.927 146.437 235.756 148.265L239.998 144.023ZM239.341 141.248C239.341 139.379 239.779 138.693 239.998 138.473L235.756 134.231C233.927 136.059 233.341 138.637 233.341 141.248H239.341ZM239.933 138.537C240.4 138.098 241.011 137.816 242.005 137.816V131.816C239.671 131.816 237.531 132.558 235.821 134.167L239.933 138.537ZM242.005 137.816H243.925V131.816H242.005V137.816ZM243.925 137.816C244.922 137.816 245.459 138.097 245.836 138.473L250.078 134.231C248.407 132.559 246.256 131.816 243.925 131.816V137.816ZM245.901 138.537C246.141 138.762 246.589 139.423 246.589 141.248H252.589C252.589 138.593 251.949 135.99 250.013 134.167L245.901 138.537ZM246.589 141.248C246.589 143.073 246.141 143.734 245.901 143.959L250.013 148.329C251.949 146.506 252.589 143.903 252.589 141.248H246.589ZM245.836 144.023C245.459 144.399 244.922 144.68 243.925 144.68V150.68C246.256 150.68 248.407 149.937 250.078 148.265L245.836 144.023ZM243.925 144.68H242.005V150.68H243.925V144.68ZM335.665 104L335.185 106.961L335.191 106.962L335.665 104ZM324.145 100.256L322.585 102.819C322.599 102.827 322.613 102.835 322.627 102.843L324.145 100.256ZM317.713 93.344L314.982 94.5854C314.99 94.6024 314.998 94.6193 315.006 94.6362L317.713 93.344ZM316.753 74.432L313.829 73.7619C313.824 73.7812 313.82 73.8007 313.816 73.8201L316.753 74.432ZM319.633 65.312L320.473 62.432C318.994 62.0007 317.429 62.7595 316.852 64.1876L319.633 65.312ZM328.849 68L331.532 69.3416C331.93 68.546 331.954 67.6148 331.598 66.7996C331.243 65.9843 330.543 65.3691 329.689 65.12L328.849 68ZM326.257 74.336L323.394 73.4412C323.388 73.4606 323.382 73.48 323.376 73.4996L326.257 74.336ZM326.545 84.416L323.973 85.9595C323.984 85.9791 323.996 85.9986 324.009 86.018L326.545 84.416ZM330.289 87.392L331.508 84.6506L331.508 84.6506L330.289 87.392ZM337.105 89.12L336.7 92.0925C336.722 92.0955 336.744 92.0983 336.766 92.1008L337.105 89.12ZM372.145 89.312L371.95 86.3184L371.95 86.3184L372.145 89.312ZM379.057 88.256L379.939 91.1233L379.939 91.1233L379.057 88.256ZM382.513 86.24L380.154 84.3865C380.148 84.3946 380.142 84.4027 380.135 84.4109L382.513 86.24ZM383.569 69.152V66.152C381.912 66.152 380.569 67.4951 380.569 69.152H383.569ZM394.129 69.152H397.129C397.129 67.4951 395.786 66.152 394.129 66.152V69.152ZM404.689 89.6H407.689C407.689 87.9431 406.346 86.6 404.689 86.6V89.6ZM404.689 101.12L406.81 103.241C407.373 102.679 407.689 101.916 407.689 101.12H404.689ZM401.809 104V107C402.605 107 403.368 106.684 403.93 106.121L401.809 104ZM390.289 100.928L388.463 103.308C388.474 103.317 388.486 103.326 388.498 103.335L390.289 100.928ZM384.817 91.04L387.759 90.4517C387.478 89.0494 386.247 88.04 384.817 88.04V91.04ZM384.241 91.04V88.04C382.806 88.04 381.572 89.0567 381.297 90.4655L384.241 91.04ZM381.457 97.664L383.857 99.464L383.857 99.464L381.457 97.664ZM375.793 102.08L377.018 104.818C377.038 104.81 377.058 104.801 377.077 104.791L375.793 102.08ZM366.577 104.384L366.218 101.406C366.198 101.408 366.179 101.41 366.16 101.413L366.577 104.384ZM349.105 123.008L346.984 125.129C347.005 125.151 347.027 125.172 347.049 125.193L349.105 123.008ZM349.105 113.216L347.049 111.031C347.027 111.052 347.005 111.073 346.984 111.095L349.105 113.216ZM359.185 113.216L357.064 115.337C357.085 115.359 357.107 115.38 357.129 115.401L359.185 113.216ZM359.185 123.008L357.129 120.823C357.107 120.844 357.085 120.865 357.064 120.887L359.185 123.008ZM353.329 102.152C346.45 102.152 340.731 101.772 336.139 101.038L335.191 106.962C340.199 107.764 346.256 108.152 353.329 108.152V102.152ZM336.145 101.039C331.638 100.308 328.186 99.1494 325.664 97.6688L322.627 102.843C325.992 104.819 330.22 106.156 335.185 106.961L336.145 101.039ZM325.705 97.6934C323.205 96.1715 321.488 94.2876 320.421 92.0518L315.006 94.6362C316.627 98.0324 319.198 100.756 322.585 102.819L325.705 97.6934ZM320.444 92.1026C319.391 89.7864 318.793 86.7516 318.793 82.88H312.793C312.793 87.3284 313.475 91.2696 314.982 94.5854L320.444 92.1026ZM318.793 82.88C318.793 80.5655 319.083 77.9578 319.69 75.0439L313.816 73.8201C313.143 77.0502 312.793 80.0745 312.793 82.88H318.793ZM319.677 75.1021C320.345 72.1896 321.256 69.3013 322.414 66.4364L316.852 64.1876C315.578 67.3387 314.569 70.5304 313.829 73.7619L319.677 75.1021ZM318.793 68.192L328.009 70.88L329.689 65.12L320.473 62.432L318.793 68.192ZM326.166 66.6584C325.015 68.9595 324.088 71.2209 323.394 73.4412L329.121 75.2308C329.707 73.3551 330.507 71.3925 331.532 69.3416L326.166 66.6584ZM323.376 73.4996C322.743 75.6808 322.393 77.7606 322.393 79.712H328.393C328.393 78.4634 328.619 76.9592 329.138 75.1724L323.376 73.4996ZM322.393 79.712C322.393 81.9803 322.864 84.1121 323.973 85.9595L329.118 82.8725C328.69 82.1599 328.393 81.1557 328.393 79.712H322.393ZM324.009 86.018C325.179 87.8717 326.969 89.1991 329.071 90.1334L331.508 84.6506C330.154 84.0489 329.447 83.3923 329.082 82.814L324.009 86.018ZM329.071 90.1334C331.152 91.0586 333.729 91.6874 336.7 92.0925L337.51 86.1475C334.849 85.7846 332.882 85.2614 331.508 84.6506L329.071 90.1334ZM336.766 92.1008C339.734 92.438 343.343 92.6 347.569 92.6V86.6C343.475 86.6 340.109 86.442 337.444 86.1392L336.766 92.1008ZM347.569 92.6H361.009V86.6H347.569V92.6ZM361.009 92.6C365.525 92.6 369.307 92.5034 372.34 92.3056L371.95 86.3184C369.095 86.5046 365.454 86.6 361.009 86.6V92.6ZM372.34 92.3056C375.38 92.1074 377.951 91.7352 379.939 91.1233L378.175 85.3887C376.835 85.8008 374.798 86.1326 371.95 86.3184L372.34 92.3056ZM379.939 91.1233C381.843 90.5376 383.696 89.6231 384.891 88.0691L380.135 84.4109C380.051 84.5209 379.599 84.9503 378.175 85.3887L379.939 91.1233ZM384.872 88.0935C386.063 86.5781 386.569 84.7707 386.569 82.88H380.569C380.569 83.6773 380.371 84.1099 380.154 84.3865L384.872 88.0935ZM386.569 82.88V69.152H380.569V82.88H386.569ZM383.569 72.152H394.129V66.152H383.569V72.152ZM391.129 69.152V82.88H397.129V69.152H391.129ZM391.129 82.88C391.129 85.6943 391.952 88.3211 394.074 90.1777C396.119 91.9674 398.878 92.6 401.809 92.6V86.6C399.62 86.6 398.539 86.1126 398.025 85.6623C397.587 85.2789 397.129 84.5457 397.129 82.88H391.129ZM401.809 92.6H404.689V86.6H401.809V92.6ZM401.689 89.6V101.12H407.689V89.6H401.689ZM402.568 98.9987L399.688 101.879L403.93 106.121L406.81 103.241L402.568 98.9987ZM401.809 101C397.254 101 394.132 100.048 392.08 98.5213L388.498 103.335C391.95 105.904 396.508 107 401.809 107V101ZM392.116 98.5481C390.102 97.0029 388.558 94.4489 387.759 90.4517L381.875 91.6283C382.868 96.5911 384.972 100.629 388.463 103.308L392.116 98.5481ZM384.817 88.04H384.241V94.04H384.817V88.04ZM381.297 90.4655C380.855 92.7302 380.082 94.4976 379.057 95.864L383.857 99.464C385.52 97.2464 386.603 94.5978 387.186 91.6145L381.297 90.4655ZM379.057 95.864C378.059 97.195 376.589 98.3837 374.509 99.3688L377.077 104.791C379.862 103.472 382.167 101.717 383.857 99.464L379.057 95.864ZM374.568 99.3415C372.497 100.268 369.741 100.98 366.218 101.406L366.937 107.362C370.837 106.892 374.225 106.068 377.018 104.818L374.568 99.3415ZM366.16 101.413C362.693 101.9 358.425 102.152 353.329 102.152V108.152C358.601 108.152 363.165 107.892 366.994 107.355L366.16 101.413ZM353.233 121.544C352.239 121.544 351.628 121.262 351.161 120.823L347.049 125.193C348.759 126.802 350.899 127.544 353.233 127.544V121.544ZM351.226 120.887C351.007 120.667 350.569 119.981 350.569 118.112H344.569C344.569 120.723 345.155 123.301 346.984 125.129L351.226 120.887ZM350.569 118.112C350.569 116.243 351.007 115.557 351.226 115.337L346.984 111.095C345.155 112.923 344.569 115.501 344.569 118.112H350.569ZM351.161 115.401C351.628 114.962 352.239 114.68 353.233 114.68V108.68C350.899 108.68 348.759 109.422 347.049 111.031L351.161 115.401ZM353.233 114.68H355.153V108.68H353.233V114.68ZM355.153 114.68C356.15 114.68 356.687 114.961 357.064 115.337L361.306 111.095C359.635 109.423 357.484 108.68 355.153 108.68V114.68ZM357.129 115.401C357.369 115.626 357.817 116.287 357.817 118.112H363.817C363.817 115.457 363.177 112.854 361.241 111.031L357.129 115.401ZM357.817 118.112C357.817 119.937 357.369 120.598 357.129 120.823L361.241 125.193C363.177 123.37 363.817 120.767 363.817 118.112H357.817ZM357.064 120.887C356.687 121.263 356.15 121.544 355.153 121.544V127.544C357.484 127.544 359.635 126.801 361.306 125.129L357.064 120.887ZM355.153 121.544H353.233V127.544H355.153V121.544ZM401.792 92.48L399.671 90.3587C399.108 90.9213 398.792 91.6844 398.792 92.48H401.792ZM404.672 89.6V86.6C403.876 86.6 403.113 86.9161 402.551 87.4787L404.672 89.6ZM413.12 89.312L412.748 86.3352C412.742 86.3358 412.737 86.3365 412.732 86.3372L413.12 89.312ZM416.768 88.352L418.11 91.0353C418.133 91.0235 418.156 91.0114 418.18 90.9991L416.768 88.352ZM418.688 86.528L416.005 85.1864C415.988 85.2195 415.972 85.2529 415.957 85.2866L418.688 86.528ZM418.976 80.096L415.986 80.3451C415.99 80.3915 415.995 80.4378 416.001 80.484L418.976 80.096ZM418.112 74.144L415.161 74.6834L415.162 74.6875L418.112 74.144ZM416.48 65.216L415.991 62.2561C415.197 62.3872 414.489 62.8316 414.026 63.4896C413.563 64.1476 413.384 64.964 413.529 65.7554L416.48 65.216ZM426.944 63.488L429.906 63.0103C429.779 62.2229 429.343 61.5184 428.696 61.0527C428.048 60.5869 427.242 60.3981 426.455 60.5281L426.944 63.488ZM428.384 72.416L425.422 72.8937C425.426 72.9166 425.43 72.9395 425.434 72.9623L428.384 72.416ZM429.152 78.176L432.14 77.9044L432.14 77.9044L429.152 78.176ZM424.256 99.104L422.196 96.923C422.189 96.9294 422.182 96.9358 422.176 96.9423L424.256 99.104ZM401.792 104H398.792C398.792 105.657 400.135 107 401.792 107V104ZM422.144 123.104L420.023 125.225C420.044 125.247 420.066 125.268 420.088 125.289L422.144 123.104ZM422.144 113.312L420.088 111.127C420.066 111.148 420.044 111.169 420.023 111.191L422.144 113.312ZM432.224 113.312L430.103 115.433C430.124 115.455 430.146 115.476 430.168 115.497L432.224 113.312ZM432.224 123.104L430.168 120.919C430.146 120.94 430.124 120.961 430.103 120.983L432.224 123.104ZM406.976 123.104L404.855 125.225C404.876 125.247 404.898 125.268 404.92 125.289L406.976 123.104ZM406.976 113.312L404.92 111.127C404.898 111.148 404.876 111.169 404.855 111.191L406.976 113.312ZM417.056 113.312L414.935 115.433C414.956 115.455 414.978 115.476 415 115.497L417.056 113.312ZM417.056 123.104L415 120.919C414.978 120.94 414.956 120.961 414.935 120.983L417.056 123.104ZM403.913 94.6013L406.793 91.7213L402.551 87.4787L399.671 90.3587L403.913 94.6013ZM404.672 92.6H407.456V86.6H404.672V92.6ZM407.456 92.6C409.827 92.6 411.857 92.5021 413.508 92.2868L412.732 86.3372C411.438 86.5059 409.693 86.6 407.456 86.6V92.6ZM413.492 92.2888C415.202 92.0751 416.79 91.6948 418.11 91.0353L415.426 85.6687C414.953 85.9052 414.11 86.1649 412.748 86.3352L413.492 92.2888ZM418.18 90.9991C419.491 90.2999 420.734 89.276 421.419 87.7694L415.957 85.2866C416.002 85.188 415.965 85.3801 415.356 85.7049L418.18 90.9991ZM421.371 87.8696C422.012 86.5889 422.264 85.1767 422.264 83.744H416.264C416.264 84.4873 416.132 84.9311 416.005 85.1864L421.371 87.8696ZM422.264 83.744C422.264 82.6044 422.151 81.2473 421.951 79.708L416.001 80.484C416.184 81.8887 416.264 82.9636 416.264 83.744H422.264ZM421.966 79.8469C421.826 78.1716 421.519 76.0794 421.062 73.6005L415.162 74.6875C415.601 77.0726 415.87 78.9484 415.986 80.3451L421.966 79.8469ZM421.063 73.6045L419.431 64.6766L413.529 65.7554L415.161 74.6834L421.063 73.6045ZM416.969 68.1759L427.433 66.4479L426.455 60.5281L415.991 62.2561L416.969 68.1759ZM423.982 63.9657L425.422 72.8937L431.346 71.9383L429.906 63.0103L423.982 63.9657ZM425.434 72.9623C425.734 74.5831 425.979 76.4096 426.164 78.4476L432.14 77.9044C431.941 75.7184 431.674 73.7049 431.334 71.8697L425.434 72.9623ZM426.164 78.4476C426.35 80.4964 426.44 82.2583 426.44 83.744H432.44C432.44 82.0297 432.337 80.0796 432.14 77.9044L426.164 78.4476ZM426.44 83.744C426.44 90.2827 424.819 94.4461 422.196 96.923L426.316 101.285C430.605 97.2339 432.44 91.1573 432.44 83.744H426.44ZM422.176 96.9423C419.613 99.4081 414.97 101 407.456 101V107C415.558 107 422.115 105.328 426.336 101.266L422.176 96.9423ZM407.456 101H401.792V107H407.456V101ZM404.792 104V92.48H398.792V104H404.792ZM426.272 121.64C425.278 121.64 424.666 121.358 424.2 120.919L420.088 125.289C421.797 126.898 423.938 127.64 426.272 127.64V121.64ZM424.265 120.983C424.046 120.763 423.608 120.077 423.608 118.208H417.608C417.608 120.819 418.194 123.397 420.023 125.225L424.265 120.983ZM423.608 118.208C423.608 116.339 424.046 115.653 424.265 115.433L420.023 111.191C418.194 113.019 417.608 115.597 417.608 118.208H423.608ZM424.2 115.497C424.666 115.058 425.278 114.776 426.272 114.776V108.776C423.938 108.776 421.797 109.518 420.088 111.127L424.2 115.497ZM426.272 114.776H428.192V108.776H426.272V114.776ZM428.192 114.776C429.189 114.776 429.726 115.057 430.103 115.433L434.345 111.191C432.674 109.519 430.523 108.776 428.192 108.776V114.776ZM430.168 115.497C430.408 115.722 430.856 116.383 430.856 118.208H436.856C436.856 115.553 436.216 112.95 434.28 111.127L430.168 115.497ZM430.856 118.208C430.856 120.033 430.408 120.694 430.168 120.919L434.28 125.289C436.216 123.466 436.856 120.863 436.856 118.208H430.856ZM430.103 120.983C429.726 121.359 429.189 121.64 428.192 121.64V127.64C430.523 127.64 432.674 126.897 434.345 125.225L430.103 120.983ZM428.192 121.64H426.272V127.64H428.192V121.64ZM411.104 121.64C410.11 121.64 409.498 121.358 409.032 120.919L404.92 125.289C406.629 126.898 408.77 127.64 411.104 127.64V121.64ZM409.097 120.983C408.878 120.763 408.44 120.077 408.44 118.208H402.44C402.44 120.819 403.026 123.397 404.855 125.225L409.097 120.983ZM408.44 118.208C408.44 116.339 408.878 115.653 409.097 115.433L404.855 111.191C403.026 113.019 402.44 115.597 402.44 118.208H408.44ZM409.032 115.497C409.498 115.058 410.11 114.776 411.104 114.776V108.776C408.77 108.776 406.629 109.518 404.92 111.127L409.032 115.497ZM411.104 114.776H413.024V108.776H411.104V114.776ZM413.024 114.776C414.021 114.776 414.558 115.057 414.935 115.433L419.177 111.191C417.506 109.519 415.355 108.776 413.024 108.776V114.776ZM415 115.497C415.24 115.722 415.688 116.383 415.688 118.208H421.688C421.688 115.553 421.048 112.95 419.112 111.127L415 115.497ZM415.688 118.208C415.688 120.033 415.24 120.694 415 120.919L419.112 125.289C421.048 123.466 421.688 120.863 421.688 118.208H415.688ZM414.935 120.983C414.558 121.359 414.021 121.64 413.024 121.64V127.64C415.355 127.64 417.506 126.897 419.177 125.225L414.935 120.983ZM413.024 121.64H411.104V127.64H413.024V121.64ZM438.099 112.64V109.64C436.443 109.64 435.099 110.983 435.099 112.64H438.099ZM454.707 109.088L452.751 106.814C452.742 106.822 452.733 106.829 452.724 106.837L454.707 109.088ZM458.739 97.28H455.739C455.739 97.2916 455.739 97.3033 455.74 97.3149L458.739 97.28ZM458.451 92.672L455.471 93.0159L455.473 93.0294L458.451 92.672ZM457.683 87.392L454.72 87.8599C454.722 87.8738 454.725 87.8878 454.727 87.9017L457.683 87.392ZM455.667 74.624L455.205 71.6598C454.418 71.7826 453.712 72.2134 453.243 72.8572C452.774 73.501 452.58 74.305 452.704 75.0919L455.667 74.624ZM466.131 72.992L469.093 72.5143C468.83 70.8846 467.3 69.7734 465.669 70.0278L466.131 72.992ZM467.571 81.92L464.61 82.3977C464.613 82.4174 464.616 82.437 464.62 82.4567L467.571 81.92ZM468.147 85.952L465.162 86.2505C465.167 86.2995 465.173 86.3483 465.181 86.397L468.147 85.952ZM468.627 89.6L465.646 89.9313C465.815 91.4506 467.099 92.6 468.627 92.6V89.6ZM477.459 89.6H480.459C480.459 87.9431 479.116 86.6 477.459 86.6V89.6ZM477.459 101.12L479.581 103.241C480.143 102.679 480.459 101.916 480.459 101.12H477.459ZM474.579 104V107C475.375 107 476.138 106.684 476.701 106.121L474.579 104ZM468.627 104V101C467.146 101 465.886 102.081 465.662 103.546L468.627 104ZM460.179 120.8L458.171 118.572C458.16 118.582 458.149 118.592 458.138 118.602L460.179 120.8ZM438.099 127.04H435.099C435.099 128.697 436.443 130.04 438.099 130.04V127.04ZM438.099 115.64H441.939V109.64H438.099V115.64ZM441.939 115.64C448.065 115.64 453.201 114.413 456.69 111.339L452.724 106.837C450.838 108.499 447.462 109.64 441.939 109.64V115.64ZM456.664 111.362C460.373 108.17 461.808 103.172 461.739 97.2451L455.74 97.3149C455.799 102.396 454.545 105.27 452.751 106.814L456.664 111.362ZM461.739 97.28C461.739 95.6779 461.635 94.0222 461.43 92.3146L455.473 93.0294C455.652 94.5218 455.739 95.9381 455.739 97.28H461.739ZM461.432 92.3281C461.232 90.6023 460.968 88.7867 460.64 86.8823L454.727 87.9017C455.039 89.7093 455.286 91.4137 455.471 93.0159L461.432 92.3281ZM460.647 86.9241L458.631 74.1561L452.704 75.0919L454.72 87.8599L460.647 86.9241ZM456.13 77.5882L466.594 75.9562L465.669 70.0278L455.205 71.6598L456.13 77.5882ZM463.17 73.4697L464.61 82.3977L470.533 81.4423L469.093 72.5143L463.17 73.4697ZM464.62 82.4567C464.863 83.7944 465.043 85.0586 465.162 86.2505L471.132 85.6535C470.996 84.2854 470.792 82.8616 470.523 81.3833L464.62 82.4567ZM465.181 86.397C465.368 87.6435 465.522 88.8214 465.646 89.9313L471.609 89.2687C471.476 88.0746 471.311 86.8205 471.114 85.507L465.181 86.397ZM468.627 92.6H477.459V86.6H468.627V92.6ZM474.459 89.6V101.12H480.459V89.6H474.459ZM475.338 98.9987L472.458 101.879L476.701 106.121L479.581 103.241L475.338 98.9987ZM474.579 101H468.627V107H474.579V101ZM465.662 103.546C464.66 110.091 462.114 115.017 458.171 118.572L462.188 123.028C467.333 118.391 470.419 112.117 471.593 104.454L465.662 103.546ZM458.138 118.602C454.341 122.128 449.089 124.04 442.035 124.04V130.04C450.214 130.04 457.058 127.792 462.221 122.998L458.138 118.602ZM442.035 124.04H438.099V130.04H442.035V124.04ZM441.099 127.04V112.64H435.099V127.04H441.099ZM474.542 92.48L472.421 90.3587C471.858 90.9213 471.542 91.6844 471.542 92.48H474.542ZM477.422 89.6V86.6C476.626 86.6 475.863 86.9161 475.301 87.4787L477.422 89.6ZM491.15 88.928L492.572 91.5694C492.594 91.5575 492.616 91.5452 492.638 91.5327L491.15 88.928ZM491.822 84.128L489.291 85.7386C489.315 85.7757 489.339 85.8123 489.364 85.8484L491.822 84.128ZM489.518 81.728L487.515 83.9617C487.547 83.9897 487.578 84.0171 487.611 84.0438L489.518 81.728ZM478.382 71.744H475.382C475.382 72.5965 475.745 73.4087 476.379 73.9777L478.382 71.744ZM478.382 46.4L477.476 43.54C476.229 43.9348 475.382 45.092 475.382 46.4H478.382ZM524.462 31.808H527.462C527.462 30.8516 527.006 29.9526 526.234 29.3876C525.463 28.8225 524.468 28.6593 523.556 28.948L524.462 31.808ZM524.462 44.48L525.36 47.3423C526.611 46.9497 527.462 45.7907 527.462 44.48H524.462ZM483.182 57.44L482.283 54.5777C481.033 54.9703 480.182 56.1293 480.182 57.44H483.182ZM483.182 58.016H480.182C480.182 58.8586 480.536 59.6623 481.158 60.2307L483.182 58.016ZM507.662 80.384L509.714 78.1954C509.704 78.1866 509.695 78.1779 509.686 78.1693L507.662 80.384ZM513.134 85.088L511.319 87.4765C511.354 87.5033 511.39 87.5293 511.426 87.5546L513.134 85.088ZM517.646 87.872L516.254 90.5295C516.303 90.5554 516.354 90.58 516.404 90.6031L517.646 87.872ZM521.582 89.216L522.2 86.2803L522.2 86.2803L521.582 89.216ZM525.422 89.6H528.422C528.422 87.9431 527.079 86.6 525.422 86.6V89.6ZM525.422 101.12L527.543 103.241C528.106 102.679 528.422 101.916 528.422 101.12H525.422ZM522.542 104V107C523.338 107 524.101 106.684 524.663 106.121L522.542 104ZM516.59 103.424L515.837 106.328C515.878 106.339 515.92 106.348 515.961 106.357L516.59 103.424ZM511.406 101.12L509.742 103.616C509.763 103.631 509.785 103.645 509.807 103.659L511.406 101.12ZM505.934 96.608L503.777 98.6931C503.8 98.7174 503.824 98.7414 503.849 98.765L505.934 96.608ZM499.598 89.312L501.936 87.4317C501.93 87.4252 501.925 87.4187 501.92 87.4123L499.598 89.312ZM497.006 86.144L499.328 84.2443C498.385 83.0918 496.739 82.8054 495.462 83.5715L497.006 86.144ZM496.526 86.432L494.982 83.8595C493.886 84.5175 493.327 85.7985 493.59 87.05L496.526 86.432ZM493.55 100.064L495.786 102.064C495.803 102.045 495.819 102.026 495.836 102.007L493.55 100.064ZM489.614 102.944L488.364 100.217L488.364 100.217L489.614 102.944ZM474.542 104H471.542C471.542 105.657 472.885 107 474.542 107V104ZM476.663 94.6013L479.543 91.7213L475.301 87.4787L472.421 90.3587L476.663 94.6013ZM477.422 92.6H486.446V86.6H477.422V92.6ZM486.446 92.6C487.682 92.6 488.802 92.5407 489.774 92.4018C490.704 92.269 491.705 92.0363 492.572 91.5694L489.728 86.2866C489.763 86.2677 489.564 86.371 488.926 86.4622C488.33 86.5473 487.514 86.6 486.446 86.6V92.6ZM492.638 91.5327C494.652 90.3822 495.494 88.4001 495.494 86.336H489.494C489.494 86.5808 489.449 86.6031 489.495 86.515C489.517 86.4716 489.551 86.424 489.592 86.3818C489.611 86.3621 489.628 86.3473 489.642 86.3371C489.655 86.327 489.662 86.3228 489.661 86.3233L492.638 91.5327ZM495.494 86.336C495.494 84.9308 495.104 83.5854 494.28 82.4076L489.364 85.8484C489.436 85.9506 489.494 86.0772 489.494 86.336H495.494ZM494.353 82.5174C493.658 81.4257 492.613 80.3908 491.425 79.4122L487.611 84.0438C488.598 84.8572 489.09 85.4223 489.291 85.7386L494.353 82.5174ZM491.521 79.4943L480.385 69.5103L476.379 73.9777L487.515 83.9617L491.521 79.4943ZM481.382 71.744V46.4H475.382V71.744H481.382ZM479.288 49.26L525.368 34.668L523.556 28.948L477.476 43.54L479.288 49.26ZM521.462 31.808V44.48H527.462V31.808H521.462ZM523.563 41.6177L482.283 54.5777L484.08 60.3023L525.36 47.3423L523.563 41.6177ZM480.182 57.44V58.016H486.182V57.44H480.182ZM481.158 60.2307L505.638 82.5987L509.686 78.1693L485.206 55.8013L481.158 60.2307ZM505.61 82.5726C507.706 84.5379 509.611 86.179 511.319 87.4765L514.949 82.6995C513.456 81.565 511.713 80.0701 509.714 78.1954L505.61 82.5726ZM511.426 87.5546C513.16 88.7551 514.772 89.7532 516.254 90.5295L519.038 85.2145C517.832 84.5828 516.435 83.7249 514.842 82.6214L511.426 87.5546ZM516.404 90.6031C517.966 91.3128 519.489 91.8411 520.964 92.1516L522.2 86.2803C521.243 86.0789 520.142 85.7112 518.887 85.1409L516.404 90.6031ZM520.964 92.1516C522.399 92.4537 523.887 92.6 525.422 92.6V86.6C524.269 86.6 523.197 86.4903 522.2 86.2803L520.964 92.1516ZM522.422 89.6V101.12H528.422V89.6H522.422ZM523.301 98.9987L520.421 101.879L524.663 106.121L527.543 103.241L523.301 98.9987ZM522.542 101C520.539 101 518.77 100.823 517.218 100.491L515.961 106.357C517.994 106.793 520.193 107 522.542 107V101ZM517.343 100.52C515.953 100.16 514.508 99.528 513.004 98.5813L509.807 103.659C511.76 104.888 513.771 105.792 515.837 106.328L517.343 100.52ZM513.07 98.6238C511.528 97.5956 509.844 96.2151 508.019 94.451L503.849 98.765C505.864 100.713 507.828 102.34 509.742 103.616L513.07 98.6238ZM508.091 94.5229C506.318 92.689 504.268 90.3313 501.936 87.4317L497.26 91.1923C499.664 94.1807 501.838 96.687 503.777 98.6931L508.091 94.5229ZM501.92 87.4123L499.328 84.2443L494.684 88.0437L497.276 91.2117L501.92 87.4123ZM495.462 83.5715L494.982 83.8595L498.069 89.0045L498.549 88.7165L495.462 83.5715ZM493.59 87.05C493.8 88.0471 493.91 89.119 493.91 90.272H499.91C499.91 88.737 499.764 87.2489 499.462 85.814L493.59 87.05ZM493.91 90.272C493.91 91.8881 493.668 93.3456 493.211 94.6667L498.881 96.6293C499.576 94.6224 499.91 92.4959 499.91 90.272H493.91ZM493.211 94.6667C492.751 95.996 492.099 97.1383 491.264 98.1211L495.836 102.007C497.176 100.43 498.189 98.628 498.881 96.6293L493.211 94.6667ZM491.314 98.0636C490.511 98.9612 489.538 99.6785 488.364 100.217L490.864 105.671C492.761 104.802 494.413 103.599 495.786 102.064L491.314 98.0636ZM488.364 100.217C487.27 100.718 485.977 101 484.43 101V107C486.722 107 488.885 106.578 490.864 105.671L488.364 100.217ZM484.43 101H474.542V107H484.43V101ZM477.542 104V92.48H471.542V104H477.542ZM522.542 92.48L520.421 90.3587C519.858 90.9213 519.542 91.6844 519.542 92.48H522.542ZM525.422 89.6V86.6C524.626 86.6 523.863 86.9161 523.301 87.4787L525.422 89.6ZM534.446 88.256L532.179 86.2912C532.175 86.2953 532.172 86.2995 532.168 86.3036L534.446 88.256ZM535.694 32.96V29.96C534.037 29.96 532.694 31.3031 532.694 32.96H535.694ZM547.214 32.96H550.214C550.214 31.3031 548.871 29.96 547.214 29.96V32.96ZM543.182 99.008L540.866 97.1009C540.859 97.11 540.851 97.1191 540.844 97.1283L543.182 99.008ZM529.646 104V107C529.656 107 529.666 107 529.676 107L529.646 104ZM522.542 104H519.542C519.542 105.657 520.885 107 522.542 107V104ZM524.663 94.6013L527.543 91.7213L523.301 87.4787L520.421 90.3587L524.663 94.6013ZM525.422 92.6H529.646V86.6H525.422V92.6ZM529.646 92.6C531.021 92.6 532.324 92.4761 533.479 92.1529C534.626 91.8316 535.826 91.2561 536.724 90.2084L532.168 86.3036C532.298 86.1519 532.314 86.2484 531.861 86.3751C531.415 86.4999 530.703 86.6 529.646 86.6V92.6ZM536.713 90.2208C538.221 88.4811 538.694 86.1596 538.694 83.84H532.694C532.694 85.4884 532.335 86.1109 532.179 86.2912L536.713 90.2208ZM538.694 83.84V32.96H532.694V83.84H538.694ZM535.694 35.96H547.214V29.96H535.694V35.96ZM544.214 32.96V83.84H550.214V32.96H544.214ZM544.214 83.84C544.214 90.3939 542.91 94.6186 540.866 97.1009L545.498 100.915C548.829 96.8694 550.214 90.9821 550.214 83.84H544.214ZM540.844 97.1283C539.027 99.3883 535.598 100.94 529.616 101L529.676 107C536.494 106.932 542.089 105.156 545.52 100.888L540.844 97.1283ZM529.646 101H522.542V107H529.646V101ZM525.542 104V92.48H519.542V104H525.542ZM558.744 32.96V29.96C557.088 29.96 555.744 31.3031 555.744 32.96H558.744ZM570.264 32.96H573.264C573.264 31.3031 571.921 29.96 570.264 29.96V32.96ZM570.264 104V107C571.921 107 573.264 105.657 573.264 104H570.264ZM558.744 104H555.744C555.744 105.657 557.088 107 558.744 107V104ZM558.744 35.96H570.264V29.96H558.744V35.96ZM567.264 32.96V104H573.264V32.96H567.264ZM570.264 101H558.744V107H570.264V101ZM561.744 104V32.96H555.744V104H561.744ZM602.574 89.6V86.6C600.918 86.6 599.574 87.9431 599.574 89.6H602.574ZM657.87 32.864V29.864C656.214 29.864 654.87 31.2071 654.87 32.864H657.87ZM669.39 32.864H672.39C672.39 31.2071 671.047 29.864 669.39 29.864V32.864ZM665.166 99.104L662.895 97.1443C662.887 97.1529 662.88 97.1615 662.873 97.1702L665.166 99.104ZM602.574 104H599.574C599.574 105.657 600.918 107 602.574 107V104ZM623.118 74.144L621.839 71.4303C621.103 71.7775 620.539 72.409 620.277 73.18C620.016 73.951 620.079 74.7952 620.452 75.5189L623.118 74.144ZM638.19 67.04L639.469 69.7537C640.799 69.127 641.479 67.6292 641.075 66.2158L638.19 67.04ZM637.998 66.368L640.883 65.5438C640.515 64.2559 639.338 63.368 637.998 63.368V66.368ZM625.326 54.176L623.253 52.0081L623.253 52.0081L625.326 54.176ZM631.662 49.664L630.165 47.0641L630.155 47.0705L631.662 49.664ZM637.998 46.016L640.571 44.4725C639.729 43.0698 637.919 42.5999 636.501 43.4161L637.998 46.016ZM641.454 51.776L642.922 54.3924C643.629 53.9957 644.146 53.3297 644.354 52.546C644.562 51.7623 644.444 50.9278 644.027 50.2325L641.454 51.776ZM629.646 58.4L628.179 55.7836C626.999 56.4455 626.408 57.8151 626.736 59.1276L629.646 58.4ZM629.838 59.168L626.928 59.8956C627.262 61.2311 628.462 62.168 629.838 62.168V59.168ZM642.702 70.784L640.487 68.7612C640.471 68.7791 640.454 68.7972 640.439 68.8155L642.702 70.784ZM636.75 75.008L635.409 72.3247L635.399 72.3296L636.75 75.008ZM626.286 80.288L623.62 81.6629C624.375 83.1264 626.168 83.7081 627.638 82.9663L626.286 80.288ZM602.574 92.6H652.11V86.6H602.574V92.6ZM652.11 92.6C654.493 92.6 656.831 92.0024 658.552 90.2813C660.273 88.5603 660.87 86.2224 660.87 83.84H654.87C654.87 85.2976 654.508 85.8397 654.309 86.0387C654.11 86.2376 653.568 86.6 652.11 86.6V92.6ZM660.87 83.84V32.864H654.87V83.84H660.87ZM657.87 35.864H669.39V29.864H657.87V35.864ZM666.39 32.864V83.84H672.39V32.864H666.39ZM666.39 83.84C666.39 90.4413 665.029 94.6703 662.895 97.1443L667.438 101.064C670.935 97.0097 672.39 91.0627 672.39 83.84H666.39ZM662.873 97.1702C660.89 99.522 657.542 101 652.11 101V107C658.582 107 663.939 105.214 667.46 101.038L662.873 97.1702ZM652.11 101H602.574V107H652.11V101ZM605.574 104V89.6H599.574V104H605.574ZM624.397 76.8577L639.469 69.7537L636.911 64.3263L621.839 71.4303L624.397 76.8577ZM641.075 66.2158L640.883 65.5438L635.114 67.1922L635.306 67.8642L641.075 66.2158ZM637.998 63.368H630.318V69.368H637.998V63.368ZM630.318 63.368C628.331 63.368 627.4 62.9002 626.965 62.4948C626.57 62.1259 626.118 61.3705 626.118 59.648H620.118C620.118 62.4055 620.867 65.0101 622.871 66.8812C624.837 68.7158 627.505 69.368 630.318 69.368V63.368ZM626.118 59.648C626.118 58.1365 626.582 57.1264 627.4 56.3439L623.253 52.0081C621.127 54.0416 620.118 56.6795 620.118 59.648H626.118ZM627.4 56.3439C628.633 55.1643 630.522 53.7971 633.17 52.2575L630.155 47.0705C627.299 48.7309 624.963 50.3717 623.253 52.0081L627.4 56.3439ZM633.159 52.2639L639.495 48.6159L636.501 43.4161L630.165 47.0641L633.159 52.2639ZM635.426 47.5595L638.882 53.3195L644.027 50.2325L640.571 44.4725L635.426 47.5595ZM639.987 49.1596L628.179 55.7836L631.114 61.0164L642.922 54.3924L639.987 49.1596ZM626.736 59.1276L626.928 59.8956L632.749 58.4404L632.557 57.6724L626.736 59.1276ZM629.838 62.168H637.326V56.168H629.838V62.168ZM637.326 62.168C639.466 62.168 640.516 62.6116 640.989 62.9927C641.338 63.2737 641.718 63.7914 641.718 65.12H647.718C647.718 62.4806 646.867 60.0223 644.752 58.3193C642.761 56.7164 640.114 56.168 637.326 56.168V62.168ZM641.718 65.12C641.718 66.8001 641.248 67.9276 640.487 68.7612L644.918 72.8068C646.845 70.6964 647.718 68.0479 647.718 65.12H641.718ZM640.439 68.8155C639.517 69.8753 637.916 71.0713 635.409 72.3247L638.092 77.6913C640.961 76.2567 643.328 74.6367 644.966 72.7525L640.439 68.8155ZM635.399 72.3296L624.935 77.6096L627.638 82.9663L638.102 77.6863L635.399 72.3296ZM628.953 78.9131L625.785 72.7691L620.452 75.5189L623.62 81.6629L628.953 78.9131ZM678.021 112.64V109.64C676.364 109.64 675.021 110.983 675.021 112.64H678.021ZM698.757 110.336L697.61 107.564C697.604 107.566 697.598 107.569 697.592 107.571L698.757 110.336ZM706.629 104L709.233 105.488C709.764 104.56 709.76 103.419 709.223 102.494C708.687 101.569 707.698 101 706.629 101V104ZM683.301 99.488L681.112 101.54C681.127 101.556 681.142 101.571 681.157 101.586L683.301 99.488ZM680.421 77.504L677.594 76.499C677.59 76.5113 677.585 76.5236 677.581 76.536L680.421 77.504ZM684.549 70.112L682.261 68.1711L682.256 68.1774L684.549 70.112ZM690.789 65.216L692.101 67.9137C692.111 67.9089 692.121 67.9041 692.13 67.8993L690.789 65.216ZM718.053 89.6L715.055 89.7162C715.117 91.3266 716.441 92.6 718.053 92.6V89.6ZM722.949 89.6H725.949C725.949 87.9431 724.605 86.6 722.949 86.6V89.6ZM722.949 101.12L725.07 103.241C725.633 102.679 725.949 101.916 725.949 101.12H722.949ZM720.069 104V107C720.864 107 721.627 106.684 722.19 106.121L720.069 104ZM716.805 104V101C715.421 101 714.217 101.946 713.89 103.29L716.805 104ZM706.149 120.992L704.353 118.589C704.342 118.597 704.332 118.605 704.321 118.613L706.149 120.992ZM678.021 127.04H675.021C675.021 128.697 676.364 130.04 678.021 130.04V127.04ZM690.693 88.544L689.256 91.1777C689.287 91.1948 689.319 91.2113 689.351 91.2273L690.693 88.544ZM708.453 89.6V92.6C710.109 92.6 711.453 91.2569 711.453 89.6H708.453ZM705.285 80.96L703.131 83.0484C703.142 83.0595 703.152 83.0704 703.163 83.0813L705.285 80.96ZM691.077 79.808L692.906 82.1859C692.91 82.1826 692.914 82.1793 692.918 82.1761L691.077 79.808ZM678.021 115.64H684.165V109.64H678.021V115.64ZM684.165 115.64C690.452 115.64 695.761 114.852 699.921 113.101L697.592 107.571C694.456 108.892 690.037 109.64 684.165 109.64V115.64ZM699.904 113.108C704.046 111.394 707.28 108.906 709.233 105.488L704.024 102.512C702.905 104.47 700.891 106.206 697.61 107.564L699.904 113.108ZM706.629 101H695.493V107H706.629V101ZM695.493 101C690.916 101 687.699 99.6928 685.445 97.3896L681.157 101.586C684.79 105.299 689.701 107 695.493 107V101ZM685.489 97.4362C683.269 95.068 681.981 91.6279 681.981 86.72H675.981C675.981 92.6921 677.572 97.764 681.112 101.54L685.489 97.4362ZM681.981 86.72C681.981 83.6826 682.418 80.9417 683.26 78.472L677.581 76.536C676.503 79.6983 675.981 83.1014 675.981 86.72H681.981ZM683.247 78.509C684.167 75.9212 685.376 73.7834 686.841 72.0466L682.256 68.1774C680.265 70.5366 678.722 73.3268 677.594 76.499L683.247 78.509ZM686.836 72.0529C688.373 70.2413 690.126 68.8744 692.101 67.9137L689.476 62.5183C686.715 63.8616 684.308 65.7587 682.261 68.1711L686.836 72.0529ZM692.13 67.8993C694.131 66.8991 696.293 66.392 698.661 66.392V60.392C695.396 60.392 692.311 61.1009 689.447 62.5327L692.13 67.8993ZM698.661 66.392C703.551 66.392 707.254 68.2586 710.069 72.0825L714.901 68.5255C710.931 63.1334 705.418 60.392 698.661 60.392V66.392ZM710.069 72.0825C712.979 76.0364 714.748 81.806 715.055 89.7162L721.05 89.4838C720.717 80.882 718.774 73.7876 714.901 68.5255L710.069 72.0825ZM718.053 92.6H722.949V86.6H718.053V92.6ZM719.949 89.6V101.12H725.949V89.6H719.949ZM720.827 98.9987L717.947 101.879L722.19 106.121L725.07 103.241L720.827 98.9987ZM720.069 101H716.805V107H720.069V101ZM713.89 103.29C712.238 110.075 709.028 115.097 704.353 118.589L707.944 123.395C713.893 118.951 717.787 112.645 719.719 104.71L713.89 103.29ZM704.321 118.613C699.745 122.129 693.446 124.04 685.125 124.04V130.04C694.339 130.04 702.056 127.919 707.976 123.371L704.321 118.613ZM685.125 124.04H678.021V130.04H685.125V124.04ZM681.021 127.04V112.64H675.021V127.04H681.021ZM685.581 84.8C685.581 86.0743 685.842 87.348 686.496 88.506C687.156 89.6758 688.12 90.5578 689.256 91.1777L692.129 85.9103C691.858 85.7622 691.766 85.6362 691.722 85.558C691.671 85.468 691.581 85.2537 691.581 84.8H685.581ZM689.351 91.2273C691.341 92.2224 693.785 92.6 696.453 92.6V86.6C694.257 86.6 692.86 86.2736 692.034 85.8607L689.351 91.2273ZM696.453 92.6H708.453V86.6H696.453V92.6ZM711.453 89.6V89.312H705.453V89.6H711.453ZM711.453 89.312C711.453 85.1956 710.169 81.6022 707.406 78.8387L703.163 83.0813C704.624 84.5418 705.453 86.5164 705.453 89.312H711.453ZM707.438 78.8716C704.773 76.1226 701.345 74.792 697.413 74.792V80.792C699.88 80.792 701.701 81.5734 703.131 83.0484L707.438 78.8716ZM697.413 74.792C694.348 74.792 691.562 75.6299 689.235 77.4399L692.918 82.1761C694.047 81.2981 695.486 80.792 697.413 80.792V74.792ZM689.247 77.4301C686.867 79.2613 685.581 81.7936 685.581 84.8H691.581C691.581 83.7104 691.958 82.9147 692.906 82.1859L689.247 77.4301ZM720.073 92.48L717.952 90.3587C717.389 90.9213 717.073 91.6844 717.073 92.48H720.073ZM722.953 89.6V86.6C722.157 86.6 721.394 86.9161 720.832 87.4787L722.953 89.6ZM733.033 32.96V29.96C731.376 29.96 730.033 31.3031 730.033 32.96H733.033ZM744.553 32.96H747.553C747.553 31.3031 746.21 29.96 744.553 29.96V32.96ZM754.633 89.6H757.633C757.633 87.9431 756.29 86.6 754.633 86.6V89.6ZM754.633 101.12L756.754 103.241C757.317 102.679 757.633 101.916 757.633 101.12H754.633ZM751.753 104V107C752.549 107 753.312 106.684 753.874 106.121L751.753 104ZM739.753 100.928L737.927 103.308C737.938 103.317 737.95 103.326 737.962 103.335L739.753 100.928ZM734.281 91.04L737.223 90.4517C736.942 89.0494 735.711 88.04 734.281 88.04V91.04ZM733.705 91.04V88.04C732.26 88.04 731.02 89.0709 730.756 90.4922L733.705 91.04ZM729.289 100.928L731.378 103.082C731.389 103.071 731.4 103.06 731.41 103.049L729.289 100.928ZM720.073 104H717.073C717.073 105.657 718.416 107 720.073 107V104ZM722.194 94.6013L725.074 91.7213L720.832 87.4787L717.952 90.3587L722.194 94.6013ZM722.953 92.6H725.353V86.6H722.953V92.6ZM725.353 92.6C728.284 92.6 731.043 91.9674 733.089 90.1777C735.211 88.3211 736.033 85.6943 736.033 82.88H730.033C730.033 84.5457 729.576 85.2789 729.138 85.6623C728.623 86.1126 727.542 86.6 725.353 86.6V92.6ZM736.033 82.88V32.96H730.033V82.88H736.033ZM733.033 35.96H744.553V29.96H733.033V35.96ZM741.553 32.96V82.88H747.553V32.96H741.553ZM741.553 82.88C741.553 85.5824 742.231 88.1603 744.112 90.0413C745.993 91.9224 748.571 92.6 751.273 92.6V86.6C749.496 86.6 748.713 86.1576 748.354 85.7987C747.995 85.4397 747.553 84.6576 747.553 82.88H741.553ZM751.273 92.6H754.633V86.6H751.273V92.6ZM751.633 89.6V101.12H757.633V89.6H751.633ZM752.512 98.9987L749.632 101.879L753.874 106.121L756.754 103.241L752.512 98.9987ZM751.753 101C746.828 101 743.569 100.028 741.544 98.5213L737.962 103.335C741.441 105.924 746.182 107 751.753 107V101ZM741.58 98.5481C739.566 97.0029 738.022 94.4489 737.223 90.4517L731.339 91.6283C732.332 96.5911 734.436 100.629 737.927 103.308L741.58 98.5481ZM734.281 88.04H733.705V94.04H734.281V88.04ZM730.756 90.4922C729.98 94.669 728.68 97.2944 727.168 98.8067L731.41 103.049C734.122 100.338 735.766 96.371 736.655 91.5878L730.756 90.4922ZM727.201 98.7743C725.829 100.104 723.62 101 720.073 101V107C724.591 107 728.525 105.848 731.378 103.082L727.201 98.7743ZM723.073 104V92.48H717.073V104H723.073ZM765.873 98.624L766.753 95.7562C765.539 95.3831 764.221 95.8159 763.463 96.8365L765.873 98.624ZM760.305 102.848L761.303 105.677C761.318 105.672 761.334 105.666 761.349 105.66L760.305 102.848ZM751.761 104H748.761C748.761 105.657 750.104 107 751.761 107V104ZM751.761 92.48L749.639 90.3587C749.077 90.9213 748.761 91.6844 748.761 92.48H751.761ZM754.641 89.6V86.6C753.845 86.6 753.082 86.9161 752.519 87.4787L754.641 89.6ZM759.825 88.544L758.195 86.0253L758.195 86.0253L759.825 88.544ZM762.513 84.8L759.733 83.6719C759.729 83.6823 759.724 83.6927 759.72 83.703L762.513 84.8ZM765.201 78.176L762.421 77.0469L762.421 77.0479L765.201 78.176ZM767.985 72.416L770.589 73.9044L770.589 73.9044L767.985 72.416ZM771.633 67.712L769.561 65.5419L769.561 65.5419L771.633 67.712ZM776.337 64.544L775.155 61.7866C775.143 61.7918 775.13 61.7971 775.118 61.8026L776.337 64.544ZM796.017 70.496L793.484 72.1044C793.489 72.1125 793.495 72.1205 793.5 72.1286L796.017 70.496ZM800.625 92.96L803.113 94.6363C803.446 94.141 803.625 93.5573 803.625 92.96H800.625ZM791.505 106.496L790.624 109.364C791.887 109.752 793.254 109.268 793.993 108.172L791.505 106.496ZM771.153 85.28L768.307 84.3313C768.051 85.0995 768.116 85.9386 768.488 86.6579C768.86 87.3772 769.507 87.9156 770.281 88.1507L771.153 85.28ZM790.449 91.136L789.577 94.0067C790.486 94.2826 791.472 94.1116 792.236 93.5457C792.999 92.9799 793.449 92.086 793.449 91.136H790.449ZM787.665 81.152L785.382 83.0988L785.382 83.0988L787.665 81.152ZM774.705 79.52L772.971 77.0719C772.954 77.0836 772.938 77.0955 772.921 77.1075L774.705 79.52ZM771.345 84.704L774.191 85.6527C774.193 85.645 774.196 85.6372 774.198 85.6295L771.345 84.704ZM763.463 96.8365C762.325 98.3706 760.936 99.4131 759.26 100.036L761.349 105.66C764.153 104.619 766.476 102.845 768.282 100.412L763.463 96.8365ZM759.306 100.019C757.573 100.631 755.1 101 751.761 101V107C755.461 107 758.684 106.601 761.303 105.677L759.306 100.019ZM754.761 104V92.48H748.761V104H754.761ZM753.882 94.6013L756.762 91.7213L752.519 87.4787L749.639 90.3587L753.882 94.6013ZM754.641 92.6C757.175 92.6 759.623 92.2474 761.454 91.0627L758.195 86.0253C757.85 86.2486 756.842 86.6 754.641 86.6V92.6ZM761.454 91.0627C763.269 89.8888 764.477 88.0036 765.305 85.897L759.72 83.703C759.14 85.1804 758.557 85.7912 758.195 86.0253L761.454 91.0627ZM765.292 85.9281L767.98 79.304L762.421 77.0479L759.733 83.6719L765.292 85.9281ZM767.98 79.3051C768.765 77.372 769.636 75.5728 770.589 73.9044L765.38 70.9276C764.285 72.8432 763.3 74.884 762.421 77.0469L767.98 79.3051ZM770.589 73.9044C771.478 72.349 772.518 71.0141 773.704 69.8821L769.561 65.5419C767.931 67.0979 766.539 68.899 765.38 70.9276L770.589 73.9044ZM773.704 69.8821C774.87 68.769 776.151 67.9093 777.555 67.2854L775.118 61.8026C773.066 62.7147 771.211 63.967 769.561 65.5419L773.704 69.8821ZM777.518 67.3014C778.875 66.7198 780.51 66.392 782.481 66.392V60.392C779.843 60.392 777.382 60.8322 775.155 61.7866L777.518 67.3014ZM782.481 66.392C787.559 66.392 791.073 68.3076 793.484 72.1044L798.549 68.8876C794.945 63.2124 789.434 60.392 782.481 60.392V66.392ZM793.5 72.1286C796.138 76.1963 797.625 82.1074 797.625 90.176H803.625C803.625 81.4766 802.039 74.2677 798.534 68.8634L793.5 72.1286ZM797.625 90.176V92.96H803.625V90.176H797.625ZM798.137 91.2837L789.017 104.82L793.993 108.172L803.113 94.6363L798.137 91.2837ZM792.385 103.628L766.753 95.7562L764.992 101.492L790.624 109.364L792.385 103.628ZM770.281 88.1507L789.577 94.0067L791.32 88.2653L772.024 82.4093L770.281 88.1507ZM793.449 91.136V90.176H787.449V91.136H793.449ZM793.449 90.176C793.449 85.8686 792.404 82.0859 789.947 79.2052L785.382 83.0988C786.637 84.5701 787.449 86.8034 787.449 90.176H793.449ZM789.947 79.2052C787.449 76.2766 784.042 74.888 780.081 74.888V80.888C782.52 80.888 784.168 81.6754 785.382 83.0988L789.947 79.2052ZM780.081 74.888C777.469 74.888 775.058 75.593 772.971 77.0719L776.439 81.9681C777.423 81.271 778.596 80.888 780.081 80.888V74.888ZM772.921 77.1075C770.794 78.6801 769.384 81.0254 768.491 83.7785L774.198 85.6295C774.841 83.6466 775.671 82.5359 776.488 81.9325L772.921 77.1075ZM768.499 83.7553L768.307 84.3313L773.999 86.2287L774.191 85.6527L768.499 83.7553Z" fill="white" style="fill:white;fill-opacity:1;" mask="url(#path-1-outside-1_65_365)"/>
</svg>
