<svg width="831" height="167" viewBox="0 0 831 167" fill="none" xmlns="http://www.w3.org/2000/svg">
<path d="M21.2869 112.64H26.0869C31.3989 112.64 35.3669 111.456 37.9909 109.088C40.6789 106.72 42.0229 102.784 42.0229 97.28C42.0229 95.808 41.9269 94.272 41.7349 92.672C41.5429 91.008 41.2869 89.248 40.9669 87.392L39.3349 76.832L74.8549 72.992V82.88C74.8549 84.416 75.0469 85.632 75.4309 86.528C75.8789 87.36 76.4549 88.032 77.1589 88.544L81.3829 81.248C83.6229 77.344 85.8949 74.016 88.1989 71.264C90.5669 68.512 93.0309 66.272 95.5909 64.544C98.1509 62.816 100.839 61.568 103.655 60.8C106.535 59.968 109.607 59.552 112.871 59.552C120.423 59.552 126.087 61.632 129.863 65.792C133.639 69.888 135.527 75.616 135.527 82.976C135.527 85.408 135.303 87.52 134.855 89.312C136.455 89.504 138.023 89.6 139.559 89.6H142.439V101.12L139.559 104C137.319 104 135.175 103.744 133.127 103.232C131.143 102.656 129.255 101.632 127.463 100.16C123.367 102.72 117.543 104 109.991 104H80.6149C75.4309 103.936 71.4949 102.656 68.8069 100.16C66.1189 97.6 64.6149 93.632 64.2949 88.256L51.9109 89.504C52.0389 90.976 52.1349 92.32 52.1989 93.536C52.3269 94.752 52.3909 95.84 52.3909 96.8C52.3909 101.408 51.8149 105.568 50.6629 109.28C49.5109 112.992 47.8149 116.16 45.5749 118.784C43.3349 121.472 40.5829 123.52 37.3189 124.928C34.1189 126.336 30.4069 127.04 26.1829 127.04H21.2869V112.64ZM85.6069 89.024L85.8949 89.6H109.991C113.063 89.6 115.591 89.504 117.575 89.312C119.623 89.056 121.255 88.672 122.471 88.16C123.751 87.584 124.647 86.816 125.159 85.856C125.671 84.896 125.927 83.648 125.927 82.112C125.927 79.36 125.031 77.312 123.239 75.968C121.447 74.624 118.471 73.952 114.311 73.952H111.431C108.551 73.952 106.023 74.08 103.847 74.336C101.671 74.528 99.7509 74.944 98.0869 75.584C96.4229 76.224 94.9189 77.12 93.5749 78.272C92.2309 79.424 90.9509 80.928 89.7349 82.784L85.6069 89.024ZM153.685 98.624C152.213 100.608 150.357 102.016 148.117 102.848C145.941 103.616 143.093 104 139.573 104V92.48L142.453 89.6C144.821 89.6 146.549 89.248 147.637 88.544C148.725 87.84 149.621 86.592 150.325 84.8L153.013 78.176C153.845 76.128 154.773 74.208 155.797 72.416C156.821 70.624 158.037 69.056 159.445 67.712C160.853 66.368 162.421 65.312 164.149 64.544C165.941 63.776 167.989 63.392 170.293 63.392C176.309 63.392 180.821 65.76 183.829 70.496C186.901 75.232 188.437 81.792 188.437 90.176V92.96L179.317 106.496L153.685 98.624ZM158.965 85.28L178.261 91.136V90.176C178.261 86.336 177.333 83.328 175.477 81.152C173.621 78.976 171.093 77.888 167.893 77.888C165.845 77.888 164.053 78.432 162.517 79.52C161.045 80.608 159.925 82.336 159.157 84.704L158.965 85.28ZM250.549 127.04C245.429 127.04 240.821 126.432 236.725 125.216C232.693 124.064 229.269 122.336 226.453 120.032C223.637 117.792 221.493 115.04 220.021 111.776C218.549 108.576 217.813 104.896 217.813 100.736C217.813 97.856 218.197 94.624 218.965 91.04C219.797 87.392 220.917 83.872 222.325 80.48L231.541 83.168C230.261 85.92 229.237 88.704 228.469 91.52C227.765 94.336 227.413 96.768 227.413 98.816C227.413 102.848 229.109 105.952 232.501 108.128C235.893 110.368 240.629 111.488 246.709 111.488H254.389C260.853 111.488 266.005 110.752 269.845 109.28C273.749 107.872 275.989 105.92 276.565 103.424L252.853 99.392V85.76H258.517C260.693 85.76 262.677 85.632 264.469 85.376C266.325 85.056 267.861 84.544 269.077 83.84C270.357 83.136 271.349 82.176 272.053 80.96C272.757 79.744 273.109 78.208 273.109 76.352V72.896H272.533C270.677 77.952 266.421 80.48 259.765 80.48C254.581 80.48 250.517 79.136 247.573 76.448C244.693 73.696 243.253 69.92 243.253 65.12C243.253 61.792 243.733 58.72 244.693 55.904C245.717 53.024 247.093 50.56 248.821 48.512C250.613 46.4 252.693 44.768 255.061 43.616C257.493 42.4 260.117 41.792 262.933 41.792C269.205 41.792 274.069 44.416 277.525 49.664C281.045 54.912 282.805 62.208 282.805 71.552C282.805 76.352 282.197 80.192 280.981 83.072C279.765 85.952 277.621 88.064 274.549 89.408V89.984L276.373 90.464C279.445 91.296 281.877 92.672 283.669 94.592C285.461 96.512 286.357 99.008 286.357 102.08C286.357 106.048 285.525 109.568 283.861 112.64C282.261 115.776 279.925 118.4 276.853 120.512C273.781 122.624 270.037 124.224 265.621 125.312C261.205 126.464 256.181 127.04 250.549 127.04ZM262.741 68C265.173 68 267.221 67.904 268.885 67.712C270.549 67.456 271.893 67.072 272.917 66.56C272.533 63.424 271.285 60.928 269.173 59.072C267.125 57.152 264.629 56.192 261.685 56.192C259.189 56.192 257.077 56.864 255.349 58.208C253.685 59.488 252.853 61.152 252.853 63.2C252.853 64.928 253.557 66.176 254.965 66.944C256.373 67.648 258.293 68 260.725 68H262.741ZM261.973 34.112C260.309 34.112 258.933 33.6 257.845 32.576C256.821 31.552 256.309 29.92 256.309 27.68C256.309 25.44 256.821 23.808 257.845 22.784C258.933 21.76 260.309 21.248 261.973 21.248H263.893C265.557 21.248 266.901 21.76 267.925 22.784C269.013 23.808 269.557 25.44 269.557 27.68C269.557 29.92 269.013 31.552 267.925 32.576C266.901 33.6 265.557 34.112 263.893 34.112H261.973ZM257.173 147.68C255.509 147.68 254.133 147.168 253.045 146.144C252.021 145.12 251.509 143.488 251.509 141.248C251.509 139.008 252.021 137.376 253.045 136.352C254.133 135.328 255.509 134.816 257.173 134.816H259.093C260.757 134.816 262.101 135.328 263.125 136.352C264.213 137.376 264.757 139.008 264.757 141.248C264.757 143.488 264.213 145.12 263.125 146.144C262.101 147.168 260.757 147.68 259.093 147.68H257.173ZM242.005 147.68C240.341 147.68 238.965 147.168 237.877 146.144C236.853 145.12 236.341 143.488 236.341 141.248C236.341 139.008 236.853 137.376 237.877 136.352C238.965 135.328 240.341 134.816 242.005 134.816H243.925C245.589 134.816 246.933 135.328 247.957 136.352C249.045 137.376 249.589 139.008 249.589 141.248C249.589 143.488 249.045 145.12 247.957 146.144C246.933 147.168 245.589 147.68 243.925 147.68H242.005ZM353.329 105.152C346.353 105.152 340.465 104.768 335.665 104C330.929 103.232 327.089 101.984 324.145 100.256C321.201 98.464 319.057 96.16 317.713 93.344C316.433 90.528 315.793 87.04 315.793 82.88C315.793 80.32 316.113 77.504 316.753 74.432C317.457 71.36 318.417 68.32 319.633 65.312L328.849 68C327.761 70.176 326.897 72.288 326.257 74.336C325.681 76.32 325.393 78.112 325.393 79.712C325.393 81.568 325.777 83.136 326.545 84.416C327.313 85.632 328.561 86.624 330.289 87.392C332.017 88.16 334.289 88.736 337.105 89.12C339.921 89.44 343.409 89.6 347.569 89.6H361.009C365.489 89.6 369.201 89.504 372.145 89.312C375.089 89.12 377.393 88.768 379.057 88.256C380.721 87.744 381.873 87.072 382.513 86.24C383.217 85.344 383.569 84.224 383.569 82.88V69.152H394.129V82.88C394.129 87.36 396.689 89.6 401.809 89.6H404.689V101.12L401.809 104C396.881 104 393.041 102.976 390.289 100.928C387.537 98.816 385.713 95.52 384.817 91.04H384.241C383.729 93.664 382.801 95.872 381.457 97.664C380.113 99.456 378.225 100.928 375.793 102.08C373.361 103.168 370.289 103.936 366.577 104.384C362.929 104.896 358.513 105.152 353.329 105.152ZM353.233 124.544C351.569 124.544 350.193 124.032 349.105 123.008C348.081 121.984 347.569 120.352 347.569 118.112C347.569 115.872 348.081 114.24 349.105 113.216C350.193 112.192 351.569 111.68 353.233 111.68H355.153C356.817 111.68 358.161 112.192 359.185 113.216C360.273 114.24 360.817 115.872 360.817 118.112C360.817 120.352 360.273 121.984 359.185 123.008C358.161 124.032 356.817 124.544 355.153 124.544H353.233ZM401.792 92.48L404.672 89.6H407.456C409.76 89.6 411.648 89.504 413.12 89.312C414.656 89.12 415.872 88.8 416.768 88.352C417.728 87.84 418.368 87.232 418.688 86.528C419.072 85.76 419.264 84.832 419.264 83.744C419.264 82.784 419.168 81.568 418.976 80.096C418.848 78.56 418.56 76.576 418.112 74.144L416.48 65.216L426.944 63.488L428.384 72.416C428.704 74.144 428.96 76.064 429.152 78.176C429.344 80.288 429.44 82.144 429.44 83.744C429.44 90.72 427.712 95.84 424.256 99.104C420.864 102.368 415.264 104 407.456 104H401.792V92.48ZM426.272 124.64C424.608 124.64 423.232 124.128 422.144 123.104C421.12 122.08 420.608 120.448 420.608 118.208C420.608 115.968 421.12 114.336 422.144 113.312C423.232 112.288 424.608 111.776 426.272 111.776H428.192C429.856 111.776 431.2 112.288 432.224 113.312C433.312 114.336 433.856 115.968 433.856 118.208C433.856 120.448 433.312 122.08 432.224 123.104C431.2 124.128 429.856 124.64 428.192 124.64H426.272ZM411.104 124.64C409.44 124.64 408.064 124.128 406.976 123.104C405.952 122.08 405.44 120.448 405.44 118.208C405.44 115.968 405.952 114.336 406.976 113.312C408.064 112.288 409.44 111.776 411.104 111.776H413.024C414.688 111.776 416.032 112.288 417.056 113.312C418.144 114.336 418.688 115.968 418.688 118.208C418.688 120.448 418.144 122.08 417.056 123.104C416.032 124.128 414.688 124.64 413.024 124.64H411.104ZM438.099 112.64H441.939C447.763 112.64 452.019 111.456 454.707 109.088C457.459 106.72 458.803 102.784 458.739 97.28C458.739 95.808 458.643 94.272 458.451 92.672C458.259 91.008 458.003 89.248 457.683 87.392L455.667 74.624L466.131 72.992L467.571 81.92C467.827 83.328 468.019 84.672 468.147 85.952C468.339 87.232 468.499 88.448 468.627 89.6H477.459V101.12L474.579 104H468.627C467.539 111.104 464.723 116.704 460.179 120.8C455.699 124.96 449.651 127.04 442.035 127.04H438.099V112.64ZM474.542 92.48L477.422 89.6H486.446C488.75 89.6 490.318 89.376 491.15 88.928C492.046 88.416 492.494 87.552 492.494 86.336C492.494 85.504 492.27 84.768 491.822 84.128C491.374 83.424 490.606 82.624 489.518 81.728L478.382 71.744V46.4L524.462 31.808V44.48L483.182 57.44V58.016L507.662 80.384C509.71 82.304 511.534 83.872 513.134 85.088C514.798 86.24 516.302 87.168 517.646 87.872C519.054 88.512 520.366 88.96 521.582 89.216C522.798 89.472 524.078 89.6 525.422 89.6V101.12L522.542 104C520.366 104 518.382 103.808 516.59 103.424C514.862 102.976 513.134 102.208 511.406 101.12C509.678 99.968 507.854 98.464 505.934 96.608C504.078 94.688 501.966 92.256 499.598 89.312L497.006 86.144L496.526 86.432C496.782 87.648 496.91 88.928 496.91 90.272C496.91 92.192 496.622 93.984 496.046 95.648C495.47 97.312 494.638 98.784 493.55 100.064C492.462 101.28 491.15 102.24 489.614 102.944C488.078 103.648 486.35 104 484.43 104H474.542V92.48ZM522.542 92.48L525.422 89.6H529.646C532.078 89.6 533.678 89.152 534.446 88.256C535.278 87.296 535.694 85.824 535.694 83.84V32.96H547.214V83.84C547.214 90.688 545.87 95.744 543.182 99.008C540.558 102.272 536.046 103.936 529.646 104H522.542V92.48ZM558.744 32.96H570.264V104H558.744V32.96ZM602.574 89.6H652.11C655.95 89.6 657.87 87.68 657.87 83.84V32.864H669.39V83.84C669.39 90.752 667.982 95.84 665.166 99.104C662.414 102.368 658.062 104 652.11 104H602.574V89.6ZM623.118 74.144L638.19 67.04L637.998 66.368H630.318C625.518 66.368 623.118 64.128 623.118 59.648C623.118 57.408 623.854 55.584 625.326 54.176C626.798 52.768 628.91 51.264 631.662 49.664L637.998 46.016L641.454 51.776L629.646 58.4L629.838 59.168H637.326C642.254 59.168 644.718 61.152 644.718 65.12C644.718 67.424 644.046 69.312 642.702 70.784C641.422 72.256 639.438 73.664 636.75 75.008L626.286 80.288L623.118 74.144ZM678.021 112.64H684.165C690.245 112.64 695.109 111.872 698.757 110.336C702.469 108.8 705.093 106.688 706.629 104H695.493C690.309 104 686.245 102.496 683.301 99.488C680.421 96.416 678.981 92.16 678.981 86.72C678.981 83.392 679.461 80.32 680.421 77.504C681.445 74.624 682.821 72.16 684.549 70.112C686.341 68 688.421 66.368 690.789 65.216C693.221 64 695.845 63.392 698.661 63.392C704.485 63.392 709.093 65.696 712.485 70.304C715.877 74.912 717.733 81.344 718.053 89.6H722.949V101.12L720.069 104H716.805C715.013 111.36 711.461 117.024 706.149 120.992C700.901 125.024 693.893 127.04 685.125 127.04H678.021V112.64ZM688.581 84.8C688.581 86.528 689.285 87.776 690.693 88.544C692.101 89.248 694.021 89.6 696.453 89.6H708.453V89.312C708.453 85.856 707.397 83.072 705.285 80.96C703.237 78.848 700.613 77.792 697.413 77.792C694.917 77.792 692.805 78.464 691.077 79.808C689.413 81.088 688.581 82.752 688.581 84.8ZM720.073 92.48L722.953 89.6H725.353C730.473 89.6 733.033 87.36 733.033 82.88V32.96H744.553V82.88C744.553 87.36 746.793 89.6 751.273 89.6H754.633V101.12L751.753 104C746.505 104 742.505 102.976 739.753 100.928C737.001 98.816 735.177 95.52 734.281 91.04H733.705C732.873 95.52 731.401 98.816 729.289 100.928C727.177 102.976 724.105 104 720.073 104V92.48ZM765.873 98.624C764.401 100.608 762.545 102.016 760.305 102.848C758.129 103.616 755.281 104 751.761 104V92.48L754.641 89.6C757.009 89.6 758.737 89.248 759.825 88.544C760.913 87.84 761.809 86.592 762.513 84.8L765.201 78.176C766.033 76.128 766.961 74.208 767.985 72.416C769.009 70.624 770.225 69.056 771.633 67.712C773.041 66.368 774.609 65.312 776.337 64.544C778.129 63.776 780.177 63.392 782.481 63.392C788.497 63.392 793.009 65.76 796.017 70.496C799.089 75.232 800.625 81.792 800.625 90.176V92.96L791.505 106.496L765.873 98.624ZM771.153 85.28L790.449 91.136V90.176C790.449 86.336 789.521 83.328 787.665 81.152C785.809 78.976 783.281 77.888 780.081 77.888C778.033 77.888 776.241 78.432 774.705 79.52C773.233 80.608 772.113 82.336 771.345 84.704L771.153 85.28Z" fill="white"/>
</svg>
