<svg width="559" height="538" viewBox="0 0 559 538" fill="none" xmlns="http://www.w3.org/2000/svg">
<path d="M263.377 25H275.3L283.249 26.9873L289.708 29.4714L301.135 35.93L308.587 39.4077L316.536 41.8918L326.969 43.8791L335.415 44.8727H346.842L358.766 45.3695L369.696 46.86L378.638 49.8409L386.587 53.8154L392.549 57.2931L398.014 61.7645L401.989 66.2358L407.454 76.669L413.416 93.5608L416.893 102.503L420.371 107.968L422.358 110.453L427.326 113.93L437.76 120.389L452.167 128.835L460.613 134.3L467.569 139.765L473.034 145.727L477.008 152.185L479.492 157.65L480.983 165.102L481.479 169.077L481.976 182.491L482.473 213.294L484.46 223.23L486.944 229.689L490.919 235.154L494.894 239.128V240.122H495.887L499.365 244.096L510.295 255.026L514.269 262.975L515.263 266.453V274.899L513.773 281.358L509.798 289.307L506.32 294.772L499.862 302.721L495.39 307.689L488.932 316.135L485.454 321.6L484.46 324.084L483.467 328.555L482.473 330.543L481.976 333.523V341.473L484.46 358.861V367.804L482.97 374.759L479.989 382.708L476.015 391.154L471.543 398.11L467.569 403.078L463.097 408.046L459.123 411.524L453.658 415.001L444.218 419.473L438.753 422.454L430.804 426.428L424.346 431.893L420.868 436.365L417.39 441.333L413.912 448.288L409.938 457.728L404.473 470.645L400.498 478.594L396.027 484.059L392.052 488.034L385.097 492.505L378.638 494.492L373.173 494.989H366.218L347.339 493.499H336.906L328.46 494.989L316.039 500.454L307.593 504.925L299.148 509.894L290.205 514.862L283.746 518.836L271.823 524.798L265.861 526.785L262.88 527.282H257.912L252.944 525.792L247.479 522.811L241.02 517.843L232.574 510.887L222.141 503.932L217.173 501.448L210.714 499.46L198.294 497.473H181.402L168.485 498.467H155.567L146.128 496.976L139.669 494.492L134.701 491.511L128.242 485.55L124.268 480.581L119.797 473.129L110.854 455.244L106.879 449.282L101.414 442.823L96.943 437.855L94.9557 435.371L90.9812 431.893L85.5162 426.925L78.064 421.46L56.204 408.543L49.2486 403.575L44.2804 399.103L40.8027 393.638L39.3122 389.664V380.224L42.7899 364.823L43.2868 361.345V350.912L40.8027 337.995L37.8218 330.046L31.3631 318.122L24.4077 307.192L19.4395 298.249L14.9682 288.81L11.4905 278.377L10.4968 273.409L10 268.44V263.472L11.4905 255.523L13.9745 249.561L17.9491 243.6L23.9109 236.644L30.8663 230.682L36.8281 225.217L41.2995 220.249L44.2804 214.287L45.274 209.319V202.364L43.7836 191.931L40.3058 178.517L38.3186 166.096V157.65L39.3122 151.192L41.7963 144.733L46.2677 138.274L50.2422 134.3L55.2104 130.822L62.1658 126.848L84.5226 119.395L93.9621 114.924L99.4271 110.453L104.892 103L109.86 93.5608L115.822 79.6499L119.797 71.204L125.262 62.2613L131.223 55.8027L136.688 51.8281L142.65 48.8472L150.599 46.86L154.077 46.3631H160.039L171.962 47.8536L185.873 49.8409H195.81L203.759 47.8536L217.67 42.3886L229.593 36.9236L244.001 29.9682L252.944 26.9873L259.402 25.4968L263.377 25ZM454.155 350.912L452.167 351.906L451.174 353.396V357.371L451.67 359.358V366.81L449.683 376.25L446.702 382.212L442.231 389.167L438.256 396.122L437.76 397.613V401.587L439.25 404.072L442.728 405.562L447.199 405.065L451.174 401.587L455.148 397.613L458.626 391.651L463.097 380.224L465.581 371.778L466.575 365.817V359.855L465.085 355.88L461.11 351.906L459.123 350.912H454.155Z" fill="#EBC143"/>
<path d="M330.281 0.946411H336.423L342.007 2.3825L346.474 4.77598L352.057 9.56295L355.966 16.2647L357.082 19.6156V24.8812L355.407 28.7108L352.057 31.1043L344.798 32.5404L339.773 33.0191H326.931L317.997 31.583L312.972 29.6682L309.622 27.2747L307.389 23.4451L306.83 19.6156L309.064 13.3925L312.414 9.08425L316.881 5.25468L323.581 2.3825L330.281 0.946411Z" fill="#ECC243"/>
<path d="M457.885 436.512H465.702L472.403 437.949L479.103 440.821L483.011 444.172L485.245 448.48L485.803 452.788L484.128 457.096L481.336 461.405L476.311 466.192L470.169 470.5L465.702 473.851L460.119 482.946L455.093 493.956L450.627 500.658L446.718 504.009L442.251 505.923L436.668 506.402L431.084 504.487L426.617 500.179L423.825 493.956L423.267 491.084V483.425L425.501 474.329L428.851 466.192L436.109 454.224L442.251 446.086L447.276 441.299L454.535 437.47L457.885 436.512Z" fill="#ECC243"/>
<path d="M508.464 191.305H514.042L519.619 192.492L523.524 194.868L526.87 198.826L530.775 205.159L535.794 215.055L539.699 220.597L548.065 228.514L554.758 235.243L556.989 238.41L558.105 241.577V247.515L555.874 250.681L551.969 253.452L545.834 255.036L541.372 254.64L538.025 253.056L534.121 250.285L529.101 244.744L524.639 239.994L519.062 236.827L512.926 233.66L502.886 228.118L499.54 224.952L496.193 220.201L494.52 215.847L493.962 212.68V205.159L495.636 200.013L498.982 196.055L501.771 194.076L505.117 192.097L508.464 191.305Z" fill="#ECC243"/>
<path d="M6.45612 181.626L10.9182 182.022L17.6113 184.397L21.5157 187.167L27.0933 193.105L30.4399 198.251L33.2287 205.772L33.7864 208.147V212.897L32.1131 216.46L28.7666 220.418L23.7467 222.793L21.5157 223.189H16.4958L12.5915 222.002L9.24492 219.231L7.01388 214.876L4.78283 203.397L0.32074 191.126V186.772L2.55179 183.605L4.78283 182.022L6.45612 181.626Z" fill="#ECC243"/>
</svg>
