<svg width="838" height="155" viewBox="0 0 838 155" fill="none" xmlns="http://www.w3.org/2000/svg">
<path d="M249.988 29.3714V61H241.449V29.3714H230.831V21.7872H260.606V29.3714H249.988ZM283.846 61C282.347 61 281.093 60.5318 280.082 59.5955C279.108 58.6592 278.49 57.4046 278.228 55.8316H277.891C277.441 57.7416 276.449 59.2023 274.913 60.2135C273.378 61.1873 271.486 61.6741 269.239 61.6741C266.28 61.6741 264.014 60.8876 262.441 59.3146C260.868 57.7416 260.082 55.663 260.082 53.0788C260.082 49.9702 261.205 47.6669 263.453 46.1688C265.737 44.6333 268.827 43.8655 272.722 43.8655H277.385V42.0116C277.385 40.5884 277.01 39.4648 276.261 38.6408C275.512 37.7794 274.258 37.3487 272.497 37.3487C270.849 37.3487 269.539 37.7045 268.565 38.4161C267.591 39.1277 266.786 39.933 266.149 40.8318L261.205 36.4499C262.404 34.6896 263.902 33.3226 265.7 32.3488C267.535 31.3376 270.007 30.832 273.115 30.832C277.31 30.832 280.456 31.7496 282.553 33.5848C284.651 35.4199 285.699 38.0978 285.699 41.6183V54.5394H288.452V61H283.846ZM272.329 55.8877C273.715 55.8877 274.894 55.5881 275.868 54.9889C276.879 54.3896 277.385 53.4159 277.385 52.0676V48.5845H273.34C270.082 48.5845 268.453 49.6893 268.453 51.899V52.7417C268.453 53.8278 268.79 54.6331 269.464 55.1574C270.138 55.6443 271.093 55.8877 272.329 55.8877ZM304.04 61C301.157 61 298.966 60.2697 297.468 58.809C296.007 57.3484 295.277 55.2136 295.277 52.4046V37.9667H291.119V31.5061H293.198C294.322 31.5061 295.089 31.244 295.501 30.7196C295.913 30.1579 296.119 29.3714 296.119 28.3601V23.5288H303.591V31.5061H309.434V37.9667H303.591V54.5394H308.984V61H304.04ZM315.209 19.4277H323.524V36.4499H323.805C324.217 34.802 325.153 33.4537 326.614 32.405C328.112 31.3563 329.816 30.832 331.726 30.832C335.471 30.832 338.299 32.1428 340.209 34.7645C342.119 37.3862 343.074 41.2063 343.074 46.225C343.074 51.2436 342.119 55.0825 340.209 57.7416C338.299 60.3633 335.471 61.6741 331.726 61.6741C330.752 61.6741 329.835 61.5243 328.973 61.2247C328.112 60.9625 327.325 60.588 326.614 60.1011C325.94 59.5768 325.359 58.9776 324.872 58.3034C324.385 57.5918 324.03 56.8428 323.805 56.0563H323.524V61H315.209V19.4277ZM328.973 54.9327C330.546 54.9327 331.838 54.3896 332.85 53.3035C333.898 52.1799 334.423 50.6818 334.423 48.8092V43.6969C334.423 41.8243 333.898 40.3449 332.85 39.2588C331.838 38.1352 330.546 37.5735 328.973 37.5735C327.4 37.5735 326.089 37.9667 325.041 38.7532C324.03 39.5023 323.524 40.5509 323.524 41.8992V50.6069C323.524 51.9552 324.03 53.0226 325.041 53.8091C326.089 54.5582 327.4 54.9327 328.973 54.9327ZM361.692 61.6741C359.445 61.6741 357.441 61.3183 355.681 60.6067C353.92 59.8577 352.422 58.8278 351.186 57.5169C349.988 56.1686 349.07 54.5394 348.434 52.6294C347.834 50.7193 347.535 48.5845 347.535 46.225C347.535 43.9029 347.834 41.8056 348.434 39.933C349.033 38.0229 349.913 36.3937 351.074 35.0454C352.272 33.6971 353.733 32.6672 355.456 31.9556C357.179 31.2065 359.145 30.832 361.355 30.832C363.789 30.832 365.868 31.244 367.59 32.0679C369.351 32.8919 370.774 33.9967 371.86 35.3825C372.984 36.7682 373.789 38.3787 374.276 40.2139C374.8 42.0116 375.062 43.9029 375.062 45.8879V48.3598H356.13V48.8092C356.13 50.7567 356.654 52.311 357.703 53.472C358.752 54.5956 360.4 55.1574 362.647 55.1574C364.37 55.1574 365.774 54.8203 366.86 54.1462C367.946 53.4346 368.958 52.5919 369.894 51.6181L374.051 56.7866C372.74 58.3221 371.017 59.5206 368.883 60.382C366.785 61.2434 364.388 61.6741 361.692 61.6741ZM361.523 36.9555C359.838 36.9555 358.508 37.5173 357.534 38.6408C356.598 39.727 356.13 41.1876 356.13 43.0228V43.4722H366.467V42.9666C366.467 41.1689 366.055 39.727 365.231 38.6408C364.444 37.5173 363.209 36.9555 361.523 36.9555ZM389.193 61C386.346 61 384.249 60.3071 382.901 58.9214C381.59 57.5356 380.934 55.5319 380.934 52.9103V19.4277H389.249V54.5394H392.957V61H389.193ZM419.739 61C418.241 61 416.986 60.5318 415.975 59.5955C415.001 58.6592 414.383 57.4046 414.121 55.8316H413.784C413.335 57.7416 412.342 59.2023 410.806 60.2135C409.271 61.1873 407.38 61.6741 405.132 61.6741C402.174 61.6741 399.908 60.8876 398.335 59.3146C396.762 57.7416 395.975 55.663 395.975 53.0788C395.975 49.9702 397.099 47.6669 399.346 46.1688C401.631 44.6333 404.72 43.8655 408.615 43.8655H413.278V42.0116C413.278 40.5884 412.904 39.4648 412.155 38.6408C411.406 37.7794 410.151 37.3487 408.391 37.3487C406.743 37.3487 405.432 37.7045 404.458 38.4161C403.484 39.1277 402.679 39.933 402.043 40.8318L397.099 36.4499C398.297 34.6896 399.795 33.3226 401.593 32.3488C403.428 31.3376 405.9 30.832 409.009 30.832C413.203 30.832 416.349 31.7496 418.447 33.5848C420.544 35.4199 421.593 38.0978 421.593 41.6183V54.5394H424.346V61H419.739ZM408.222 55.8877C409.608 55.8877 410.788 55.5881 411.762 54.9889C412.773 54.3896 413.278 53.4159 413.278 52.0676V48.5845H409.233C405.975 48.5845 404.346 49.6893 404.346 51.899V52.7417C404.346 53.8278 404.683 54.6331 405.357 55.1574C406.031 55.6443 406.986 55.8877 408.222 55.8877ZM442.304 47.9103V39.8206H458.989V47.9103H442.304ZM503.35 61C499.942 60.9625 497.452 60.1386 495.879 58.5281C494.306 56.8802 493.519 54.6331 493.519 51.7867V51.5058H493.182C492.882 52.8166 492.527 53.9215 492.115 54.8203C491.74 55.7192 491.253 56.4495 490.654 57.0113C490.055 57.5356 489.343 57.9289 488.519 58.1911C487.695 58.4158 486.722 58.5281 485.598 58.5281C482.901 58.5281 480.879 57.8165 479.531 56.3933C478.182 54.9327 477.508 52.8915 477.508 50.2699C477.508 47.1987 478.351 44.7082 480.036 42.7981C481.759 40.8505 484.062 39.1652 486.946 37.742L493.238 34.596V31.5061H499.98V49.5395C499.98 50.6631 500.223 51.4496 500.71 51.899C501.234 52.3485 502.115 52.5732 503.35 52.5732H505.036V59.3146L503.35 61ZM487.452 50.1013C489.624 50.1013 491.122 49.8953 491.946 49.4834C492.808 49.0714 493.238 48.3223 493.238 47.2362V40.4947L489.081 42.461C488.07 42.9479 487.19 43.3786 486.441 43.7531C485.729 44.1276 485.111 44.5209 484.587 44.9329C484.1 45.3074 483.725 45.7006 483.463 46.1126C483.238 46.5246 483.126 46.9928 483.126 47.5171C483.126 48.4534 483.426 49.1276 484.025 49.5395C484.662 49.9141 485.804 50.1013 487.452 50.1013ZM496.103 27.0118C495.13 27.0118 494.324 26.7122 493.688 26.113C493.088 25.5137 492.789 24.5587 492.789 23.2479C492.789 21.937 493.088 20.982 493.688 20.3827C494.324 19.7835 495.13 19.4839 496.103 19.4839H497.227C498.201 19.4839 498.987 19.7835 499.586 20.3827C500.223 20.982 500.541 21.937 500.541 23.2479C500.541 24.5587 500.223 25.5137 499.586 26.113C498.987 26.7122 498.201 27.0118 497.227 27.0118H496.103ZM487.227 27.0118C486.253 27.0118 485.448 26.7122 484.811 26.113C484.212 25.5137 483.913 24.5587 483.913 23.2479C483.913 21.937 484.212 20.982 484.811 20.3827C485.448 19.7835 486.253 19.4839 487.227 19.4839H488.351C489.324 19.4839 490.111 19.7835 490.71 20.3827C491.347 20.982 491.665 21.937 491.665 23.2479C491.665 24.5587 491.347 25.5137 490.71 26.113C490.111 26.7122 489.324 27.0118 488.351 27.0118H487.227ZM503.366 54.2585L505.051 52.5732H506.456C509.452 52.5732 510.95 51.2623 510.95 48.6407V19.4277H517.691V48.6407C517.691 51.2623 519.002 52.5732 521.624 52.5732H523.59V59.3146L521.905 61C518.834 61 516.493 60.4008 514.882 59.2023C513.272 57.9663 512.205 56.0375 511.68 53.4159H511.343C510.856 56.0375 509.995 57.9663 508.759 59.2023C507.523 60.4008 505.725 61 503.366 61V54.2585ZM521.909 54.2585L523.595 52.5732H525.28C528.276 52.5732 529.774 51.2623 529.774 48.6407V40.6071H535.954V48.6407C535.954 51.2623 537.265 52.5732 539.886 52.5732H542.134V59.3146L540.448 61C537.452 61 535.167 60.4008 533.594 59.2023C532.059 57.9663 531.029 56.0375 530.505 53.4159H530.167C529.643 56.0375 528.744 57.9663 527.471 59.2023C526.197 60.4008 524.344 61 521.909 61V54.2585ZM536.74 73.0784C535.767 73.0784 534.961 72.7788 534.325 72.1796C533.725 71.5803 533.426 70.6253 533.426 69.3145C533.426 68.0036 533.725 67.0486 534.325 66.4493C534.961 65.8501 535.767 65.5505 536.74 65.5505H537.864C538.838 65.5505 539.624 65.8501 540.223 66.4493C540.86 67.0486 541.179 68.0036 541.179 69.3145C541.179 70.6253 540.86 71.5803 540.223 72.1796C539.624 72.7788 538.838 73.0784 537.864 73.0784H536.74ZM527.864 73.0784C526.89 73.0784 526.085 72.7788 525.448 72.1796C524.849 71.5803 524.55 70.6253 524.55 69.3145C524.55 68.0036 524.849 67.0486 525.448 66.4493C526.085 65.8501 526.89 65.5505 527.864 65.5505H528.988C529.961 65.5505 530.748 65.8501 531.347 66.4493C531.984 67.0486 532.302 68.0036 532.302 69.3145C532.302 70.6253 531.984 71.5803 531.347 72.1796C530.748 72.7788 529.961 73.0784 528.988 73.0784H527.864ZM540.453 54.2585L542.138 52.5732H543.823C546.82 52.5732 548.318 51.2623 548.318 48.6407V40.6071H554.497V48.6407C554.497 51.2623 555.808 52.5732 558.43 52.5732H560.677V59.3146L558.992 61C555.995 61 553.711 60.4008 552.138 59.2023C550.602 57.9663 549.572 56.0375 549.048 53.4159H548.711C548.187 56.0375 547.288 57.9663 546.014 59.2023C544.741 60.4008 542.887 61 540.453 61V54.2585ZM550.846 73.0784C549.872 73.0784 549.067 72.7788 548.43 72.1796C547.831 71.5803 547.531 70.6253 547.531 69.3145C547.531 68.0036 547.831 67.0486 548.43 66.4493C549.067 65.8501 549.872 65.5505 550.846 65.5505H551.969C552.943 65.5505 553.729 65.8501 554.329 66.4493C554.965 67.0486 555.284 68.0036 555.284 69.3145C555.284 70.6253 554.965 71.5803 554.329 72.1796C553.729 72.7788 552.943 73.0784 551.969 73.0784H550.846ZM558.996 54.2585L560.681 52.5732H562.367C565.363 52.5732 566.861 51.2623 566.861 48.6407V40.6071H573.041V48.6407C573.041 51.2623 574.352 52.5732 576.973 52.5732H579.22V59.3146L577.535 61C574.539 61 572.254 60.4008 570.681 59.2023C569.146 57.9663 568.116 56.0375 567.591 53.4159H567.254C566.73 56.0375 565.831 57.9663 564.558 59.2023C563.284 60.4008 561.43 61 558.996 61V54.2585ZM573.827 36.1128C572.853 36.1128 572.048 35.8132 571.411 35.2139C570.812 34.6147 570.513 33.6597 570.513 32.3488C570.513 31.038 570.812 30.0829 571.411 29.4837C572.048 28.8845 572.853 28.5848 573.827 28.5848H574.951C575.925 28.5848 576.711 28.8845 577.31 29.4837C577.947 30.0829 578.265 31.038 578.265 32.3488C578.265 33.6597 577.947 34.6147 577.31 35.2139C576.711 35.8132 575.925 36.1128 574.951 36.1128H573.827ZM564.951 36.1128C563.977 36.1128 563.172 35.8132 562.535 35.2139C561.936 34.6147 561.636 33.6597 561.636 32.3488C561.636 31.038 561.936 30.0829 562.535 29.4837C563.172 28.8845 563.977 28.5848 564.951 28.5848H566.074C567.048 28.5848 567.835 28.8845 568.434 29.4837C569.071 30.0829 569.389 31.038 569.389 32.3488C569.389 33.6597 569.071 34.6147 568.434 35.2139C567.835 35.8132 567.048 36.1128 566.074 36.1128H564.951ZM577.539 54.2585L579.225 52.5732H580.854C582.202 52.5732 583.307 52.517 584.168 52.4046C585.067 52.2923 585.779 52.105 586.303 51.8429C586.865 51.5432 587.24 51.1874 587.427 50.7755C587.652 50.326 587.764 49.783 587.764 49.1463C587.764 48.5845 587.708 47.8729 587.595 47.0115C587.52 46.1126 587.352 44.9516 587.09 43.5284L586.135 38.3038L592.258 37.2926L593.101 42.5172C593.288 43.5284 593.438 44.652 593.55 45.8879C593.663 47.1238 593.719 48.21 593.719 49.1463C593.719 53.2286 592.708 56.2248 590.685 58.1349C588.7 60.045 585.423 61 580.854 61H577.539V54.2585ZM592.202 32.7983C591.228 32.7983 590.423 32.4986 589.786 31.8994C589.187 31.3002 588.887 30.3451 588.887 29.0343C588.887 27.7234 589.187 26.7684 589.786 26.1692C590.423 25.5699 591.228 25.2703 592.202 25.2703H593.326C594.299 25.2703 595.086 25.5699 595.685 26.1692C596.322 26.7684 596.64 27.7234 596.64 29.0343C596.64 30.3451 596.322 31.3002 595.685 31.8994C595.086 32.4986 594.299 32.7983 593.326 32.7983H592.202ZM583.326 32.7983C582.352 32.7983 581.547 32.4986 580.91 31.8994C580.311 31.3002 580.011 30.3451 580.011 29.0343C580.011 27.7234 580.311 26.7684 580.91 26.1692C581.547 25.5699 582.352 25.2703 583.326 25.2703H584.449C585.423 25.2703 586.21 25.5699 586.809 26.1692C587.446 26.7684 587.764 27.7234 587.764 29.0343C587.764 30.3451 587.446 31.3002 586.809 31.8994C586.21 32.4986 585.423 32.7983 584.449 32.7983H583.326Z" fill="white"/>
<path d="M339.851 123.771C338.952 123.771 338.128 123.571 337.379 123.171C336.68 122.822 336.006 122.347 335.357 121.748C334.458 120.899 333.459 119.776 332.361 118.377C331.262 116.979 330.113 115.481 328.915 113.883C327.766 112.235 326.668 110.637 325.619 109.089C324.62 107.491 323.771 106.093 323.072 104.895C322.723 104.895 322.323 104.87 321.874 104.82C321.424 104.77 321 104.695 320.6 104.595C319.851 104.345 319.477 104.096 319.477 103.846C319.477 103.646 319.627 103.496 319.926 103.396C320.226 103.297 320.551 103.222 320.9 103.172C322.548 102.922 324.545 102.572 326.892 102.123C329.239 101.624 331.636 100.974 334.083 100.176C336.58 99.3266 338.902 98.3528 341.05 97.2542C343.247 96.1057 345.019 94.7823 346.368 93.2842C347.716 91.7362 348.39 89.9884 348.39 88.0409C348.39 86.4929 347.941 85.1945 347.042 84.1458C346.143 83.0972 344.97 82.2482 343.521 81.5991C342.123 80.8999 340.6 80.3756 338.952 80.0261C337.304 79.6765 335.706 79.4518 334.158 79.3519C332.66 79.2021 331.387 79.1272 330.338 79.1272C327.741 79.1272 324.895 79.4268 321.799 80.0261C318.703 80.6253 315.657 81.3993 312.661 82.3481C309.664 83.2969 307.018 84.3456 304.721 85.4941C304.671 85.5441 304.571 85.594 304.421 85.6439C304.321 85.6939 304.221 85.7188 304.121 85.7188C303.822 85.7188 303.672 85.5191 303.672 85.1196C303.672 84.1209 304.221 83.247 305.32 82.4979C306.418 81.6989 307.842 80.9998 309.589 80.4006C311.387 79.8013 313.31 79.302 315.357 78.9025C317.405 78.453 319.402 78.1035 321.349 77.8538C323.347 77.6041 325.095 77.4293 326.593 77.3295C328.141 77.1797 329.239 77.1048 329.889 77.1048C331.287 77.1048 332.91 77.2046 334.758 77.4044C336.605 77.5542 338.478 77.8788 340.375 78.3781C342.323 78.8276 344.121 79.5017 345.769 80.4006C347.416 81.2994 348.74 82.448 349.739 83.8462C350.787 85.1945 351.312 86.8923 351.312 88.9398C351.312 91.4366 350.562 93.6088 349.064 95.4565C347.566 97.3041 345.619 98.8522 343.222 100.101C340.875 101.349 338.328 102.348 335.581 103.097C332.885 103.796 330.338 104.295 327.941 104.595C328.49 105.993 329.239 107.666 330.188 109.614C331.187 111.561 332.286 113.459 333.484 115.306C334.683 117.154 335.881 118.702 337.08 119.95C338.328 121.149 339.427 121.748 340.375 121.748C341.224 121.748 341.873 121.449 342.323 120.849C342.822 120.2 343.172 119.401 343.372 118.452C343.571 117.504 343.696 116.58 343.746 115.681C343.796 114.732 343.821 113.958 343.821 113.359V112.909C343.821 112.46 343.946 112.235 344.196 112.235C344.645 112.235 345.044 112.51 345.394 113.059C345.744 113.608 346.018 114.208 346.218 114.857C346.418 115.506 346.518 116.005 346.518 116.355C346.617 117.603 346.368 118.802 345.769 119.95C345.169 121.049 344.345 121.948 343.297 122.647C342.248 123.396 341.099 123.771 339.851 123.771ZM310.788 126.168C309.689 126.168 308.915 125.768 308.466 124.969C308.016 124.22 307.792 123.296 307.792 122.198C307.792 120.55 308.166 118.552 308.915 116.205C309.664 113.808 310.613 111.286 311.762 108.64C312.96 105.943 314.234 103.297 315.582 100.7C316.93 98.1031 318.203 95.7062 319.402 93.509C320.65 91.3117 321.674 89.539 322.473 88.1907C323.072 87.142 323.697 86.0185 324.346 84.82C324.995 83.5716 325.694 82.473 326.443 81.5242C326.693 81.1746 327.117 80.9499 327.716 80.85C328.316 80.7501 328.79 80.7002 329.14 80.7002C329.539 80.7002 329.989 80.8001 330.488 80.9998C330.987 81.1496 331.237 81.4992 331.237 82.0485V82.1983C331.237 82.8475 330.962 83.4967 330.413 84.1458C328.166 87.7912 325.919 91.2868 323.672 94.6325C321.474 97.9783 319.402 101.574 317.454 105.419C317.005 106.218 316.381 107.366 315.582 108.864C314.783 110.313 313.934 111.911 313.035 113.658C312.186 115.406 311.487 117.129 310.938 118.827C310.388 120.475 310.164 121.923 310.264 123.171C310.264 123.421 310.313 123.696 310.413 123.995C310.563 124.295 310.813 124.445 311.162 124.445C311.412 124.445 311.537 124.669 311.537 125.119C311.537 125.369 311.462 125.593 311.312 125.793C311.212 126.043 311.038 126.168 310.788 126.168ZM375.334 125.643C374.735 125.643 374.111 125.493 373.462 125.194C372.863 124.944 372.263 124.595 371.664 124.145C371.015 123.596 370.391 122.822 369.791 121.823C369.192 120.824 368.693 119.776 368.293 118.677L367.919 117.404C365.921 118.952 363.699 120.3 361.252 121.449C358.855 122.547 356.259 123.096 353.462 123.096C351.664 123.096 350.291 122.522 349.342 121.374C348.443 120.175 347.994 118.852 347.994 117.404C347.994 116.255 348.294 114.932 348.893 113.434C349.542 111.886 350.391 110.338 351.44 108.79C352.488 107.242 353.662 105.818 354.96 104.52C356.259 103.172 357.582 102.098 358.93 101.299C360.328 100.45 361.627 100.026 362.825 100.026C363.225 100.026 363.499 100.126 363.649 100.325C363.849 100.475 363.999 100.75 364.099 101.149C364.198 101.349 364.273 101.574 364.323 101.823C364.373 102.073 364.448 102.323 364.548 102.572C364.748 102.922 364.923 103.272 365.072 103.621C365.222 103.971 365.297 104.345 365.297 104.745C365.297 105.244 365.172 105.694 364.923 106.093C364.673 106.443 364.373 106.767 364.024 107.067C363.524 107.516 362.775 108.09 361.777 108.79C360.778 109.439 359.679 110.113 358.481 110.812C357.332 111.461 356.209 112.035 355.11 112.535C354.061 113.034 353.212 113.334 352.563 113.434C352.363 113.633 352.064 114.283 351.664 115.381C351.265 116.48 351.065 117.578 351.065 118.677C351.065 119.476 351.265 120.175 351.664 120.774C352.064 121.374 352.813 121.673 353.912 121.673C356.308 121.673 358.631 121.149 360.878 120.1C363.125 119.052 365.397 117.603 367.694 115.756V115.606C367.345 115.356 366.87 115.057 366.271 114.707C365.722 114.308 365.447 113.658 365.447 112.76C365.447 111.711 365.771 110.687 366.421 109.688C367.07 108.69 367.619 108.19 368.069 108.19C368.418 108.19 368.593 108.49 368.593 109.089C368.593 109.289 368.593 109.788 368.593 110.587C368.643 111.336 368.668 112.11 368.668 112.909C368.718 113.708 368.768 114.333 368.818 114.782C369.916 113.883 370.99 112.909 372.039 111.861C373.137 110.812 374.261 109.738 375.409 108.64L380.353 103.621C380.603 103.072 380.852 102.597 381.102 102.198C381.901 100.8 382.875 99.7011 384.023 98.9021C385.222 98.0532 386.495 97.6287 387.844 97.6287C388.842 97.6287 389.541 97.8035 389.941 98.1531C390.34 98.5026 390.54 98.9021 390.54 99.3516C390.54 99.801 390.34 100.225 389.941 100.625C389.591 100.974 389.067 101.149 388.368 101.149C387.269 101.099 386.246 101.124 385.297 101.224C384.398 101.324 383.749 101.674 383.349 102.273C382.95 102.922 382.55 104.021 382.151 105.569C381.801 107.067 381.452 108.765 381.102 110.662C380.802 112.56 380.503 114.407 380.203 116.205C381.252 116.005 382.251 115.756 383.199 115.456C384.198 115.107 385.272 114.532 386.42 113.733C387.569 112.934 388.892 111.761 390.39 110.213C390.64 109.913 390.89 109.763 391.139 109.763C391.289 109.763 391.364 109.863 391.364 110.063C391.364 110.163 391.314 110.338 391.214 110.587C391.114 110.837 390.915 111.162 390.615 111.561C390.016 112.36 389.267 113.159 388.368 113.958C387.519 114.707 386.77 115.281 386.121 115.681C384.772 116.48 383.499 116.979 382.301 117.179C381.102 117.329 380.328 117.429 379.978 117.479C379.779 118.527 379.604 119.401 379.454 120.1C379.304 120.749 379.204 121.224 379.155 121.523C378.905 122.972 378.405 124.02 377.656 124.669C376.957 125.319 376.183 125.643 375.334 125.643ZM353.837 111.486C354.336 111.187 355.085 110.712 356.084 110.063C357.132 109.414 358.206 108.69 359.305 107.891C360.403 107.092 361.327 106.293 362.076 105.494C362.875 104.695 363.275 103.996 363.275 103.396C363.275 103.097 363.15 102.947 362.9 102.947C362.251 102.947 361.477 103.297 360.578 103.996C359.679 104.695 358.78 105.544 357.882 106.542C356.983 107.491 356.159 108.44 355.41 109.389C354.711 110.288 354.186 110.987 353.837 111.486ZM377.057 116.205C377.157 115.756 377.357 114.582 377.656 112.685C378.006 110.737 378.53 108.69 379.229 106.542L376.383 109.389C375.584 110.188 374.685 111.112 373.686 112.16C372.688 113.209 371.539 114.308 370.241 115.456C371.789 115.856 373.087 116.105 374.136 116.205C375.235 116.255 376.208 116.255 377.057 116.205ZM374.211 122.048C374.61 122.048 375.01 121.773 375.409 121.224C375.859 120.625 376.283 119.526 376.683 117.928C376.683 117.778 376.708 117.678 376.758 117.628C375.559 117.578 374.386 117.504 373.237 117.404C372.138 117.254 371.09 117.004 370.091 116.655C369.891 116.505 369.716 116.43 369.567 116.43C369.417 116.43 369.342 116.505 369.342 116.655C369.342 116.705 369.342 116.804 369.342 116.954C369.392 117.054 369.442 117.179 369.492 117.329C369.891 118.128 370.366 118.952 370.915 119.801C371.464 120.6 372.088 121.174 372.788 121.523C373.037 121.673 373.287 121.798 373.537 121.898C373.786 121.998 374.011 122.048 374.211 122.048ZM394.438 124.445C393.539 124.445 392.765 124.145 392.116 123.546C391.517 122.947 391.042 122.223 390.693 121.374C390.393 120.475 390.243 119.626 390.243 118.827C390.243 118.028 390.343 117.254 390.543 116.505C390.743 115.706 391.017 114.932 391.367 114.183C392.016 112.735 392.79 111.137 393.689 109.389C394.638 107.591 395.637 105.768 396.685 103.921C397.784 102.023 398.882 100.3 399.981 98.7523C399.132 99.1019 398.133 99.5014 396.985 99.9508C395.886 100.35 395.162 100.55 394.813 100.55C394.613 100.5 394.463 100.35 394.363 100.101C394.313 99.8509 394.288 99.6012 394.288 99.3516C394.288 98.3029 394.788 97.6038 395.786 97.2542C397.334 96.7548 399.407 96.3054 402.003 95.9059C403.901 93.4091 405.948 90.9123 408.146 88.4154C410.393 85.9186 412.665 83.9461 414.962 82.4979C415.411 82.1983 415.911 82.3481 416.46 82.9474C417.009 83.4967 417.309 84.0709 417.359 84.6702C417.359 85.2195 417.159 85.594 416.76 85.7937C414.762 87.0422 412.915 88.4654 411.217 90.0633C409.519 91.6114 407.771 93.3841 405.973 95.3816C406.972 95.2318 407.846 95.1319 408.595 95.082C409.344 95.032 409.819 95.0071 410.018 95.0071C410.168 95.0071 410.418 95.0071 410.767 95.0071C411.117 94.9571 411.491 94.9322 411.891 94.9322C412.49 94.9322 413.039 94.9821 413.539 95.082C414.088 95.1818 414.363 95.3566 414.363 95.6063C414.363 95.806 414.138 95.9808 413.689 96.1306C413.289 96.2305 412.84 96.3054 412.34 96.3554C411.841 96.3554 411.466 96.3803 411.217 96.4303C409.719 96.63 408.37 96.8298 407.172 97.0295C406.023 97.2292 404.95 97.4789 403.951 97.7785C402.802 99.1768 401.904 100.35 401.254 101.299C400.655 102.248 400.131 103.122 399.681 103.921C399.282 104.67 398.783 105.519 398.183 106.468C396.885 108.964 395.761 111.511 394.813 114.108C393.914 116.705 393.464 118.802 393.464 120.4C393.464 120.65 393.489 120.849 393.539 120.999C393.589 121.149 393.739 121.224 393.989 121.224C394.288 121.224 394.563 121.149 394.813 120.999C395.112 120.799 395.362 120.6 395.562 120.4C396.261 119.851 396.91 119.226 397.509 118.527C398.158 117.778 398.783 117.079 399.382 116.43C400.48 115.231 401.604 114.058 402.753 112.909C403.901 111.761 405.025 110.612 406.123 109.464C406.223 109.364 406.323 109.289 406.423 109.239C406.523 109.139 406.623 109.089 406.723 109.089C407.072 109.089 407.247 109.289 407.247 109.688C407.247 109.838 407.147 110.063 406.947 110.363C406.348 111.162 405.699 111.961 405 112.76C404.301 113.509 403.626 114.283 402.977 115.082C401.679 116.63 400.381 118.153 399.082 119.651C397.834 121.149 396.585 122.697 395.337 124.295C395.187 124.345 395.037 124.37 394.888 124.37C394.738 124.42 394.588 124.445 394.438 124.445ZM417.597 123.171C417.147 123.171 416.623 122.972 416.024 122.572C415.474 122.173 415 121.723 414.6 121.224C414.201 120.675 414.001 120.175 414.001 119.726C414.001 118.977 414.276 117.978 414.825 116.73C415.374 115.431 415.999 114.158 416.698 112.909C417.447 111.661 418.021 110.737 418.421 110.138C417.721 110.737 416.823 111.711 415.724 113.059C414.675 114.358 413.527 115.756 412.278 117.254C411.08 118.702 409.906 119.95 408.758 120.999C407.659 122.048 406.71 122.572 405.911 122.572C404.813 122.572 403.914 122.198 403.215 121.449C402.566 120.65 402.241 119.701 402.241 118.602C402.241 117.104 402.666 115.506 403.514 113.808C404.363 112.06 405.462 110.388 406.81 108.79C408.209 107.142 409.707 105.644 411.305 104.295C412.952 102.947 414.55 101.873 416.099 101.074C417.696 100.275 419.12 99.8759 420.368 99.8759C421.716 99.8759 422.815 100.2 423.664 100.85C424.513 101.449 424.937 102.373 424.937 103.621C424.937 103.821 424.887 104.195 424.787 104.745C424.738 105.294 424.563 105.569 424.263 105.569C424.113 105.569 423.864 105.344 423.514 104.895C423.214 104.445 422.79 103.996 422.241 103.546C421.691 103.097 420.992 102.872 420.143 102.872C418.745 102.872 417.272 103.396 415.724 104.445C414.226 105.444 412.778 106.742 411.379 108.34C409.981 109.888 408.758 111.486 407.709 113.134C406.66 114.782 405.861 116.205 405.312 117.404C405.162 117.753 405.013 118.128 404.863 118.527C404.763 118.927 404.713 119.326 404.713 119.726C404.713 120.175 404.838 120.4 405.087 120.4C405.337 120.4 405.861 120.125 406.66 119.576C407.509 119.027 408.109 118.627 408.458 118.377C410.206 117.129 411.854 115.706 413.402 114.108C415 112.51 416.423 110.862 417.672 109.164C418.071 108.615 418.446 108.066 418.795 107.516C419.145 106.967 419.494 106.443 419.844 105.943C420.093 105.594 420.343 105.419 420.593 105.419C421.142 105.419 421.666 105.793 422.166 106.542C422.715 107.291 422.99 107.941 422.99 108.49C422.99 108.74 422.94 108.889 422.84 108.939C422.79 108.989 422.64 109.139 422.391 109.389C421.641 110.138 420.892 111.187 420.143 112.535C419.444 113.883 418.82 115.256 418.271 116.655C417.771 118.003 417.397 119.151 417.147 120.1C417.097 120.25 417.047 120.45 416.997 120.699C416.997 120.899 417.122 120.974 417.372 120.924C417.871 120.774 418.67 120.225 419.769 119.276C420.917 118.278 422.141 117.154 423.439 115.906C424.787 114.607 425.986 113.409 427.035 112.31C428.133 111.212 428.857 110.437 429.207 109.988C429.307 109.888 429.407 109.788 429.507 109.688C429.656 109.539 429.806 109.464 429.956 109.464C430.305 109.464 430.48 109.639 430.48 109.988C430.48 110.188 430.081 110.787 429.282 111.786C428.483 112.735 427.484 113.858 426.286 115.157C425.087 116.405 423.864 117.653 422.615 118.902C421.367 120.1 420.268 121.124 419.319 121.973C418.421 122.772 417.846 123.171 417.597 123.171ZM444.521 123.022C443.523 123.022 442.474 122.597 441.375 121.748C440.277 120.899 439.728 119.925 439.728 118.827C439.728 117.828 439.977 116.655 440.477 115.306C440.976 113.958 441.55 112.735 442.199 111.636C440.651 113.284 439.078 114.932 437.48 116.58C435.932 118.228 434.409 119.9 432.911 121.598C432.412 122.198 431.813 122.497 431.113 122.497C430.165 122.497 429.266 121.998 428.417 120.999C427.618 120 427.218 119.052 427.218 118.153C427.218 117.903 427.243 117.703 427.293 117.553C427.643 116.605 428.042 115.681 428.492 114.782C428.991 113.833 429.491 112.934 429.99 112.085C430.539 111.137 431.113 110.238 431.713 109.389C432.362 108.49 433.011 107.591 433.66 106.692C433.91 106.393 434.135 106.093 434.334 105.793C434.584 105.444 434.809 105.094 435.009 104.745C435.158 104.495 435.233 104.195 435.233 103.846C435.233 103.496 435.208 103.197 435.158 102.947C435.658 102.298 436.332 101.674 437.181 101.074C438.03 100.425 438.854 100.101 439.653 100.101C439.852 100.101 440.177 100.176 440.626 100.325C441.126 100.425 441.575 100.575 441.975 100.775C442.424 100.925 442.649 101.099 442.649 101.299C442.649 101.499 442.549 101.699 442.349 101.898C442.1 102.148 441.825 102.398 441.525 102.647C441.226 102.897 440.951 103.172 440.701 103.471C439.553 104.62 438.454 105.843 437.405 107.142C436.357 108.39 435.358 109.663 434.409 110.962C434.11 111.411 433.635 112.085 432.986 112.984C432.387 113.833 431.838 114.707 431.338 115.606C430.839 116.505 430.589 117.229 430.589 117.778C430.589 118.278 430.814 118.527 431.263 118.527C431.763 118.527 432.487 118.203 433.436 117.553C434.434 116.854 435.508 115.98 436.656 114.932C437.805 113.833 438.929 112.71 440.027 111.561C441.176 110.413 442.174 109.364 443.023 108.415C443.922 107.466 444.546 106.767 444.896 106.318C445.945 105.069 446.968 103.671 447.967 102.123C448.367 101.524 448.841 100.999 449.39 100.55C449.99 100.051 450.639 99.801 451.338 99.801C451.737 99.801 452.237 99.8509 452.836 99.9508C453.485 100.001 453.81 100.3 453.81 100.85C453.81 101.049 453.735 101.249 453.585 101.449C453.485 101.649 453.36 101.823 453.21 101.973C451.563 103.671 449.99 105.469 448.491 107.366C447.043 109.214 445.82 111.236 444.821 113.434C444.472 114.183 444.122 115.181 443.772 116.43C443.423 117.628 443.248 118.652 443.248 119.501C443.248 120.35 443.573 120.774 444.222 120.774C444.671 120.774 445.121 120.625 445.57 120.325C446.119 120.025 446.868 119.426 447.817 118.527C448.766 117.578 449.765 116.53 450.813 115.381C451.912 114.183 452.936 113.059 453.885 112.011C454.833 110.912 455.557 110.063 456.057 109.464C456.157 109.364 456.257 109.289 456.356 109.239C456.456 109.139 456.556 109.089 456.656 109.089C457.006 109.089 457.18 109.289 457.18 109.688C457.18 109.888 457.13 110.038 457.031 110.138C456.931 110.238 456.831 110.363 456.731 110.512C455.183 112.31 453.635 114.133 452.087 115.98C450.589 117.828 449.066 119.651 447.518 121.449C447.168 121.898 446.744 122.272 446.244 122.572C445.745 122.872 445.171 123.022 444.521 123.022ZM462.389 123.396C461.59 123.396 460.741 122.997 459.842 122.198C458.994 121.349 458.569 120.525 458.569 119.726C458.569 118.727 458.919 117.603 459.618 116.355C460.317 115.057 461.141 113.808 462.09 112.61C463.038 111.411 463.862 110.388 464.561 109.539C465.261 108.64 465.61 108.041 465.61 107.741V107.591C465.161 107.192 464.736 106.817 464.337 106.468C463.937 106.068 463.388 105.868 462.689 105.868C462.189 105.868 461.54 106.168 460.741 106.767C459.992 107.366 459.218 108.066 458.419 108.864C457.62 109.663 456.896 110.413 456.247 111.112C455.598 111.811 455.123 112.285 454.824 112.535C454.624 112.735 454.424 112.859 454.225 112.909C454.075 112.959 453.95 112.984 453.85 112.984C453.65 112.984 453.55 112.884 453.55 112.685C453.55 112.485 453.65 112.285 453.85 112.085C454.649 111.037 455.573 109.963 456.622 108.864C457.67 107.766 458.619 106.767 459.468 105.868C460.317 104.919 460.816 104.245 460.966 103.846C461.366 102.697 461.765 101.674 462.165 100.775C462.614 99.8759 463.313 99.027 464.262 98.228C464.661 97.8285 465.136 97.5039 465.685 97.2542C466.234 97.0045 466.784 96.8797 467.333 96.8797C467.832 96.8797 468.232 97.0295 468.531 97.3291C468.881 97.5788 469.056 97.9783 469.056 98.5276C469.056 99.1268 468.781 99.7261 468.232 100.325C467.732 100.925 467.133 101.499 466.434 102.048C465.735 102.548 465.111 102.997 464.561 103.396C464.062 103.796 463.837 104.121 463.887 104.37C464.187 104.57 464.761 104.82 465.61 105.119C466.509 105.419 467.133 105.569 467.483 105.569C467.882 105.569 468.257 105.494 468.606 105.344C468.956 105.194 469.305 105.119 469.655 105.119C470.154 105.119 470.654 105.269 471.153 105.569C471.652 105.868 471.902 106.318 471.902 106.917C471.902 107.416 471.702 107.891 471.303 108.34C470.953 108.74 470.579 109.089 470.179 109.389C469.58 109.838 468.781 110.512 467.782 111.411C466.784 112.31 465.76 113.309 464.711 114.407C463.713 115.506 462.839 116.605 462.09 117.703C461.391 118.752 461.041 119.676 461.041 120.475C461.041 120.675 461.091 120.874 461.191 121.074C461.241 121.124 461.341 121.149 461.49 121.149C462.489 121.149 463.613 120.699 464.861 119.801C466.11 118.902 467.358 117.803 468.606 116.505C469.905 115.206 471.103 113.933 472.202 112.685C473.35 111.386 474.324 110.388 475.123 109.688C475.223 109.589 475.348 109.489 475.498 109.389C475.647 109.289 475.797 109.239 475.947 109.239C476.197 109.239 476.322 109.414 476.322 109.763C476.322 109.963 475.972 110.462 475.273 111.261C474.624 112.06 473.775 113.009 472.726 114.108C471.677 115.206 470.579 116.33 469.43 117.479C468.332 118.627 467.308 119.651 466.359 120.55C465.41 121.399 464.736 121.998 464.337 122.347C463.787 122.797 463.388 123.071 463.138 123.171C462.889 123.321 462.639 123.396 462.389 123.396ZM486.723 123.171C486.273 123.171 485.749 122.972 485.15 122.572C484.601 122.173 484.126 121.723 483.727 121.224C483.327 120.675 483.127 120.175 483.127 119.726C483.127 118.977 483.402 117.978 483.951 116.73C484.501 115.431 485.125 114.158 485.824 112.909C486.573 111.661 487.147 110.737 487.547 110.138C486.848 110.737 485.949 111.711 484.85 113.059C483.802 114.358 482.653 115.756 481.405 117.254C480.206 118.702 479.033 119.95 477.884 120.999C476.785 122.048 475.837 122.572 475.038 122.572C473.939 122.572 473.04 122.198 472.341 121.449C471.692 120.65 471.367 119.701 471.367 118.602C471.367 117.104 471.792 115.506 472.641 113.808C473.49 112.06 474.588 110.388 475.936 108.79C477.335 107.142 478.833 105.644 480.431 104.295C482.079 102.947 483.677 101.873 485.225 101.074C486.823 100.275 488.246 99.8759 489.494 99.8759C490.843 99.8759 491.941 100.2 492.79 100.85C493.639 101.449 494.064 102.373 494.064 103.621C494.064 103.821 494.014 104.195 493.914 104.745C493.864 105.294 493.689 105.569 493.389 105.569C493.24 105.569 492.99 105.344 492.64 104.895C492.341 104.445 491.916 103.996 491.367 103.546C490.818 103.097 490.119 102.872 489.27 102.872C487.871 102.872 486.398 103.396 484.85 104.445C483.352 105.444 481.904 106.742 480.506 108.34C479.107 109.888 477.884 111.486 476.835 113.134C475.787 114.782 474.988 116.205 474.438 117.404C474.289 117.753 474.139 118.128 473.989 118.527C473.889 118.927 473.839 119.326 473.839 119.726C473.839 120.175 473.964 120.4 474.214 120.4C474.463 120.4 474.988 120.125 475.787 119.576C476.636 119.027 477.235 118.627 477.584 118.377C479.332 117.129 480.98 115.706 482.528 114.108C484.126 112.51 485.549 110.862 486.798 109.164C487.197 108.615 487.572 108.066 487.921 107.516C488.271 106.967 488.62 106.443 488.97 105.943C489.22 105.594 489.469 105.419 489.719 105.419C490.268 105.419 490.793 105.793 491.292 106.542C491.841 107.291 492.116 107.941 492.116 108.49C492.116 108.74 492.066 108.889 491.966 108.939C491.916 108.989 491.766 109.139 491.517 109.389C490.768 110.138 490.019 111.187 489.27 112.535C488.57 113.883 487.946 115.256 487.397 116.655C486.898 118.003 486.523 119.151 486.273 120.1C486.223 120.25 486.174 120.45 486.124 120.699C486.124 120.899 486.248 120.974 486.498 120.924C486.997 120.774 487.796 120.225 488.895 119.276C490.044 118.278 491.267 117.154 492.565 115.906C493.914 114.607 495.112 113.409 496.161 112.31C497.259 111.212 497.984 110.437 498.333 109.988C498.433 109.888 498.533 109.788 498.633 109.688C498.783 109.539 498.932 109.464 499.082 109.464C499.432 109.464 499.606 109.639 499.606 109.988C499.606 110.188 499.207 110.787 498.408 111.786C497.609 112.735 496.61 113.858 495.412 115.157C494.213 116.405 492.99 117.653 491.741 118.902C490.493 120.1 489.394 121.124 488.446 121.973C487.547 122.772 486.973 123.171 486.723 123.171ZM511.775 123.321C511.026 123.321 510.177 123.096 509.228 122.647C508.329 122.248 507.88 121.598 507.88 120.699C507.88 119.651 508.279 118.402 509.078 116.954C509.877 115.506 510.826 114.008 511.925 112.46C513.023 110.862 514.072 109.339 515.071 107.891C516.12 106.443 516.869 105.219 517.318 104.22C517.018 104.37 516.519 104.67 515.82 105.119C515.171 105.519 514.522 105.943 513.872 106.393C513.223 106.792 512.749 107.117 512.449 107.366C510.302 108.964 508.429 110.612 506.831 112.31C505.283 114.008 503.71 115.956 502.112 118.153C501.713 118.752 501.288 119.376 500.839 120.025C500.439 120.675 500.015 121.299 499.566 121.898C499.366 122.148 499.016 122.397 498.517 122.647C498.067 122.897 497.643 123.022 497.243 123.022C496.594 123.022 496.27 122.672 496.27 121.973C496.27 121.374 496.569 120.45 497.169 119.201C497.818 117.953 498.617 116.53 499.566 114.932C500.514 113.334 501.513 111.761 502.562 110.213C503.61 108.615 504.559 107.192 505.408 105.943C506.257 104.645 506.856 103.721 507.206 103.172C507.106 103.322 506.831 103.596 506.382 103.996C505.932 104.345 505.483 104.72 505.034 105.119C504.634 105.469 504.334 105.718 504.135 105.868C503.186 106.767 502.262 107.691 501.363 108.64C500.464 109.589 499.566 110.537 498.667 111.486C498.567 111.586 498.367 111.736 498.067 111.936C497.818 112.135 497.593 112.235 497.393 112.235C497.144 112.235 497.019 112.11 497.019 111.861C497.019 111.611 497.368 111.087 498.067 110.288C498.767 109.489 499.64 108.54 500.689 107.441C501.738 106.343 502.811 105.219 503.91 104.071C505.059 102.922 506.057 101.898 506.906 100.999C507.755 100.101 508.329 99.4764 508.629 99.1268C509.128 98.4777 509.653 97.9533 510.202 97.5538C510.801 97.1543 511.5 96.9546 512.299 96.9546C512.749 96.9546 513.298 97.1793 513.947 97.6287C514.596 98.0282 514.921 98.5026 514.921 99.0519C514.921 99.2517 514.871 99.3765 514.771 99.4265C513.273 100.675 511.8 102.148 510.352 103.846C508.954 105.544 507.63 107.291 506.382 109.089C505.133 110.887 503.985 112.56 502.936 114.108C504.135 112.76 505.483 111.436 506.981 110.138C508.479 108.79 509.927 107.541 511.326 106.393L516.644 102.048C516.993 101.749 517.343 101.424 517.693 101.074C518.092 100.725 518.467 100.425 518.816 100.176C519.216 99.9258 519.64 99.826 520.09 99.8759C520.589 99.8759 521.088 99.8759 521.588 99.8759C522.137 99.8759 522.661 100.026 523.161 100.325C523.71 100.625 523.985 101.099 523.985 101.749C523.985 102.398 523.81 102.897 523.46 103.247C523.161 103.546 522.811 103.896 522.412 104.295C521.563 105.094 520.514 106.143 519.266 107.441C518.067 108.74 516.869 110.138 515.67 111.636C514.472 113.134 513.473 114.657 512.674 116.205C511.875 117.703 511.475 119.102 511.475 120.4C511.475 120.55 511.475 120.699 511.475 120.849C511.475 120.999 511.5 121.149 511.55 121.299C512.599 120.899 513.748 120.25 514.996 119.351C516.294 118.402 517.593 117.354 518.891 116.205C520.189 115.057 521.388 113.908 522.486 112.76C523.635 111.611 524.584 110.587 525.333 109.688C525.433 109.589 525.533 109.464 525.632 109.314C525.782 109.164 525.957 109.089 526.157 109.089C526.407 109.089 526.531 109.264 526.531 109.614C526.531 109.813 526.456 110.038 526.307 110.288C525.358 111.536 524.084 113.009 522.486 114.707C520.889 116.405 519.241 118.028 517.543 119.576C515.845 121.074 514.322 122.223 512.974 123.022C512.624 123.221 512.224 123.321 511.775 123.321ZM528.96 124.445C528.061 124.445 527.287 124.145 526.638 123.546C526.039 122.947 525.564 122.223 525.215 121.374C524.915 120.475 524.765 119.626 524.765 118.827C524.765 118.028 524.865 117.254 525.065 116.505C525.265 115.706 525.539 114.932 525.889 114.183C526.538 112.735 527.312 111.137 528.211 109.389C529.16 107.591 530.158 105.768 531.207 103.921C532.306 102.023 533.404 100.3 534.503 98.7523C533.654 99.1019 532.655 99.5014 531.507 99.9508C530.408 100.35 529.684 100.55 529.334 100.55C529.135 100.5 528.985 100.35 528.885 100.101C528.835 99.8509 528.81 99.6012 528.81 99.3516C528.81 98.3029 529.309 97.6038 530.308 97.2542C531.856 96.7548 533.929 96.3054 536.525 95.9059C538.423 93.4091 540.47 90.9123 542.668 88.4154C544.915 85.9186 547.187 83.9461 549.484 82.4979C549.933 82.1983 550.433 82.3481 550.982 82.9474C551.531 83.4967 551.831 84.0709 551.881 84.6702C551.881 85.2195 551.681 85.594 551.282 85.7937C549.284 87.0422 547.436 88.4654 545.739 90.0633C544.041 91.6114 542.293 93.3841 540.495 95.3816C541.494 95.2318 542.368 95.1319 543.117 95.082C543.866 95.032 544.34 95.0071 544.54 95.0071C544.69 95.0071 544.94 95.0071 545.289 95.0071C545.639 94.9571 546.013 94.9322 546.413 94.9322C547.012 94.9322 547.561 94.9821 548.061 95.082C548.61 95.1818 548.885 95.3566 548.885 95.6063C548.885 95.806 548.66 95.9808 548.211 96.1306C547.811 96.2305 547.362 96.3054 546.862 96.3554C546.363 96.3554 545.988 96.3803 545.739 96.4303C544.241 96.63 542.892 96.8298 541.694 97.0295C540.545 97.2292 539.472 97.4789 538.473 97.7785C537.324 99.1768 536.425 100.35 535.776 101.299C535.177 102.248 534.653 103.122 534.203 103.921C533.804 104.67 533.304 105.519 532.705 106.468C531.407 108.964 530.283 111.511 529.334 114.108C528.436 116.705 527.986 118.802 527.986 120.4C527.986 120.65 528.011 120.849 528.061 120.999C528.111 121.149 528.261 121.224 528.51 121.224C528.81 121.224 529.085 121.149 529.334 120.999C529.634 120.799 529.884 120.6 530.083 120.4C530.783 119.851 531.432 119.226 532.031 118.527C532.68 117.778 533.304 117.079 533.904 116.43C535.002 115.231 536.126 114.058 537.274 112.909C538.423 111.761 539.546 110.612 540.645 109.464C540.745 109.364 540.845 109.289 540.945 109.239C541.045 109.139 541.144 109.089 541.244 109.089C541.594 109.089 541.769 109.289 541.769 109.688C541.769 109.838 541.669 110.063 541.469 110.363C540.87 111.162 540.221 111.961 539.522 112.76C538.822 113.509 538.148 114.283 537.499 115.082C536.201 116.63 534.902 118.153 533.604 119.651C532.356 121.149 531.107 122.697 529.859 124.295C529.709 124.345 529.559 124.37 529.409 124.37C529.26 124.42 529.11 124.445 528.96 124.445Z" fill="#ECC243"/>
</svg>
