<svg width="213" height="43" viewBox="0 0 213 43" fill="none" xmlns="http://www.w3.org/2000/svg">
<path d="M31.2618 40.5432C30.4938 40.5432 29.7898 40.3725 29.1498 40.0312C28.5524 39.7325 27.9764 39.3272 27.4218 38.8152C26.6538 38.0899 25.8004 37.1299 24.8618 35.9352C23.9231 34.7405 22.9418 33.4605 21.9178 32.0952C20.9364 30.6872 19.9978 29.3219 19.1018 27.9992C18.2484 26.6339 17.5231 25.4392 16.9258 24.4152C16.6271 24.4152 16.2858 24.3939 15.9018 24.3512C15.5178 24.3085 15.1551 24.2445 14.8138 24.1592C14.1738 23.9459 13.8538 23.7325 13.8538 23.5192C13.8538 23.3485 13.9818 23.2205 14.2378 23.1352C14.4938 23.0499 14.7711 22.9859 15.0698 22.9432C16.4778 22.7299 18.1844 22.4312 20.1898 22.0472C22.1951 21.6205 24.2431 21.0659 26.3338 20.3832C28.4671 19.6579 30.4511 18.8259 32.2858 17.8872C34.1631 16.9059 35.6778 15.7752 36.8298 14.4952C37.9818 13.1725 38.5578 11.6792 38.5578 10.0152C38.5578 8.69253 38.1738 7.5832 37.4058 6.6872C36.6377 5.7912 35.6351 5.06586 34.3978 4.5112C33.2031 3.91387 31.9018 3.46587 30.4938 3.1672C29.0858 2.86853 27.7204 2.67653 26.3978 2.5912C25.1178 2.4632 24.0298 2.3992 23.1338 2.3992C20.9151 2.3992 18.4831 2.6552 15.8378 3.1672C13.1924 3.6792 10.5898 4.34053 8.02975 5.1512C5.46975 5.96187 3.20842 6.85787 1.24575 7.8392C1.20308 7.88187 1.11775 7.92453 0.98975 7.9672C0.904417 8.00987 0.819083 8.0312 0.73375 8.0312C0.47775 8.0312 0.34975 7.86053 0.34975 7.5192C0.34975 6.66586 0.819083 5.9192 1.75775 5.2792C2.69642 4.59653 3.91242 3.9992 5.40575 3.4872C6.94175 2.9752 8.58442 2.54853 10.3338 2.2072C12.0831 1.8232 13.7898 1.52453 15.4538 1.3112C17.1604 1.09787 18.6538 0.948532 19.9338 0.863197C21.2564 0.735199 22.1951 0.6712 22.7498 0.6712C23.9444 0.6712 25.3311 0.756532 26.9098 0.927197C28.4884 1.0552 30.0884 1.33253 31.7098 1.7592C33.3738 2.1432 34.9098 2.7192 36.3178 3.4872C37.7258 4.2552 38.8564 5.23653 39.7098 6.4312C40.6058 7.5832 41.0538 9.03387 41.0538 10.7832C41.0538 12.9165 40.4138 14.7725 39.1338 16.3512C37.8538 17.9299 36.1898 19.2525 34.1418 20.3192C32.1364 21.3859 29.9604 22.2392 27.6138 22.8792C25.3098 23.4765 23.1338 23.9032 21.0858 24.1592C21.5551 25.3539 22.1951 26.7832 23.0058 28.4472C23.8591 30.1112 24.7978 31.7325 25.8218 33.3112C26.8458 34.8899 27.8698 36.2125 28.8938 37.2792C29.9604 38.3032 30.8991 38.8152 31.7098 38.8152C32.4351 38.8152 32.9898 38.5592 33.3738 38.0472C33.8004 37.4925 34.0991 36.8099 34.2698 35.9992C34.4404 35.1885 34.5471 34.3992 34.5898 33.6312C34.6324 32.8205 34.6538 32.1592 34.6538 31.6472V31.2632C34.6538 30.8792 34.7604 30.6872 34.9738 30.6872C35.3578 30.6872 35.6991 30.9219 35.9978 31.3912C36.2964 31.8605 36.5311 32.3725 36.7018 32.9272C36.8724 33.4819 36.9578 33.9085 36.9578 34.2072C37.0431 35.2739 36.8298 36.2979 36.3178 37.2792C35.8058 38.2179 35.1018 38.9859 34.2058 39.5832C33.3098 40.2232 32.3284 40.5432 31.2618 40.5432ZM6.42975 42.5912C5.49108 42.5912 4.82975 42.2499 4.44575 41.5672C4.06175 40.9272 3.86975 40.1379 3.86975 39.1992C3.86975 37.7912 4.18975 36.0845 4.82975 34.0792C5.46975 32.0312 6.28042 29.8765 7.26175 27.6152C8.28575 25.3112 9.37375 23.0499 10.5258 20.8312C11.6778 18.6125 12.7658 16.5645 13.7898 14.6872C14.8564 12.8099 15.7311 11.2952 16.4138 10.1432C16.9258 9.2472 17.4591 8.2872 18.0138 7.2632C18.5684 6.19653 19.1658 5.25787 19.8058 4.4472C20.0191 4.14853 20.3818 3.95653 20.8938 3.8712C21.4058 3.78586 21.8111 3.7432 22.1098 3.7432C22.4511 3.7432 22.8351 3.82853 23.2618 3.9992C23.6884 4.1272 23.9018 4.42587 23.9018 4.8952V5.0232C23.9018 5.57786 23.6671 6.13253 23.1978 6.6872C21.2778 9.80187 19.3578 12.7885 17.4378 15.6472C15.5604 18.5059 13.7898 21.5779 12.1258 24.8632C11.7418 25.5459 11.2084 26.5272 10.5258 27.8072C9.84308 29.0445 9.11775 30.4099 8.34975 31.9032C7.62442 33.3965 7.02708 34.8685 6.55775 36.3192C6.08842 37.7272 5.89642 38.9645 5.98175 40.0312C5.98175 40.2445 6.02442 40.4792 6.10975 40.7352C6.23775 40.9912 6.45108 41.1192 6.74975 41.1192C6.96308 41.1192 7.06975 41.3112 7.06975 41.6952C7.06975 41.9085 7.00575 42.1005 6.87775 42.2712C6.79242 42.4845 6.64308 42.5912 6.42975 42.5912ZM61.5793 42.1432C61.0673 42.1432 60.5339 42.0152 59.9793 41.7592C59.4673 41.5459 58.9553 41.2472 58.4433 40.8632C57.8886 40.3939 57.3553 39.7325 56.8433 38.8792C56.3313 38.0259 55.9046 37.1299 55.5633 36.1912L55.2433 35.1032C53.5366 36.4259 51.6379 37.5779 49.5473 38.5592C47.4993 39.4979 45.2806 39.9672 42.8913 39.9672C41.3553 39.9672 40.1819 39.4765 39.3713 38.4952C38.6033 37.4712 38.2193 36.3405 38.2193 35.1032C38.2193 34.1219 38.4753 32.9912 38.9873 31.7112C39.5419 30.3885 40.2673 29.0659 41.1633 27.7432C42.0593 26.4205 43.0619 25.2045 44.1713 24.0952C45.2806 22.9432 46.4113 22.0259 47.5633 21.3432C48.7579 20.6179 49.8673 20.2552 50.8913 20.2552C51.2326 20.2552 51.4673 20.3405 51.5953 20.5112C51.7659 20.6392 51.8939 20.8739 51.9792 21.2152C52.0646 21.3859 52.1286 21.5779 52.1713 21.7912C52.2139 22.0045 52.2779 22.2179 52.3633 22.4312C52.5339 22.7299 52.6833 23.0285 52.8113 23.3272C52.9393 23.6259 53.0033 23.9459 53.0033 24.2872C53.0033 24.7139 52.8966 25.0979 52.6833 25.4392C52.4699 25.7379 52.2139 26.0152 51.9153 26.2712C51.4886 26.6552 50.8486 27.1459 49.9953 27.7432C49.1419 28.2979 48.2033 28.8739 47.1793 29.4712C46.1979 30.0259 45.2379 30.5165 44.2993 30.9432C43.4033 31.3699 42.6779 31.6259 42.1233 31.7112C41.9526 31.8819 41.6966 32.4365 41.3553 33.3752C41.0139 34.3139 40.8433 35.2525 40.8433 36.1912C40.8433 36.8739 41.0139 37.4712 41.3553 37.9832C41.6966 38.4952 42.3366 38.7512 43.2753 38.7512C45.3233 38.7512 47.3073 38.3032 49.2273 37.4072C51.1473 36.5112 53.0886 35.2739 55.0513 33.6952V33.5672C54.7526 33.3539 54.3473 33.0979 53.8353 32.7992C53.3659 32.4579 53.1313 31.9032 53.1313 31.1352C53.1313 30.2392 53.4086 29.3645 53.9633 28.5112C54.5179 27.6579 54.9873 27.2312 55.3713 27.2312C55.6699 27.2312 55.8193 27.4872 55.8193 27.9992C55.8193 28.1699 55.8193 28.5965 55.8193 29.2792C55.8619 29.9192 55.8833 30.5805 55.8833 31.2632C55.9259 31.9459 55.9686 32.4792 56.0113 32.8632C56.9499 32.0952 57.8673 31.2632 58.7633 30.3672C59.7019 29.4712 60.6619 28.5539 61.6433 27.6152L65.8673 23.3272C66.0806 22.8579 66.2939 22.4525 66.5073 22.1112C67.1899 20.9165 68.0219 19.9779 69.0033 19.2952C70.0273 18.5699 71.1153 18.2072 72.2673 18.2072C73.1206 18.2072 73.7179 18.3565 74.0593 18.6552C74.4006 18.9539 74.5713 19.2952 74.5713 19.6792C74.5713 20.0632 74.4006 20.4259 74.0593 20.7672C73.7606 21.0659 73.3126 21.2152 72.7153 21.2152C71.7766 21.1725 70.9019 21.1939 70.0913 21.2792C69.3233 21.3645 68.7686 21.6632 68.4272 22.1752C68.0859 22.7299 67.7446 23.6685 67.4033 24.9912C67.1046 26.2712 66.8059 27.7219 66.5073 29.3432C66.2513 30.9645 65.9953 32.5432 65.7393 34.0792C66.6353 33.9085 67.4886 33.6952 68.2993 33.4392C69.1526 33.1405 70.0699 32.6499 71.0513 31.9672C72.0326 31.2845 73.1633 30.2819 74.4433 28.9592C74.6566 28.7032 74.8699 28.5752 75.0833 28.5752C75.2113 28.5752 75.2753 28.6605 75.2753 28.8312C75.2753 28.9165 75.2326 29.0659 75.1473 29.2792C75.0619 29.4925 74.8913 29.7699 74.6353 30.1112C74.1233 30.7939 73.4833 31.4765 72.7153 32.1592C71.9899 32.7992 71.3499 33.2899 70.7952 33.6312C69.6433 34.3139 68.5553 34.7405 67.5312 34.9112C66.5073 35.0392 65.8459 35.1245 65.5473 35.1672C65.3766 36.0632 65.2273 36.8099 65.0993 37.4072C64.9713 37.9619 64.8859 38.3672 64.8433 38.6232C64.6299 39.8605 64.2033 40.7565 63.5633 41.3112C62.9659 41.8659 62.3046 42.1432 61.5793 42.1432ZM43.2113 30.0472C43.6379 29.7912 44.2779 29.3859 45.1313 28.8312C46.0273 28.2765 46.9446 27.6579 47.8833 26.9752C48.8219 26.2925 49.6113 25.6099 50.2513 24.9272C50.9339 24.2445 51.2753 23.6472 51.2753 23.1352C51.2753 22.8792 51.1686 22.7512 50.9553 22.7512C50.4006 22.7512 49.7393 23.0499 48.9713 23.6472C48.2033 24.2445 47.4353 24.9699 46.6673 25.8232C45.8993 26.6339 45.1953 27.4445 44.5553 28.2552C43.9579 29.0232 43.5099 29.6205 43.2113 30.0472ZM63.0513 34.0792C63.1366 33.6952 63.3073 32.6925 63.5633 31.0712C63.8619 29.4072 64.3099 27.6579 64.9073 25.8232L62.4753 28.2552C61.7926 28.9379 61.0246 29.7272 60.1713 30.6232C59.3179 31.5192 58.3366 32.4579 57.2273 33.4392C58.5499 33.7805 59.6593 33.9939 60.5553 34.0792C61.4939 34.1219 62.3259 34.1219 63.0513 34.0792ZM60.6193 39.0712C60.9606 39.0712 61.3019 38.8365 61.6433 38.3672C62.0273 37.8552 62.3899 36.9165 62.7313 35.5512C62.7313 35.4232 62.7526 35.3379 62.7953 35.2952C61.7713 35.2525 60.7686 35.1885 59.7873 35.1032C58.8486 34.9752 57.9526 34.7619 57.0993 34.4632C56.9286 34.3352 56.7793 34.2712 56.6513 34.2712C56.5233 34.2712 56.4593 34.3352 56.4593 34.4632C56.4593 34.5059 56.4593 34.5912 56.4593 34.7192C56.5019 34.8045 56.5446 34.9112 56.5873 35.0392C56.9286 35.7219 57.3339 36.4259 57.8033 37.1512C58.2726 37.8339 58.8059 38.3245 59.4033 38.6232C59.6166 38.7512 59.8299 38.8579 60.0433 38.9432C60.2566 39.0285 60.4486 39.0712 60.6193 39.0712ZM77.9018 41.1192C77.1338 41.1192 76.4724 40.8632 75.9178 40.3512C75.4058 39.8392 75.0004 39.2205 74.7018 38.4952C74.4458 37.7272 74.3177 37.0019 74.3177 36.3192C74.3177 35.6365 74.4031 34.9752 74.5738 34.3352C74.7444 33.6525 74.9791 32.9912 75.2778 32.3512C75.8324 31.1139 76.4938 29.7485 77.2618 28.2552C78.0724 26.7192 78.9258 25.1619 79.8218 23.5832C80.7604 21.9619 81.6991 20.4899 82.6378 19.1672C81.9124 19.4659 81.0591 19.8072 80.0778 20.1912C79.1391 20.5325 78.5204 20.7032 78.2218 20.7032C78.0511 20.6605 77.9231 20.5325 77.8378 20.3192C77.7951 20.1059 77.7738 19.8925 77.7738 19.6792C77.7738 18.7832 78.2004 18.1859 79.0538 17.8872C80.3764 17.4605 82.1471 17.0765 84.3658 16.7352C85.9871 14.6019 87.7364 12.4685 89.6138 10.3352C91.5338 8.20187 93.4751 6.51653 95.4378 5.2792C95.8218 5.0232 96.2484 5.1512 96.7178 5.6632C97.1871 6.13253 97.4431 6.6232 97.4858 7.1352C97.4858 7.60453 97.3151 7.92453 96.9738 8.0952C95.2671 9.16187 93.6884 10.3779 92.2378 11.7432C90.7871 13.0659 89.2938 14.5805 87.7578 16.2872C88.6111 16.1592 89.3578 16.0739 89.9978 16.0312C90.6378 15.9885 91.0431 15.9672 91.2138 15.9672C91.3418 15.9672 91.5551 15.9672 91.8538 15.9672C92.1524 15.9245 92.4724 15.9032 92.8138 15.9032C93.3258 15.9032 93.7951 15.9459 94.2218 16.0312C94.6911 16.1165 94.9258 16.2659 94.9258 16.4792C94.9258 16.6499 94.7338 16.7992 94.3498 16.9272C94.0084 17.0125 93.6244 17.0765 93.1978 17.1192C92.7711 17.1192 92.4511 17.1405 92.2378 17.1832C90.9578 17.3539 89.8058 17.5245 88.7818 17.6952C87.8004 17.8659 86.8831 18.0792 86.0298 18.3352C85.0484 19.5299 84.2804 20.5325 83.7258 21.3432C83.2138 22.1539 82.7658 22.9005 82.3818 23.5832C82.0404 24.2232 81.6138 24.9485 81.1018 25.7592C79.9924 27.8925 79.0324 30.0685 78.2218 32.2872C77.4538 34.5059 77.0698 36.2979 77.0698 37.6632C77.0698 37.8765 77.0911 38.0472 77.1338 38.1752C77.1764 38.3032 77.3044 38.3672 77.5178 38.3672C77.7738 38.3672 78.0084 38.3032 78.2218 38.1752C78.4778 38.0045 78.6911 37.8339 78.8618 37.6632C79.4591 37.1939 80.0138 36.6605 80.5258 36.0632C81.0804 35.4232 81.6138 34.8259 82.1258 34.2712C83.0644 33.2472 84.0244 32.2445 85.0058 31.2632C85.9871 30.2819 86.9471 29.3005 87.8858 28.3192C87.9711 28.2339 88.0564 28.1699 88.1418 28.1272C88.2271 28.0419 88.3124 27.9992 88.3978 27.9992C88.6964 27.9992 88.8458 28.1699 88.8458 28.5112C88.8458 28.6392 88.7604 28.8312 88.5898 29.0872C88.0778 29.7699 87.5231 30.4525 86.9258 31.1352C86.3284 31.7752 85.7524 32.4365 85.1978 33.1192C84.0884 34.4419 82.9791 35.7432 81.8698 37.0232C80.8031 38.3032 79.7364 39.6259 78.6698 40.9912C78.5418 41.0339 78.4138 41.0552 78.2858 41.0552C78.1578 41.0979 78.0298 41.1192 77.9018 41.1192ZM97.6888 40.0312C97.3048 40.0312 96.8568 39.8605 96.3448 39.5192C95.8754 39.1779 95.4701 38.7939 95.1288 38.3672C94.7874 37.8979 94.6168 37.4712 94.6168 37.0872C94.6168 36.4472 94.8514 35.5939 95.3208 34.5272C95.7901 33.4179 96.3234 32.3299 96.9208 31.2632C97.5608 30.1965 98.0514 29.4072 98.3928 28.8952C97.7954 29.4072 97.0274 30.2392 96.0888 31.3912C95.1928 32.5005 94.2114 33.6952 93.1448 34.9752C92.1208 36.2125 91.1181 37.2792 90.1368 38.1752C89.1981 39.0712 88.3874 39.5192 87.7048 39.5192C86.7661 39.5192 85.9981 39.1992 85.4008 38.5592C84.8461 37.8765 84.5688 37.0659 84.5688 36.1272C84.5688 34.8472 84.9314 33.4819 85.6568 32.0312C86.3821 30.5379 87.3208 29.1085 88.4728 27.7432C89.6674 26.3352 90.9474 25.0552 92.3128 23.9032C93.7208 22.7512 95.0861 21.8339 96.4088 21.1512C97.7741 20.4685 98.9901 20.1272 100.057 20.1272C101.209 20.1272 102.147 20.4045 102.873 20.9592C103.598 21.4712 103.961 22.2605 103.961 23.3272C103.961 23.4979 103.918 23.8179 103.833 24.2872C103.79 24.7565 103.641 24.9912 103.385 24.9912C103.257 24.9912 103.043 24.7992 102.745 24.4152C102.489 24.0312 102.126 23.6472 101.657 23.2632C101.187 22.8792 100.59 22.6872 99.8647 22.6872C98.6701 22.6872 97.4114 23.1352 96.0888 24.0312C94.8088 24.8845 93.5714 25.9939 92.3767 27.3592C91.1821 28.6819 90.1368 30.0472 89.2408 31.4552C88.3448 32.8632 87.6621 34.0792 87.1927 35.1032C87.0648 35.4019 86.9368 35.7219 86.8088 36.0632C86.7234 36.4045 86.6808 36.7459 86.6808 37.0872C86.6808 37.4712 86.7874 37.6632 87.0008 37.6632C87.2141 37.6632 87.6621 37.4285 88.3448 36.9592C89.0701 36.4899 89.5821 36.1485 89.8808 35.9352C91.3741 34.8685 92.7821 33.6525 94.1048 32.2872C95.4701 30.9219 96.6861 29.5139 97.7528 28.0632C98.0941 27.5939 98.4141 27.1245 98.7128 26.6552C99.0114 26.1859 99.3101 25.7379 99.6088 25.3112C99.8221 25.0125 100.035 24.8632 100.249 24.8632C100.718 24.8632 101.166 25.1832 101.593 25.8232C102.062 26.4632 102.297 27.0179 102.297 27.4872C102.297 27.7005 102.254 27.8285 102.169 27.8712C102.126 27.9139 101.998 28.0419 101.785 28.2552C101.145 28.8952 100.505 29.7912 99.8647 30.9432C99.2674 32.0952 98.7341 33.2685 98.2648 34.4632C97.8381 35.6152 97.5181 36.5965 97.3048 37.4072C97.2621 37.5352 97.2194 37.7059 97.1768 37.9192C97.1768 38.0899 97.2834 38.1539 97.4968 38.1112C97.9234 37.9832 98.6061 37.5139 99.5448 36.7032C100.526 35.8499 101.571 34.8899 102.681 33.8232C103.833 32.7139 104.857 31.6899 105.753 30.7512C106.691 29.8125 107.31 29.1512 107.609 28.7672C107.694 28.6819 107.779 28.5965 107.865 28.5112C107.993 28.3832 108.121 28.3192 108.249 28.3192C108.547 28.3192 108.697 28.4685 108.697 28.7672C108.697 28.9379 108.355 29.4499 107.673 30.3032C106.99 31.1139 106.137 32.0739 105.113 33.1832C104.089 34.2499 103.043 35.3165 101.977 36.3832C100.91 37.4072 99.9714 38.2819 99.1608 39.0072C98.3928 39.6899 97.9021 40.0312 97.6888 40.0312ZM120.694 39.9032C119.84 39.9032 118.944 39.5405 118.006 38.8152C117.067 38.0899 116.598 37.2579 116.598 36.3192C116.598 35.4659 116.811 34.4632 117.238 33.3112C117.664 32.1592 118.155 31.1139 118.71 30.1752C117.387 31.5832 116.043 32.9912 114.678 34.3992C113.355 35.8072 112.054 37.2365 110.774 38.6872C110.347 39.1992 109.835 39.4552 109.238 39.4552C108.427 39.4552 107.659 39.0285 106.934 38.1752C106.251 37.3219 105.91 36.5112 105.91 35.7432C105.91 35.5299 105.931 35.3592 105.974 35.2312C106.272 34.4205 106.614 33.6312 106.998 32.8632C107.424 32.0525 107.851 31.2845 108.278 30.5592C108.747 29.7485 109.238 28.9805 109.75 28.2552C110.304 27.4872 110.859 26.7192 111.414 25.9512C111.627 25.6952 111.819 25.4392 111.99 25.1832C112.203 24.8845 112.395 24.5859 112.566 24.2872C112.694 24.0739 112.758 23.8179 112.758 23.5192C112.758 23.2205 112.736 22.9645 112.694 22.7512C113.12 22.1965 113.696 21.6632 114.422 21.1512C115.147 20.5965 115.851 20.3192 116.534 20.3192C116.704 20.3192 116.982 20.3832 117.366 20.5112C117.792 20.5965 118.176 20.7245 118.518 20.8952C118.902 21.0232 119.094 21.1725 119.094 21.3432C119.094 21.5139 119.008 21.6845 118.838 21.8552C118.624 22.0685 118.39 22.2819 118.134 22.4952C117.878 22.7085 117.643 22.9432 117.43 23.1992C116.448 24.1805 115.51 25.2259 114.614 26.3352C113.718 27.4019 112.864 28.4899 112.054 29.5992C111.798 29.9832 111.392 30.5592 110.838 31.3272C110.326 32.0525 109.856 32.7992 109.43 33.5672C109.003 34.3352 108.79 34.9539 108.79 35.4232C108.79 35.8499 108.982 36.0632 109.366 36.0632C109.792 36.0632 110.411 35.7859 111.222 35.2312C112.075 34.6339 112.992 33.8872 113.974 32.9912C114.955 32.0525 115.915 31.0925 116.854 30.1112C117.835 29.1299 118.688 28.2339 119.414 27.4232C120.182 26.6125 120.715 26.0152 121.014 25.6312C121.91 24.5645 122.784 23.3699 123.638 22.0472C123.979 21.5352 124.384 21.0872 124.854 20.7032C125.366 20.2765 125.92 20.0632 126.518 20.0632C126.859 20.0632 127.286 20.1059 127.798 20.1912C128.352 20.2339 128.63 20.4899 128.63 20.9592C128.63 21.1299 128.566 21.3005 128.438 21.4712C128.352 21.6419 128.246 21.7912 128.118 21.9192C126.71 23.3699 125.366 24.9059 124.086 26.5272C122.848 28.1059 121.803 29.8339 120.95 31.7112C120.651 32.3512 120.352 33.2045 120.054 34.2712C119.755 35.2952 119.606 36.1699 119.606 36.8952C119.606 37.6205 119.883 37.9832 120.438 37.9832C120.822 37.9832 121.206 37.8552 121.59 37.5992C122.059 37.3432 122.699 36.8312 123.51 36.0632C124.32 35.2525 125.174 34.3565 126.07 33.3752C127.008 32.3512 127.883 31.3912 128.694 30.4952C129.504 29.5565 130.123 28.8312 130.55 28.3192C130.635 28.2339 130.72 28.1699 130.806 28.1272C130.891 28.0419 130.976 27.9992 131.062 27.9992C131.36 27.9992 131.51 28.1699 131.51 28.5112C131.51 28.6819 131.467 28.8099 131.382 28.8952C131.296 28.9805 131.211 29.0872 131.126 29.2152C129.803 30.7512 128.48 32.3085 127.158 33.8872C125.878 35.4659 124.576 37.0232 123.254 38.5592C122.955 38.9432 122.592 39.2632 122.166 39.5192C121.739 39.7752 121.248 39.9032 120.694 39.9032ZM135.96 40.2232C135.278 40.2232 134.552 39.8819 133.784 39.1992C133.059 38.4739 132.696 37.7699 132.696 37.0872C132.696 36.2339 132.995 35.2739 133.592 34.2072C134.19 33.0979 134.894 32.0312 135.704 31.0072C136.515 29.9832 137.219 29.1085 137.816 28.3832C138.414 27.6152 138.712 27.1032 138.712 26.8472V26.7192C138.328 26.3779 137.966 26.0579 137.624 25.7592C137.283 25.4179 136.814 25.2472 136.216 25.2472C135.79 25.2472 135.235 25.5032 134.552 26.0152C133.912 26.5272 133.251 27.1245 132.568 27.8072C131.886 28.4899 131.267 29.1299 130.712 29.7272C130.158 30.3245 129.752 30.7299 129.496 30.9432C129.326 31.1139 129.155 31.2205 128.984 31.2632C128.856 31.3059 128.75 31.3272 128.664 31.3272C128.494 31.3272 128.408 31.2419 128.408 31.0712C128.408 30.9005 128.494 30.7299 128.664 30.5592C129.347 29.6632 130.136 28.7459 131.032 27.8072C131.928 26.8685 132.739 26.0152 133.464 25.2472C134.19 24.4365 134.616 23.8605 134.744 23.5192C135.086 22.5379 135.427 21.6632 135.768 20.8952C136.152 20.1272 136.75 19.4019 137.56 18.7192C137.902 18.3779 138.307 18.1005 138.776 17.8872C139.246 17.6739 139.715 17.5672 140.184 17.5672C140.611 17.5672 140.952 17.6952 141.208 17.9512C141.507 18.1645 141.656 18.5059 141.656 18.9752C141.656 19.4872 141.422 19.9992 140.952 20.5112C140.526 21.0232 140.014 21.5139 139.416 21.9832C138.819 22.4099 138.286 22.7939 137.816 23.1352C137.39 23.4765 137.198 23.7539 137.24 23.9672C137.496 24.1379 137.987 24.3512 138.712 24.6072C139.48 24.8632 140.014 24.9912 140.312 24.9912C140.654 24.9912 140.974 24.9272 141.272 24.7992C141.571 24.6712 141.87 24.6072 142.168 24.6072C142.595 24.6072 143.022 24.7352 143.448 24.9912C143.875 25.2472 144.088 25.6312 144.088 26.1432C144.088 26.5699 143.918 26.9752 143.576 27.3592C143.278 27.7005 142.958 27.9992 142.616 28.2552C142.104 28.6392 141.422 29.2152 140.568 29.9832C139.715 30.7512 138.84 31.6045 137.944 32.5432C137.091 33.4819 136.344 34.4205 135.704 35.3592C135.107 36.2552 134.808 37.0445 134.808 37.7272C134.808 37.8979 134.851 38.0685 134.936 38.2392C134.979 38.2819 135.064 38.3032 135.192 38.3032C136.046 38.3032 137.006 37.9192 138.072 37.1512C139.139 36.3832 140.206 35.4445 141.272 34.3352C142.382 33.2259 143.406 32.1379 144.344 31.0712C145.326 29.9619 146.158 29.1085 146.84 28.5112C146.926 28.4259 147.032 28.3405 147.16 28.2552C147.288 28.1699 147.416 28.1272 147.544 28.1272C147.758 28.1272 147.864 28.2765 147.864 28.5752C147.864 28.7459 147.566 29.1725 146.968 29.8552C146.414 30.5379 145.688 31.3485 144.792 32.2872C143.896 33.2259 142.958 34.1859 141.976 35.1672C141.038 36.1485 140.163 37.0232 139.352 37.7912C138.542 38.5165 137.966 39.0285 137.624 39.3272C137.155 39.7112 136.814 39.9459 136.6 40.0312C136.387 40.1592 136.174 40.2232 135.96 40.2232ZM156.751 40.0312C156.367 40.0312 155.919 39.8605 155.407 39.5192C154.938 39.1779 154.533 38.7939 154.191 38.3672C153.85 37.8979 153.679 37.4712 153.679 37.0872C153.679 36.4472 153.914 35.5939 154.383 34.5272C154.853 33.4179 155.386 32.3299 155.983 31.2632C156.623 30.1965 157.114 29.4072 157.455 28.8952C156.858 29.4072 156.09 30.2392 155.151 31.3912C154.255 32.5005 153.274 33.6952 152.207 34.9752C151.183 36.2125 150.181 37.2792 149.199 38.1752C148.261 39.0712 147.45 39.5192 146.767 39.5192C145.829 39.5192 145.061 39.1992 144.463 38.5592C143.909 37.8765 143.631 37.0659 143.631 36.1272C143.631 34.8472 143.994 33.4819 144.719 32.0312C145.445 30.5379 146.383 29.1085 147.535 27.7432C148.73 26.3352 150.01 25.0552 151.375 23.9032C152.783 22.7512 154.149 21.8339 155.471 21.1512C156.837 20.4685 158.053 20.1272 159.119 20.1272C160.271 20.1272 161.21 20.4045 161.935 20.9592C162.661 21.4712 163.023 22.2605 163.023 23.3272C163.023 23.4979 162.981 23.8179 162.895 24.2872C162.853 24.7565 162.703 24.9912 162.447 24.9912C162.319 24.9912 162.106 24.7992 161.807 24.4152C161.551 24.0312 161.189 23.6472 160.719 23.2632C160.25 22.8792 159.653 22.6872 158.927 22.6872C157.733 22.6872 156.474 23.1352 155.151 24.0312C153.871 24.8845 152.634 25.9939 151.439 27.3592C150.245 28.6819 149.199 30.0472 148.303 31.4552C147.407 32.8632 146.725 34.0792 146.255 35.1032C146.127 35.4019 145.999 35.7219 145.871 36.0632C145.786 36.4045 145.743 36.7459 145.743 37.0872C145.743 37.4712 145.85 37.6632 146.063 37.6632C146.277 37.6632 146.725 37.4285 147.407 36.9592C148.133 36.4899 148.645 36.1485 148.943 35.9352C150.437 34.8685 151.845 33.6525 153.167 32.2872C154.533 30.9219 155.749 29.5139 156.815 28.0632C157.157 27.5939 157.477 27.1245 157.775 26.6552C158.074 26.1859 158.373 25.7379 158.671 25.3112C158.885 25.0125 159.098 24.8632 159.311 24.8632C159.781 24.8632 160.229 25.1832 160.655 25.8232C161.125 26.4632 161.359 27.0179 161.359 27.4872C161.359 27.7005 161.317 27.8285 161.231 27.8712C161.189 27.9139 161.061 28.0419 160.847 28.2552C160.207 28.8952 159.567 29.7912 158.927 30.9432C158.33 32.0952 157.797 33.2685 157.327 34.4632C156.901 35.6152 156.581 36.5965 156.367 37.4072C156.325 37.5352 156.282 37.7059 156.239 37.9192C156.239 38.0899 156.346 38.1539 156.559 38.1112C156.986 37.9832 157.669 37.5139 158.607 36.7032C159.589 35.8499 160.634 34.8899 161.743 33.8232C162.895 32.7139 163.919 31.6899 164.815 30.7512C165.754 29.8125 166.373 29.1512 166.671 28.7672C166.757 28.6819 166.842 28.5965 166.927 28.5112C167.055 28.3832 167.183 28.3192 167.311 28.3192C167.61 28.3192 167.759 28.4685 167.759 28.7672C167.759 28.9379 167.418 29.4499 166.735 30.3032C166.053 31.1139 165.199 32.0739 164.175 33.1832C163.151 34.2499 162.106 35.3165 161.039 36.3832C159.973 37.4072 159.034 38.2819 158.223 39.0072C157.455 39.6899 156.965 40.0312 156.751 40.0312ZM178.156 40.1592C177.516 40.1592 176.791 39.9672 175.98 39.5832C175.212 39.2419 174.828 38.6872 174.828 37.9192C174.828 37.0232 175.17 35.9565 175.852 34.7192C176.535 33.4819 177.346 32.2019 178.284 30.8792C179.223 29.5139 180.119 28.2125 180.972 26.9752C181.868 25.7379 182.508 24.6925 182.892 23.8392C182.636 23.9672 182.21 24.2232 181.612 24.6072C181.058 24.9485 180.503 25.3112 179.948 25.6952C179.394 26.0365 178.988 26.3139 178.732 26.5272C176.898 27.8925 175.298 29.3005 173.932 30.7512C172.61 32.2019 171.266 33.8659 169.9 35.7432C169.559 36.2552 169.196 36.7885 168.812 37.3432C168.471 37.8979 168.108 38.4312 167.724 38.9432C167.554 39.1565 167.255 39.3699 166.828 39.5832C166.444 39.7965 166.082 39.9032 165.74 39.9032C165.186 39.9032 164.908 39.6045 164.908 39.0072C164.908 38.4952 165.164 37.7059 165.676 36.6392C166.231 35.5725 166.914 34.3565 167.724 32.9912C168.535 31.6259 169.388 30.2819 170.284 28.9592C171.18 27.5939 171.991 26.3779 172.716 25.3112C173.442 24.2019 173.954 23.4125 174.252 22.9432C174.167 23.0712 173.932 23.3059 173.548 23.6472C173.164 23.9459 172.78 24.2659 172.396 24.6072C172.055 24.9059 171.799 25.1192 171.628 25.2472C170.818 26.0152 170.028 26.8045 169.26 27.6152C168.492 28.4259 167.724 29.2365 166.956 30.0472C166.871 30.1325 166.7 30.2605 166.444 30.4312C166.231 30.6019 166.039 30.6872 165.868 30.6872C165.655 30.6872 165.548 30.5805 165.548 30.3672C165.548 30.1539 165.847 29.7059 166.444 29.0232C167.042 28.3405 167.788 27.5299 168.684 26.5912C169.58 25.6525 170.498 24.6925 171.436 23.7112C172.418 22.7299 173.271 21.8552 173.996 21.0872C174.722 20.3192 175.212 19.7859 175.468 19.4872C175.895 18.9325 176.343 18.4845 176.812 18.1432C177.324 17.8019 177.922 17.6312 178.604 17.6312C178.988 17.6312 179.458 17.8232 180.012 18.2072C180.567 18.5485 180.844 18.9539 180.844 19.4232C180.844 19.5939 180.802 19.7005 180.716 19.7432C179.436 20.8099 178.178 22.0685 176.94 23.5192C175.746 24.9699 174.615 26.4632 173.548 27.9992C172.482 29.5352 171.5 30.9645 170.604 32.2872C171.628 31.1352 172.78 30.0045 174.06 28.8952C175.34 27.7432 176.578 26.6765 177.772 25.6952L182.316 21.9832C182.615 21.7272 182.914 21.4499 183.212 21.1512C183.554 20.8525 183.874 20.5965 184.172 20.3832C184.514 20.1699 184.876 20.0845 185.26 20.1272C185.687 20.1272 186.114 20.1272 186.54 20.1272C187.01 20.1272 187.458 20.2552 187.884 20.5112C188.354 20.7672 188.588 21.1725 188.588 21.7272C188.588 22.2819 188.439 22.7085 188.14 23.0072C187.884 23.2632 187.586 23.5619 187.244 23.9032C186.519 24.5859 185.623 25.4819 184.556 26.5912C183.532 27.7005 182.508 28.8952 181.484 30.1752C180.46 31.4552 179.607 32.7565 178.924 34.0792C178.242 35.3592 177.9 36.5539 177.9 37.6632C177.9 37.7912 177.9 37.9192 177.9 38.0472C177.9 38.1752 177.922 38.3032 177.964 38.4312C178.86 38.0899 179.842 37.5352 180.908 36.7672C182.018 35.9565 183.127 35.0605 184.236 34.0792C185.346 33.0979 186.37 32.1165 187.308 31.1352C188.29 30.1539 189.1 29.2792 189.74 28.5112C189.826 28.4259 189.911 28.3192 189.996 28.1912C190.124 28.0632 190.274 27.9992 190.444 27.9992C190.658 27.9992 190.764 28.1485 190.764 28.4472C190.764 28.6179 190.7 28.8099 190.572 29.0232C189.762 30.0899 188.674 31.3485 187.308 32.7992C185.943 34.2499 184.535 35.6365 183.084 36.9592C181.634 38.2392 180.332 39.2205 179.18 39.9032C178.882 40.0739 178.54 40.1592 178.156 40.1592ZM192.839 41.1192C192.071 41.1192 191.41 40.8632 190.855 40.3512C190.343 39.8392 189.938 39.2205 189.639 38.4952C189.383 37.7272 189.255 37.0019 189.255 36.3192C189.255 35.6365 189.341 34.9752 189.511 34.3352C189.682 33.6525 189.917 32.9912 190.215 32.3512C190.77 31.1139 191.431 29.7485 192.199 28.2552C193.01 26.7192 193.863 25.1619 194.759 23.5832C195.698 21.9619 196.637 20.4899 197.575 19.1672C196.85 19.4659 195.997 19.8072 195.015 20.1912C194.077 20.5325 193.458 20.7032 193.159 20.7032C192.989 20.6605 192.861 20.5325 192.775 20.3192C192.733 20.1059 192.711 19.8925 192.711 19.6792C192.711 18.7832 193.138 18.1859 193.991 17.8872C195.314 17.4605 197.085 17.0765 199.303 16.7352C200.925 14.6019 202.674 12.4685 204.551 10.3352C206.471 8.20187 208.413 6.51653 210.375 5.2792C210.759 5.0232 211.186 5.1512 211.655 5.6632C212.125 6.13253 212.381 6.6232 212.423 7.1352C212.423 7.60453 212.253 7.92453 211.911 8.0952C210.205 9.16187 208.626 10.3779 207.175 11.7432C205.725 13.0659 204.231 14.5805 202.695 16.2872C203.549 16.1592 204.295 16.0739 204.935 16.0312C205.575 15.9885 205.981 15.9672 206.151 15.9672C206.279 15.9672 206.493 15.9672 206.791 15.9672C207.09 15.9245 207.41 15.9032 207.751 15.9032C208.263 15.9032 208.733 15.9459 209.159 16.0312C209.629 16.1165 209.863 16.2659 209.863 16.4792C209.863 16.6499 209.671 16.7992 209.287 16.9272C208.946 17.0125 208.562 17.0765 208.135 17.1192C207.709 17.1192 207.389 17.1405 207.175 17.1832C205.895 17.3539 204.743 17.5245 203.719 17.6952C202.738 17.8659 201.821 18.0792 200.967 18.3352C199.986 19.5299 199.218 20.5325 198.663 21.3432C198.151 22.1539 197.703 22.9005 197.319 23.5832C196.978 24.2232 196.551 24.9485 196.039 25.7592C194.93 27.8925 193.97 30.0685 193.159 32.2872C192.391 34.5059 192.007 36.2979 192.007 37.6632C192.007 37.8765 192.029 38.0472 192.071 38.1752C192.114 38.3032 192.242 38.3672 192.455 38.3672C192.711 38.3672 192.946 38.3032 193.159 38.1752C193.415 38.0045 193.629 37.8339 193.799 37.6632C194.397 37.1939 194.951 36.6605 195.463 36.0632C196.018 35.4232 196.551 34.8259 197.063 34.2712C198.002 33.2472 198.962 32.2445 199.943 31.2632C200.925 30.2819 201.885 29.3005 202.823 28.3192C202.909 28.2339 202.994 28.1699 203.079 28.1272C203.165 28.0419 203.25 27.9992 203.335 27.9992C203.634 27.9992 203.783 28.1699 203.783 28.5112C203.783 28.6392 203.698 28.8312 203.527 29.0872C203.015 29.7699 202.461 30.4525 201.863 31.1352C201.266 31.7752 200.69 32.4365 200.135 33.1192C199.026 34.4419 197.917 35.7432 196.807 37.0232C195.741 38.3032 194.674 39.6259 193.607 40.9912C193.479 41.0339 193.351 41.0552 193.223 41.0552C193.095 41.0979 192.967 41.1192 192.839 41.1192Z" fill="#ECC243"/>
</svg>
