<svg width="171" height="165" viewBox="0 0 171 165" fill="none" xmlns="http://www.w3.org/2000/svg">
<path d="M80.8417 8.7771H84.5374L87.0011 9.39304L89.0029 10.163L92.5445 12.1648L94.8543 13.2426L97.3181 14.0126L100.552 14.6285L103.169 14.9365H106.711L110.407 15.0905L113.794 15.5524L116.566 16.4763L119.03 17.7082L120.878 18.7861L122.571 20.1719L123.803 21.5578L125.497 24.7915L127.345 30.0269L128.423 32.7986L129.501 34.4925L130.117 35.2624L131.657 36.3403L134.89 38.3421L139.356 40.9598L141.973 42.6536L144.129 44.3475L145.823 46.1953L147.055 48.1971L147.825 49.8909L148.287 52.2007L148.441 53.4325L148.595 57.5901L148.749 67.1371L149.365 70.2168L150.135 72.2186L151.367 73.9124L152.598 75.1443V75.4523H152.906L153.984 76.6842L157.372 80.0718L158.604 82.5356L158.912 83.6135V86.2312L158.45 88.233L157.218 90.6967L156.14 92.3906L154.138 94.8543L152.752 96.3942L150.751 99.0119L149.673 100.706L149.365 101.476L149.057 102.861L148.749 103.477L148.595 104.401V106.865L149.365 112.255V115.026L148.903 117.182L147.979 119.646L146.747 122.264L145.361 124.419L144.129 125.959L142.743 127.499L141.512 128.577L139.818 129.655L136.892 131.041L135.198 131.965L132.734 133.196L130.733 134.89L129.655 136.276L128.577 137.816L127.499 139.972L126.267 142.897L124.573 146.901L123.341 149.365L121.956 151.059L120.724 152.29L118.568 153.676L116.566 154.292L114.872 154.446H112.716L106.865 153.984H103.631L101.014 154.446L97.1641 156.14L94.5463 157.526L91.9286 159.066L89.1569 160.606L87.1551 161.837L83.4595 163.685L81.6117 164.301L80.6878 164.455H79.1479L77.6081 163.993L75.9142 163.069L73.9124 161.53L71.2947 159.374L68.061 157.218L66.5212 156.448L64.5194 155.832L60.6698 155.216H55.4343L51.4307 155.524H47.4271L44.5014 155.062L42.4997 154.292L40.9598 153.368L38.958 151.521L37.7261 149.981L36.3403 147.671L33.5686 142.127L32.3367 140.28L30.6429 138.278L29.257 136.738L28.6411 135.968L27.4092 134.89L25.7154 133.35L23.4056 131.657L16.6303 127.653L14.4745 126.113L12.9347 124.727L11.8568 123.033L11.3948 121.802V118.876L12.4727 114.102L12.6267 113.024V109.791L11.8568 105.787L10.9329 103.323L8.93108 99.6278L6.7753 96.2402L5.23545 93.4685L3.8496 90.5428L2.77171 87.3091L2.46374 85.7692L2.30975 84.2294V82.6896L2.77171 80.2258L3.54163 78.378L4.7735 76.5302L6.62131 74.3744L8.77709 72.5266L10.6249 70.8328L12.0108 69.2929L12.9347 67.4451L13.2426 65.9053V63.7495L12.7807 60.5158L11.7028 56.3582L11.0869 52.5086V49.8909L11.3948 47.8891L12.1647 45.8873L13.5506 43.8855L14.7825 42.6536L16.3223 41.5758L18.4781 40.3439L25.4074 38.0341L28.3331 36.6483L30.0269 35.2624L31.7208 32.9526L33.2606 30.0269L35.1084 25.7154L36.3403 23.0976L38.0341 20.3259L39.8819 18.3241L41.5757 17.0923L43.4236 16.1683L45.8873 15.5524L46.9652 15.3984H48.813L52.5086 15.8604L56.8202 16.4763H59.8999L62.3636 15.8604L66.6752 14.1665L70.3708 12.4727L74.8363 10.3169L77.6081 9.39304L79.6099 8.93108L80.8417 8.7771ZM139.972 109.791L139.356 110.099L139.048 110.561V111.793L139.202 112.409V114.718L138.586 117.644L137.662 119.492L136.276 121.648L135.044 123.803L134.89 124.265V125.497L135.352 126.267L136.43 126.729L137.816 126.575L139.048 125.497L140.28 124.265L141.358 122.417L142.743 118.876L143.513 116.258L143.821 114.41V112.563L143.359 111.331L142.127 110.099L141.512 109.791H139.972Z" fill="#EBC143"/>
<path d="M33.4146 64.3654H35.2624L36.0323 65.5973L38.0341 68.9849L39.8819 72.0646V72.5266L35.4164 73.1425L31.8747 74.0664L29.565 74.9903L26.3313 76.6842L24.4835 77.916L22.0197 79.9178L20.4799 81.3037L19.094 82.8435L17.7082 84.8453L16.9383 86.5392L16.6303 87.617V89.6188L17.2462 90.8507L18.6321 92.0826L20.4799 93.0065L22.7897 93.6224L24.1755 93.7764H26.3313L29.565 93.4684L32.9526 92.6985L37.2642 91.1587L39.7279 90.0808L42.6536 88.5409L46.0413 86.5392L48.505 84.8453L50.5068 83.3055L52.2007 81.9196L54.2024 80.0718L55.2803 78.8399L56.8202 76.9921L57.8981 75.4523L58.36 74.5284L58.668 74.8363L59.2839 76.3762L60.8238 79.6099V80.3798L59.7459 82.0736L58.0521 85.3073L56.9742 88.5409L56.2042 91.9286L55.4343 91.7746L54.8184 89.0029L54.6644 87.4631H54.3564L52.2007 89.3109L49.4289 91.3127L46.8112 93.0065L43.4235 94.8543L38.804 96.8561L35.4164 97.934L32.6446 98.5499L29.257 99.0119H25.7154L22.7897 98.5499L20.3259 97.78L17.8622 96.5481L16.1683 95.3163L14.1665 93.3145L13.0886 91.7746L11.8568 89.3109L11.2408 87.1551L11.0869 86.0772V84.2294L11.3948 81.6117L12.3187 78.686L13.8586 75.9142L14.7825 74.5284H15.0904L15.3984 73.9124L16.7843 72.3726L19.094 70.0628L21.7118 68.215L24.1755 66.8292L26.1773 65.9053L28.795 65.1353L30.7968 64.6734L33.4146 64.3654Z" fill="#5E452B"/>
<path d="M156.448 55.2803H157.988L159.528 55.7423L160.606 56.6662L161.529 58.206L162.607 60.6698L163.993 64.5194L165.071 66.6752L167.381 69.7549L169.229 72.3726L169.845 73.6045L170.153 74.8363V77.1461L169.537 78.378L168.459 79.4559L166.765 80.0718L165.533 79.9178L164.609 79.3019L163.531 78.224L162.145 76.0682L160.914 74.2204L159.374 72.9885L157.68 71.7567L154.908 69.6009L153.984 68.369L153.06 66.5212L152.598 64.8274L152.444 63.5955V60.6698L152.906 58.668L153.83 57.1281L154.6 56.3582L155.524 55.5883L156.448 55.2803Z" fill="#ECC243"/>
<path d="M137.662 134.12H139.818L141.665 134.582L143.513 135.506L144.591 136.584L145.207 137.97L145.361 139.356L144.899 140.742L144.129 142.127L142.743 143.667L141.05 145.053L139.818 146.131L138.278 149.057L136.892 152.598L135.66 154.754L134.582 155.832L133.35 156.448L131.81 156.602L130.271 155.986L129.039 154.6L128.269 152.598L128.115 151.675V149.211L128.731 146.285L129.655 143.667L131.657 139.818L133.35 137.2L134.736 135.66L136.738 134.428L137.662 134.12Z" fill="#ECC243"/>
<path d="M84.6913 75.2983H89.9268L91.6206 75.4523L93.4684 76.3762L94.3923 77.4541L95.0083 78.9939V79.9178L94.2384 81.1497L94.3923 81.9196L95.3163 83.1515L95.6242 83.9214V85.6153L95.1623 86.8471L93.7764 88.387L92.3906 89.1569L91.4666 89.4649L85.3073 89.6188L84.5374 89.4649V75.4523L84.6913 75.2983Z" fill="#5E452B"/>
<path d="M72.0647 103.015H90.3888L99.6279 103.169L109.483 103.477L119.8 103.939L123.495 104.247L123.803 104.401L123.957 105.633L123.033 105.941L114.718 105.633L107.327 105.325L88.541 104.863L78.224 104.709H68.677L47.2732 105.017H40.8059L39.882 104.709L40.0359 104.247L41.5758 103.939L46.8112 103.631L56.5123 103.323L72.0647 103.015Z" fill="#F9F7E6"/>
<path d="M124.573 74.9904H126.575L127.499 75.4523L128.115 76.6842L129.501 80.8418L131.657 87.925L131.811 89.3109L131.195 89.6189H129.193L128.269 89.1569L127.653 88.387L126.883 86.0772V85.7693L123.187 85.6153L122.879 87.1551L122.263 88.8489L121.494 89.4649H118.414L118.26 89.1569L119.492 84.6914L121.648 77.7621L122.571 75.6063L123.187 75.1443L124.573 74.9904Z" fill="#5E452B"/>
<path d="M66.5212 74.9904H68.985L69.7549 75.2983L70.3708 76.0682L71.1407 78.07L74.3744 88.8489V89.4649H70.9867L70.3708 89.0029L69.2929 85.7693L65.7513 85.6153L65.4433 87.0011L64.6734 89.0029L64.2114 89.4649H60.6698L61.1318 87.6171L62.6716 82.6896L64.5194 76.6842L65.1353 75.4523L66.5212 74.9904Z" fill="#5E452B"/>
<path d="M104.093 0H105.787L107.327 0.461953L108.559 1.23187L110.099 2.77172L111.177 4.9275L111.485 6.00539V7.69921L111.023 8.93109L110.099 9.70101L108.097 10.163L106.711 10.3169H103.169L100.706 9.85499L99.3198 9.23906L98.3959 8.46913L97.78 7.23726L97.626 6.00539L98.2419 4.00359L99.1658 2.61773L100.398 1.38586L102.246 0.461953L104.093 0Z" fill="#ECC243"/>
<path d="M117.952 64.5194H120.416L120.724 64.8274V65.5973L120.416 65.9053L118.568 66.0593L114.718 66.2132L88.0789 66.6752L59.5918 66.8292H53.2785L41.5757 66.6752L40.3438 66.5212L40.6518 65.9053L44.3474 65.7513L80.9957 65.1353L93.4684 64.9814L117.952 64.5194Z" fill="#F9F7E6"/>
<path d="M1.69383 52.6626L2.9257 52.8166L4.77351 53.7405L5.8514 54.8184L7.39125 57.1282L8.31515 59.13L9.08507 62.0557L9.23906 62.9796V64.8274L8.7771 66.2132L7.8532 67.7531L6.46734 68.677L5.8514 68.831H4.46554L3.38765 68.369L2.46375 67.2911L1.84781 65.5973L1.23187 61.1318L0 56.3583V54.6644L0.615937 53.4325L1.23187 52.8166L1.69383 52.6626Z" fill="#ECC243"/>
<path d="M97.318 75.2983H106.403L107.173 75.4523L107.019 77.4541L106.865 77.916L105.479 78.224H101.168L101.322 80.6878L105.479 80.8417L105.633 81.3037L105.325 82.6896L105.017 83.1515L101.322 83.3055L101.168 86.6931H105.017L106.557 86.8471L107.019 87.1551V89.4649L97.318 89.6188L97.1641 89.4649V78.532L97.318 75.2983Z" fill="#5E452B"/>
<path d="M39.5739 51.5847H40.8058L42.3456 52.3546L43.4235 53.4325L43.7315 54.0485V54.6644H44.0395L44.3474 53.5865L45.2714 52.5086L46.5032 51.7387H48.967L50.3528 52.6626L51.2767 53.7405L51.7387 54.8184V56.2042L51.1228 57.5901L50.1988 58.668L48.659 59.4379H47.2731L45.8873 58.976L44.5014 57.7441L43.8855 56.5122L43.2696 57.8981L42.0377 58.976L40.9598 59.4379H39.4199L37.8801 58.822L36.6482 57.4361L36.1863 55.8963L36.3403 54.3564L36.9562 53.1246L38.1881 52.0467L39.5739 51.5847Z" fill="#5E452B"/>
<path d="M74.8363 75.2983H82.9975L83.1515 75.4523V77.3001L82.9975 77.916L81.4576 78.224H80.3797V89.4649H76.3761V78.224H74.0664L73.6044 77.916V76.2222L73.9124 75.4523L74.8363 75.2983Z" fill="#5E452B"/>
<path d="M109.175 75.2983H111.177L112.562 75.4523L112.87 76.0682V86.0772H117.49V87.925L117.336 89.4649H108.867L109.021 75.4523L109.175 75.2983Z" fill="#5E452B"/>
<path d="M105.633 33.5685H106.403V34.3385L104.555 35.8783L101.63 38.0341L99.4738 39.5739L96.7021 41.5757L96.2402 41.8837H95.7782V42.1917L94.8543 42.4996L95.0083 41.7297L96.5481 40.3439L99.1659 38.3421L100.86 36.9562L102.554 35.7243L104.401 34.3385L105.633 33.5685Z" fill="#F9F7E6"/>
<path d="M57.1282 35.2624L58.2061 35.5704L59.13 36.1863L60.5158 37.5722L61.7477 38.6501L63.7495 40.6519L64.6734 42.0377L64.8274 42.8076L64.6734 43.1156H63.9035L62.2097 41.4218L60.6698 39.42L58.976 37.4182L57.2822 36.0323L57.1282 35.2624Z" fill="#F9F7E6"/>
<path d="M88.5409 82.8435L90.2348 82.9975L91.1587 83.6135L91.6206 84.3834V85.4613L90.6967 86.5392L89.7728 86.8471H88.6949L88.387 86.5392V82.9975L88.5409 82.8435Z" fill="#ECC243"/>
<path d="M93.4684 128.423L94.0844 128.577L96.8561 130.271L99.7818 132.119L101.322 133.042L101.784 133.504V134.274L100.552 133.966L98.8579 132.888L94.5463 129.963L93.4684 129.039L93.3145 128.577L93.4684 128.423Z" fill="#F9F7E6"/>
<path d="M78.6859 129.963H78.9939V134.428L79.3019 139.664L78.532 139.818L78.224 138.894L78.07 138.124V131.965L78.378 130.425L78.6859 129.963Z" fill="#F9F7E6"/>
<path d="M80.8417 32.9526H81.1497L81.4576 38.1881V41.2678L81.3037 41.5758L80.3798 41.4218L80.2258 41.1138V38.0341L80.3798 34.3385L80.5337 33.2606L80.8417 32.9526Z" fill="#F9F7E6"/>
<path d="M64.5194 127.807H64.8274L64.6734 128.731L63.4415 130.425L62.5176 131.657H62.2096L61.9017 132.272L60.9777 133.504H60.6698L60.3618 134.12L58.976 135.66L58.206 136.276L57.7441 136.122L58.052 135.352L59.4379 133.966L59.5919 133.658H59.8999L60.2078 133.042L61.7477 131.349L63.4415 129.193L63.9035 128.577H64.2114L64.5194 127.807Z" fill="#F9F7E6"/>
<path d="M88.541 78.07H89.6188L90.6967 78.532L90.8507 78.84V79.9178L90.3888 80.3798L89.9268 80.5338H88.541V78.07Z" fill="#ECC243"/>
<path d="M67.4451 79.9178L67.7531 80.0718L68.523 82.6896V83.1515H66.6752L66.8292 82.0736L67.4451 79.9178Z" fill="#ECC44A"/>
<path d="M125.035 80.0718L125.343 80.3798L125.959 82.5356L125.805 83.1515H124.265L124.111 82.6895L124.881 80.2258L125.035 80.0718Z" fill="#ECC243"/>
<path d="M35.0205 113.05C34.8273 113.05 34.6523 113.02 34.4955 112.958C34.3415 112.894 34.2085 112.798 34.0965 112.672C33.9873 112.546 33.9033 112.391 33.8445 112.206C33.7857 112.019 33.7563 111.802 33.7563 111.555C33.7563 111.309 33.7857 111.09 33.8445 110.9C33.9033 110.707 33.9873 110.546 34.0965 110.417C34.2085 110.285 34.3415 110.186 34.4955 110.119C34.6523 110.052 34.8273 110.018 35.0205 110.018C35.2837 110.018 35.5021 110.074 35.6757 110.186C35.8493 110.298 35.9879 110.467 36.0915 110.694L35.6169 110.946C35.5749 110.815 35.5063 110.71 35.4111 110.631C35.3159 110.55 35.1857 110.509 35.0205 110.509C34.8133 110.509 34.6481 110.579 34.5249 110.719C34.4045 110.859 34.3443 111.055 34.3443 111.307V111.769C34.3443 112.024 34.4045 112.22 34.5249 112.357C34.6481 112.492 34.8133 112.559 35.0205 112.559C35.1857 112.559 35.3201 112.514 35.4237 112.425C35.5301 112.335 35.6071 112.224 35.6547 112.093L36.1041 112.357C35.9977 112.576 35.8563 112.747 35.6799 112.87C35.5035 112.99 35.2837 113.05 35.0205 113.05ZM37.1314 113H36.577V110.068H37.9C38.0344 110.068 38.1548 110.089 38.2612 110.131C38.3676 110.173 38.4572 110.235 38.53 110.316C38.6056 110.395 38.663 110.49 38.7022 110.602C38.7442 110.714 38.7652 110.838 38.7652 110.976C38.7652 111.177 38.719 111.351 38.6266 111.496C38.537 111.642 38.4012 111.746 38.2192 111.807L38.8198 113H38.2024L37.6564 111.87H37.1314V113ZM37.8454 111.404C37.9518 111.404 38.0358 111.376 38.0974 111.32C38.159 111.261 38.1898 111.179 38.1898 111.072V110.879C38.1898 110.773 38.159 110.691 38.0974 110.635C38.0358 110.579 37.9518 110.551 37.8454 110.551H37.1314V111.404H37.8454ZM39.3661 113V110.068H41.2981V110.56H39.9205V111.27H41.1385V111.761H39.9205V112.509H41.2981V113H39.3661ZM41.8844 113V110.068H43.2032C43.3376 110.068 43.458 110.091 43.5644 110.136C43.6736 110.178 43.766 110.239 43.8416 110.32C43.9172 110.399 43.9746 110.494 44.0138 110.606C44.053 110.718 44.0726 110.841 44.0726 110.976C44.0726 111.113 44.053 111.237 44.0138 111.349C43.9746 111.459 43.9172 111.554 43.8416 111.635C43.766 111.713 43.6736 111.775 43.5644 111.82C43.458 111.862 43.3376 111.883 43.2032 111.883H42.4388V113H41.8844ZM42.4388 111.404H43.1528C43.2592 111.404 43.3432 111.376 43.4048 111.32C43.4664 111.261 43.4972 111.179 43.4972 111.072V110.879C43.4972 110.773 43.4664 110.691 43.4048 110.635C43.3432 110.579 43.2592 110.551 43.1528 110.551H42.4388V111.404ZM44.5751 113V110.068H46.5071V110.56H45.1295V111.27H46.3475V111.761H45.1295V112.509H46.5071V113H44.5751ZM47.9852 111.988V111.454H49.1864V111.988H47.9852ZM51.6798 113.05C51.4278 113.05 51.2136 113.006 51.0372 112.916C50.8636 112.826 50.7138 112.709 50.5878 112.563L50.9616 112.202C51.0624 112.32 51.1744 112.409 51.2976 112.471C51.4236 112.532 51.5622 112.563 51.7134 112.563C51.8842 112.563 52.013 112.527 52.0998 112.454C52.1866 112.378 52.23 112.278 52.23 112.152C52.23 112.054 52.202 111.974 52.146 111.912C52.09 111.851 51.985 111.806 51.831 111.778L51.5538 111.736C50.9686 111.643 50.676 111.359 50.676 110.883C50.676 110.752 50.6998 110.633 50.7474 110.526C50.7978 110.42 50.8692 110.329 50.9616 110.253C51.054 110.178 51.1646 110.12 51.2934 110.081C51.425 110.039 51.5734 110.018 51.7386 110.018C51.9598 110.018 52.153 110.054 52.3182 110.127C52.4834 110.2 52.6248 110.308 52.7424 110.451L52.3644 110.808C52.2916 110.718 52.2034 110.645 52.0998 110.589C51.9962 110.533 51.866 110.505 51.7092 110.505C51.5496 110.505 51.4292 110.536 51.348 110.598C51.2696 110.656 51.2304 110.74 51.2304 110.85C51.2304 110.962 51.2626 111.044 51.327 111.097C51.3914 111.151 51.495 111.19 51.6378 111.215L51.9108 111.265C52.2076 111.319 52.426 111.414 52.566 111.551C52.7088 111.685 52.7802 111.874 52.7802 112.118C52.7802 112.258 52.755 112.385 52.7046 112.5C52.657 112.612 52.5856 112.71 52.4904 112.794C52.398 112.875 52.2832 112.938 52.146 112.983C52.0116 113.028 51.8562 113.05 51.6798 113.05ZM55.1504 113L54.9152 112.252H53.8736L53.6426 113H53.0798L54.0626 110.068H54.7514L55.7258 113H55.1504ZM54.4028 110.572H54.3818L54.008 111.778H54.7808L54.4028 110.572ZM56.9979 111.496L56.6955 110.887H56.6829V113H56.1579V110.068H56.7669L57.6489 111.572L57.9513 112.181H57.9639V110.068H58.4889V113H57.8799L56.9979 111.496ZM59.1766 110.068H60.2434C60.4338 110.068 60.606 110.099 60.76 110.161C60.9168 110.222 61.0498 110.315 61.159 110.438C61.271 110.558 61.3564 110.711 61.4152 110.896C61.4768 111.078 61.5076 111.291 61.5076 111.534C61.5076 111.778 61.4768 111.992 61.4152 112.177C61.3564 112.359 61.271 112.511 61.159 112.635C61.0498 112.755 60.9168 112.846 60.76 112.908C60.606 112.969 60.4338 113 60.2434 113H59.1766V110.068ZM60.2434 112.509C60.4506 112.509 60.6144 112.448 60.7348 112.328C60.858 112.205 60.9196 112.017 60.9196 111.765V111.303C60.9196 111.051 60.858 110.865 60.7348 110.745C60.6144 110.621 60.4506 110.56 60.2434 110.56H59.731V112.509H60.2434ZM62.4519 113L61.7715 110.068H62.3259L62.6157 111.475L62.7963 112.374H62.8089L63.0189 111.475L63.3549 110.068H63.9681L64.3041 111.475L64.5099 112.374H64.5225L64.7073 111.475L65.0055 110.068H65.5347L64.8333 113H64.2075L63.8337 111.45L63.6531 110.677H63.6447L63.4557 111.45L63.0819 113H62.4519ZM65.8716 113V112.555H66.258V110.514H65.8716V110.068H67.203V110.514H66.8124V112.555H67.203V113H65.8716ZM68.9076 113.05C68.7144 113.05 68.5394 113.02 68.3826 112.958C68.2286 112.894 68.0956 112.798 67.9836 112.672C67.8744 112.546 67.7904 112.391 67.7316 112.206C67.6728 112.019 67.6434 111.802 67.6434 111.555C67.6434 111.309 67.6728 111.09 67.7316 110.9C67.7904 110.707 67.8744 110.546 67.9836 110.417C68.0956 110.285 68.2286 110.186 68.3826 110.119C68.5394 110.052 68.7144 110.018 68.9076 110.018C69.1708 110.018 69.3892 110.074 69.5628 110.186C69.7364 110.298 69.875 110.467 69.9786 110.694L69.504 110.946C69.462 110.815 69.3934 110.71 69.2982 110.631C69.203 110.55 69.0728 110.509 68.9076 110.509C68.7004 110.509 68.5352 110.579 68.412 110.719C68.2916 110.859 68.2314 111.055 68.2314 111.307V111.769C68.2314 112.024 68.2916 112.22 68.412 112.357C68.5352 112.492 68.7004 112.559 68.9076 112.559C69.0728 112.559 69.2072 112.514 69.3108 112.425C69.4172 112.335 69.4942 112.224 69.5418 112.093L69.9912 112.357C69.8848 112.576 69.7434 112.747 69.567 112.87C69.3906 112.99 69.1708 113.05 68.9076 113.05ZM72.2407 111.761H71.0185V113H70.4641V110.068H71.0185V111.27H72.2407V110.068H72.7951V113H72.2407V111.761ZM74.3747 111.988V111.454H75.5759V111.988H74.3747ZM77.6031 113L76.9227 110.068H77.4771L77.7669 111.475L77.9475 112.374H77.9601L78.1701 111.475L78.5061 110.068H79.1193L79.4553 111.475L79.6611 112.374H79.6737L79.8585 111.475L80.1567 110.068H80.6859L79.9845 113H79.3587L78.9849 111.45L78.8043 110.677H78.7959L78.6069 111.45L78.2331 113H77.6031ZM82.8688 113L82.6336 112.252H81.592L81.361 113H80.7982L81.781 110.068H82.4698L83.4442 113H82.8688ZM82.1212 110.572H82.1002L81.7264 111.778H82.4992L82.1212 110.572ZM83.8762 113V110.068H85.762V110.56H84.4306V111.27H85.5898V111.761H84.4306V113H83.8762ZM86.3003 113V110.068H88.1861V110.56H86.8547V111.27H88.0139V111.761H86.8547V113H86.3003ZM88.7243 113V110.068H89.2787V112.509H90.4337V113H88.7243ZM90.9145 113V110.068H92.8465V110.56H91.4689V111.27H92.6869V111.761H91.4689V112.509H92.8465V113H90.9145ZM94.3247 111.988V111.454H95.5259V111.988H94.3247ZM97.1079 113V110.068H98.4267C98.5611 110.068 98.6815 110.091 98.7879 110.136C98.8971 110.178 98.9895 110.239 99.0651 110.32C99.1407 110.399 99.1981 110.494 99.2373 110.606C99.2765 110.718 99.2961 110.841 99.2961 110.976C99.2961 111.113 99.2765 111.237 99.2373 111.349C99.1981 111.459 99.1407 111.554 99.0651 111.635C98.9895 111.713 98.8971 111.775 98.7879 111.82C98.6815 111.862 98.5611 111.883 98.4267 111.883H97.6623V113H97.1079ZM97.6623 111.404H98.3763C98.4827 111.404 98.5667 111.376 98.6283 111.32C98.6899 111.261 98.7207 111.179 98.7207 111.072V110.879C98.7207 110.773 98.6899 110.691 98.6283 110.635C98.5667 110.579 98.4827 110.551 98.3763 110.551H97.6623V111.404ZM99.6767 113V112.555H100.063V110.514H99.6767V110.068H101.008V110.514H100.618V112.555H101.008V113H99.6767ZM103.586 113H101.39V112.504L102.906 110.56H101.465V110.068H103.544V110.564L102.024 112.509H103.586V113ZM106.101 113H103.904V112.504L105.42 110.56H103.98V110.068H106.059V110.564L104.538 112.509H106.101V113ZM108.417 113L108.182 112.252H107.141L106.91 113H106.347L107.33 110.068H108.018L108.993 113H108.417ZM107.67 110.572H107.649L107.275 111.778H108.048L107.67 110.572ZM110.317 111.988V111.454H111.518V111.988H110.317ZM113.1 113V110.068H114.419C114.553 110.068 114.673 110.091 114.78 110.136C114.889 110.178 114.981 110.239 115.057 110.32C115.133 110.399 115.19 110.494 115.229 110.606C115.268 110.718 115.288 110.841 115.288 110.976C115.288 111.113 115.268 111.237 115.229 111.349C115.19 111.459 115.133 111.554 115.057 111.635C114.981 111.713 114.889 111.775 114.78 111.82C114.673 111.862 114.553 111.883 114.419 111.883H113.654V113H113.1ZM113.654 111.404H114.368C114.475 111.404 114.559 111.376 114.62 111.32C114.682 111.261 114.713 111.179 114.713 111.072V110.879C114.713 110.773 114.682 110.691 114.62 110.635C114.559 110.579 114.475 110.551 114.368 110.551H113.654V111.404ZM117.33 113L117.095 112.252H116.053L115.822 113H115.259L116.242 110.068H116.931L117.905 113H117.33ZM116.582 110.572H116.561L116.188 111.778H116.96L116.582 110.572ZM119.249 113.05C118.997 113.05 118.783 113.006 118.606 112.916C118.433 112.826 118.283 112.709 118.157 112.563L118.531 112.202C118.632 112.32 118.744 112.409 118.867 112.471C118.993 112.532 119.131 112.563 119.283 112.563C119.453 112.563 119.582 112.527 119.669 112.454C119.756 112.378 119.799 112.278 119.799 112.152C119.799 112.054 119.771 111.974 119.715 111.912C119.659 111.851 119.554 111.806 119.4 111.778L119.123 111.736C118.538 111.643 118.245 111.359 118.245 110.883C118.245 110.752 118.269 110.633 118.317 110.526C118.367 110.42 118.438 110.329 118.531 110.253C118.623 110.178 118.734 110.12 118.863 110.081C118.994 110.039 119.143 110.018 119.308 110.018C119.529 110.018 119.722 110.054 119.887 110.127C120.053 110.2 120.194 110.308 120.312 110.451L119.934 110.808C119.861 110.718 119.773 110.645 119.669 110.589C119.565 110.533 119.435 110.505 119.278 110.505C119.119 110.505 118.998 110.536 118.917 110.598C118.839 110.656 118.8 110.74 118.8 110.85C118.8 110.962 118.832 111.044 118.896 111.097C118.961 111.151 119.064 111.19 119.207 111.215L119.48 111.265C119.777 111.319 119.995 111.414 120.135 111.551C120.278 111.685 120.349 111.874 120.349 112.118C120.349 112.258 120.324 112.385 120.274 112.5C120.226 112.612 120.155 112.71 120.06 112.794C119.967 112.875 119.852 112.938 119.715 112.983C119.581 113.028 119.425 113.05 119.249 113.05ZM121.974 110.56V113H121.42V110.56H120.588V110.068H122.806V110.56H121.974ZM124.799 113L124.564 112.252H123.522L123.291 113H122.728L123.711 110.068H124.4L125.374 113H124.799ZM124.051 110.572H124.03L123.657 111.778H124.429L124.051 110.572Z" fill="#5E452B"/>
</svg>
